<?xml version="1.0" encoding="UTF-8"?>
<svg width="50px" height="50px" viewBox="0 0 50 50" version="1.1" xmlns="http://www.w3.org/2000/svg" xmlns:xlink="http://www.w3.org/1999/xlink">
    <!-- Generator: Sketch 46.2 (44496) - http://www.bohemiancoding.com/sketch -->
    <title>play</title>
    <desc>Created with Sketch.</desc>
    <defs></defs>
    <g id="Page-1" stroke="none" stroke-width="1" fill="none" fill-rule="evenodd">
        <g id="desktop-landning-grön" transform="translate(-857.000000, -255.000000)" fill="#FFFFFF">
            <g id="Group-2" transform="translate(843.000000, 255.000000)">
                <g id="play" transform="translate(14.000000, 0.000000)">
                    <path d="M25,48.125 C12.249,48.125 1.875,37.751 1.875,25 C1.875,12.249 12.249,1.875 25,1.875 C37.751,1.875 48.125,12.249 48.125,25 C48.125,37.751 37.751,48.125 25,48.125 M25,0 C11.193,0 0,11.193 0,25 C0,38.807 11.193,50 25,50 C38.807,50 50,38.807 50,25 C50,11.193 38.807,0 25,0" id="Fill-3"></path>
                    <path d="M36.4387,24.1177 L18.5337,15.1137 C17.8287,14.7597 16.9997,15.2747 16.9997,16.0667 L16.9997,33.9327 C16.9997,34.7247 17.8287,35.2407 18.5337,34.8867 L36.4387,25.8827 C37.1867,25.5067 37.1867,24.4937 36.4387,24.1177" id="Fill-5"></path>
                </g>
            </g>
        </g>
    </g>
</svg>