<?xml version="1.0" standalone="no"?>
<!DOCTYPE svg PUBLIC "-//W3C//DTD SVG 1.1//EN" "http://www.w3.org/Graphics/SVG/1.1/DTD/svg11.dtd" >
<svg xmlns="http://www.w3.org/2000/svg">
<metadata>
Created by FontPrep 20130207 at Sun Aug 27 22:29:07 2017
 By Patrik Lythell
Copyright (c) 2015 by Juri Zaech. All rights reserved.
</metadata>
<defs>
<font id="d62e6df5e48683700b58fa3c0c467855" horiz-adv-x='1024' >
  <font-face 
    font-family="RealtimeRounded-Regular"
    font-weight="400"
    font-stretch="normal"
    units-per-em="2048"
    panose-1="0 0 5 0 0 0 0 0 0 0"
    ascent="1716"
    descent="-332"
    x-height="942"
    cap-height="1311"
    bbox="-148.361 -389 1987 2005"
    underline-thickness="102"
    underline-position="-102"
    unicode-range="U+0020-E133"
  />
<missing-glyph 
d="M473 293v-139h139v139h-139zM543 1178q-297 0 -297 -283v-37h94v41q0 191 204 191t204 -191v-61q0 -190 -205 -191h-47l6 -207h82l2 99q0 23 24 26q229 33 230 279v51q0 283 -297 283zM952 1284v-1257q0 -27 -26 -27h-766q-27 0 -27 27v1257q0 27 27 27h766q26 0 26 -27z
" />
    <glyph glyph-name=".notdef" 
d="M473 293v-139h139v139h-139zM543 1178q-297 0 -297 -283v-37h94v41q0 191 204 191t204 -191v-61q0 -190 -205 -191h-47l6 -207h82l2 99q0 23 24 26q229 33 230 279v51q0 283 -297 283zM952 1284v-1257q0 -27 -26 -27h-766q-27 0 -27 27v1257q0 27 27 27h766q26 0 26 -27z
" />
    <glyph glyph-name=".null" horiz-adv-x="0" 
 />
    <glyph glyph-name="nonmarkingreturn" horiz-adv-x="681" 
 />
    <glyph glyph-name="space" unicode=" " 
 />
    <glyph glyph-name="exclam" unicode="!" 
d="M633 154v-127q0 -27 -27 -27h-127q-27 0 -26 27v127q0 27 26 26h127q27 1 27 -26zM526 455q-27 0 -28 26l-17 355v448q0 27 27 27h70q27 0 26 -27v-448l-16 -355q-2 -27 -29 -26h-33z" />
    <glyph glyph-name="quotedbl" unicode="&#x22;" 
d="M647 801q-27 0 -29 26l-16 457q-4 27 25 27h73q29 0 25 -27l-16 -457q-2 -27 -29 -26h-33zM406 801q-27 0 -27 26l-17 457q-4 27 25 27h72q28 0 24 -27l-16 -457q0 -27 -27 -26h-34z" />
    <glyph glyph-name="numbersign" unicode="#" 
d="M711 827h-279l-59 -344h278zM909 483q27 0 27 -26v-51q0 -27 -27 -27h-166l-61 -354q-2 -25 -29 -25h-57q-29 0 -25 29l62 350h-279l-61 -354q-2 -25 -29 -25h-57q-29 0 -25 29l62 350h-127q-27 0 -27 27v51q0 27 27 26h145l62 344h-146q-27 0 -26 27v51q0 27 26 27h164
l61 354q2 25 29 25h57q29 0 25 -29l-61 -350h278l62 354q2 25 28 25h58q29 0 24 -29l-61 -350h129q27 0 26 -27v-51q0 -27 -26 -27h-148l-61 -344h147z" />
    <glyph glyph-name="dollar" unicode="$" 
d="M807 316q0 93 -56.5 149.5t-162.5 105.5v-475q109 8 164 67.5t55 152.5zM279 995q0 -92 56 -148t163 -106v473q-109 -10 -164 -68.5t-55 -150.5zM588 -106q0 -27 -27 -27h-37q-27 0 -26 27v88q-162 10 -248 98t-94 244q0 27 26 26h70q27 0 27 -26q12 -205 219 -228v514
q-212 91 -277 176t-65 219q0 133 87 223.5t255 100.5v88q0 27 26 27h37q27 0 27 -27v-88q162 -10 248 -98t94 -244q0 -27 -27 -26h-69q-27 0 -27 26q-12 204 -219 227v-512q209 -89 275.5 -174t66.5 -220q0 -136 -87 -226t-255 -100v-88z" />
    <glyph glyph-name="percent" unicode="%" 
d="M776 369q-108 0 -106 -101v-102q0 -98 107 -98t108 98v102q-1 101 -109 101zM777 453q198 0 198 -187v-94q0 -190 -198 -190t-197 190v94q-1 187 197 187zM319.5 981q-106.5 0 -106.5 -100v-103q0 -100 106.5 -100t106.5 100v103q0 100 -106.5 100zM913 1047l23 -17
q20 -16 4 -37l-721 -993q-16 -23 -37 -6l-22 16q-23 16 -6 39l720 991q16 23 39 7zM319.5 1065q198.5 0 198.5 -186v-97q0 -188 -198.5 -188t-198.5 188v97q0 186 198.5 186z" />
    <glyph glyph-name="ampersand" unicode="&#x26;" 
d="M512 92q139 0 231 123l-286 469q-180 -37 -181 -235v-109q0 -117 62.5 -182.5t173.5 -65.5zM973 45v-18q0 -27 -27 -27h-49q-20 0 -31 18l-61 97q-119 -135 -294 -135t-265 97t-90 271v94q0 135 62.5 224.5t172.5 119.5q-115 182 -115 310t73 202t201 74t234 -100
q18 -16 4 -37l-30 -39q-16 -23 -37 -4q-82 70 -161 70t-123 -43t-44 -99t7.5 -83t10.5 -39.5t13 -34t18.5 -40t13.5 -27.5l29 -48q23 -39 25 -41l297 -477q49 119 51 274q0 27 27 27h51q27 0 27 -27q-6 -227 -86 -385l86 -141q10 -12 10 -33z" />
    <glyph glyph-name="quotesingle" unicode="'" 
d="M526 801q-27 0 -28 26l-17 457q-4 27 25 27h74q28 0 24 -27l-16 -457q-2 -27 -29 -26h-33z" />
    <glyph glyph-name="parenleft" unicode="(" 
d="M475 596q0 -412 248 -731q16 -23 -4 -37l-47 -41q-23 -16 -37 4q-289 354 -289 805t289 805q14 20 37 4l47 -41q20 -14 4 -37q-248 -319 -248 -731z" />
    <glyph glyph-name="parenright" unicode=")" 
d="M733 596q0 -455 -289 -805q-14 -20 -36 -4l-48 41q-20 14 -4 37q248 319 248 731t-248 731q-16 23 4 37l48 41q23 16 36 -4q289 -350 289 -805z" />
    <glyph glyph-name="asterisk" unicode="*" 
d="M532 1391h54q27 0 26 -27l-8 -262l248 90q25 6 33 -18l16 -50q8 -27 -18 -34l-252 -74l160 -205q16 -20 -5 -37l-43 -33q-25 -16 -36 7l-148 217l-147 -217q-12 -23 -37 -7l-43 33q-20 16 -4 37l159 207l-249 72q-27 8 -19 34l17 50q8 25 32 18l246 -90l-8 262
q0 27 26 27z" />
    <glyph glyph-name="plus" unicode="+" 
d="M918 623v-45q0 -27 -27 -27h-299v-297q0 -27 -27 -27h-45q-27 0 -26 27v297h-297q-27 0 -27 27v45q0 27 27 26h297v299q0 27 26 27h45q27 0 27 -27v-299h299q27 1 27 -26z" />
    <glyph glyph-name="comma" unicode="," 
d="M479 180h127q27 0 27 -26v-86q0 -14 -6 -33l-80 -215q-8 -20 -31 -21h-29q-29 0 -22 31l49 170h-35q-27 0 -26 27v127q-1 26 26 26z" />
    <glyph glyph-name="hyphen" unicode="-" 
d="M780 584v-49q0 -27 -26 -27h-422q-27 0 -27 27v49q0 27 27 26h422q26 1 26 -26z" />
    <glyph glyph-name="period" unicode="." 
d="M633 154v-127q0 -27 -27 -27h-127q-27 0 -26 27v127q0 27 26 26h127q27 1 27 -26z" />
    <glyph glyph-name="slash" unicode="/" 
d="M315 -61q-29 0 -22 30l379 1381q6 23 28 22h70q29 0 23 -31l-379 -1380q-6 -23 -29 -22h-70z" />
    <glyph glyph-name="zero" unicode="0" 
d="M606 702v-94q0 -27 -26 -26h-95q-27 0 -26 26v94q0 27 26 27h95q26 0 26 -27zM532.5 1217q-264.5 0 -264.5 -248v-627q0 -248 264.5 -248t264.5 248v627q0 248 -264.5 248zM533 1331q194 0 290.5 -95t96.5 -271v-617q0 -178 -96.5 -273t-290.5 -95t-291 96t-97 272v617
q0 176 97 271t291 95z" />
    <glyph glyph-name="one" unicode="1" 
d="M604 115h246q27 0 27 -27v-61q0 -27 -27 -27h-612q-27 0 -27 27v61q0 27 27 27h243v1038l-223 -125q-23 -12 -35 10l-33 58q-14 20 9 37l293 170q14 8 32 8h54q27 0 26 -27v-1169z" />
    <glyph glyph-name="two" unicode="2" 
d="M276 115h617q27 0 27 -27v-61q0 -27 -27 -27h-711q-27 0 -26 27v182q0 20 14 33l473 440q96 90 130 152.5t34 134.5q0 248 -264 248t-264 -248v-29q0 -27 -27 -27h-70q-27 0 -26 27v25q0 176 97 271t291 95t290 -94t96 -266q0 -98 -42 -179t-159 -190l-453 -422v-65z" />
    <glyph glyph-name="three" unicode="3" 
d="M930 348q0 -178 -96.5 -273t-290.5 -95q-387 0 -387 360v4q0 27 26 27h70q27 0 27 -27v-10q0 -240 264 -240t264 242v20q0 252 -272 252h-46q-27 0 -26 27v45q0 27 26 27h46q272 0 272 247v21q0 242 -264 242t-264 -248q0 -27 -27 -27h-70q-27 0 -26 23q0 176 97 271
t291 95t290 -95t96 -271q0 -234 -172 -310q172 -76 172 -307z" />
    <glyph glyph-name="four" unicode="4" 
d="M969 397v-61q0 -27 -27 -27h-166v-282q0 -27 -26 -27h-70q-27 0 -27 27v282h-477q-27 0 -26 27v129q0 16 8 33l389 792q12 20 33 21h79q35 0 19 -31l-406 -825v-31h381v307q0 27 27 27h70q27 0 26 -27v-307h166q27 0 27 -27z" />
    <glyph glyph-name="five" unicode="5" 
d="M567 887q170 0 266.5 -96.5t96.5 -270.5v-172q0 -178 -96.5 -273t-285.5 -95t-286.5 87t-105.5 246q0 27 26 27h70q27 0 27 -27q16 -219 272 -219t256 248v182q0 248 -264 248q-186 0 -258 -141q-10 -23 -31 -17l-59 9q-29 0 -25 28l37 633q2 27 29 27h628q27 0 27 -27
v-61q0 -27 -27 -27h-542l-27 -391q102 82 272 82z" />
    <glyph glyph-name="six" unicode="6" 
d="M807 342v141q0 248 -260 248q-131 0 -199.5 -70.5t-68.5 -197.5v-121q0 -248 264 -248t264 248zM556 846q186 0 280 -95.5t94 -271.5v-131q0 -178 -96 -273t-290 -95t-291 96t-97 272v617q0 176 96 271t282 95t280.5 -86t103.5 -244q0 -27 -27 -26h-70q-27 0 -26 26
q-16 215 -256 216q-260 0 -260 -248v-234q91 111 277 111z" />
    <glyph glyph-name="seven" unicode="7" 
d="M186 1311h715q27 0 27 -27v-192q0 -16 -8 -33l-486 -1039q-12 -20 -33 -20h-71q-35 0 -21 31l496 1059v106h-526v-96q0 -27 -27 -27h-66q-27 0 -26 27v184q-1 27 26 27z" />
    <glyph glyph-name="eight" unicode="8" 
d="M825 340v20q0 123 -71.5 190.5t-209.5 67.5t-211 -68.5t-73 -189.5v-20q0 -246 282.5 -246t282.5 246zM283 979v-21q0 -111 67.5 -175t192.5 -64t192.5 64.5t67.5 174.5v21q0 111 -66.5 174.5t-193.5 63.5t-193.5 -63.5t-66.5 -174.5zM137 348q0 246 195 322
q-172 82 -172 301q0 170 97 265t285.5 95t286 -95t97.5 -265q0 -221 -172 -301q195 -76 194 -322q0 -369 -405.5 -368.5t-405.5 368.5z" />
    <glyph glyph-name="nine" unicode="9" 
d="M539 580q131 0 199.5 70.5t68.5 197.5v121q0 248 -264 248t-264 -248v-142q0 -247 260 -247zM544 1331q194 0 290 -95t96 -271v-619q0 -176 -96.5 -271t-281.5 -95t-280.5 87t-103.5 244q0 27 27 27h69q27 0 27 -27q16 -217 256 -217q260 0 260 248v231
q-91 -109 -277 -109t-280 96.5t-94 270.5v134q0 176 97 271t291 95z" />
    <glyph glyph-name="colon" unicode=":" 
d="M633 154v-127q0 -27 -27 -27h-127q-27 0 -26 27v127q0 27 26 26h127q27 1 27 -26zM633 915v-127q0 -27 -27 -26h-127q-27 0 -26 26v127q0 27 26 27h127q27 0 27 -27z" />
    <glyph glyph-name="semicolon" unicode=";" 
d="M453 27v127q0 27 26 26h127q27 0 27 -26v-86q0 -14 -6 -33l-80 -215q-8 -20 -31 -21h-29q-29 0 -22 31l49 170h-35q-26 0 -26 27zM479 942h127q27 0 27 -27v-127q0 -27 -27 -26h-127q-27 0 -26 26v127q-1 27 26 27z" />
    <glyph glyph-name="less" unicode="&#x3c;" 
d="M918 870v-49q0 -23 -21 -30l-545 -191l545 -190q20 -8 21 -31v-49q0 -33 -31 -23l-697 248q-20 8 -20 31v30q0 23 20 31l697 246q31 10 31 -23z" />
    <glyph glyph-name="equal" unicode="=" 
d="M918 489v-45q0 -27 -27 -26h-694q-27 0 -27 26v45q0 27 27 27h694q27 0 27 -27zM918 756v-45q0 -27 -27 -27h-694q-27 0 -27 27v45q0 27 27 26h694q27 1 27 -26z" />
    <glyph glyph-name="greater" unicode="&#x3e;" 
d="M918 586q0 -23 -21 -31l-696 -248q-31 -10 -31 23v49q0 23 20 31l543 190l-543 191q-20 8 -20 30v49q0 33 31 23l696 -246q20 -8 21 -31v-30z" />
    <glyph glyph-name="question" unicode="?" 
d="M453 27v127q0 27 26 26h127q27 0 27 -26v-127q0 -27 -27 -27h-127q-26 0 -26 27zM544 1331q194 0 290 -95t96 -271v-68q0 -334 -328 -365l-4 -135q0 -27 -27 -26h-55q-27 0 -27 26l-8 219q0 27 27 27h35q264 0 264 248v78q0 248 -264 248t-264 -248v-27q0 -27 -27 -27
h-70q-27 0 -26 27v23q0 176 97 271t291 95z" />
    <glyph glyph-name="at" unicode="@" 
d="M633 381q82 0 143.5 46t61.5 114v184h-185q-197 0 -196 -164v-10q0 -84 47 -127t129 -43zM838 827v15q0 254 -295 254t-295 -254v-500q0 -252 297 -252q152 0 299 57q27 10 35 -14l20 -47q10 -27 -14 -35q-182 -72 -342 -71q-408 0 -408 368v490q0 367 407.5 366.5
t407.5 -366.5v-514q0 -27 -26 -27h-37q-27 0 -29 25l-8 53q-78 -99 -216 -99t-213 71t-75 200v10q0 127 75 198.5t230 71.5h187z" />
    <glyph glyph-name="A" unicode="A" 
d="M715 518l-172 610l-172 -610h344zM948 123v-96q0 -27 -26 -27h-70q-27 0 -27 27v102l-77 274h-410l-76 -268v-108q0 -27 -26 -27h-70q-27 0 -27 27v96q0 8 4 33l330 1132q6 23 29 23h82q22 0 28 -23l332 -1132q4 -25 4 -33z" />
    <glyph glyph-name="B" unicode="B" 
d="M807 348v17q0 236 -264 235h-264v-485h264q264 0 264 233zM279 711h233q264 0 264 233v17q0 236 -264 235h-233v-485zM543 0h-361q-27 0 -26 27v1257q0 27 26 27h330q195 0 291 -92.5t96 -264.5q0 -210 -158 -292q188 -72 189 -304q0 -172 -96.5 -265t-290.5 -93z" />
    <glyph glyph-name="C" unicode="C" 
d="M544 1331q194 0 290 -95t96 -271v-25q0 -27 -27 -27h-69q-27 0 -27 27v29q0 248 -264 248t-264 -248v-627q0 -248 264 -248t264 248v29q0 27 27 26h69q27 0 27 -26v-23q0 -178 -96.5 -273t-290 -95t-290.5 96t-97 272v617q0 176 97 271t291 95z" />
    <glyph glyph-name="D" unicode="D" 
d="M279 1196v-1081h264q264 0 264 247v586q0 248 -264 248h-264zM182 1311h361q195 0 291 -95.5t96 -271.5v-575q0 -178 -96.5 -273.5t-290.5 -95.5h-361q-27 0 -26 27v1257q-1 27 26 27z" />
    <glyph glyph-name="E" unicode="E" 
d="M313 1196v-483h455q27 0 27 -27v-61q0 -27 -27 -27h-455v-483h557q27 0 27 -27v-61q0 -27 -27 -27h-653q-27 0 -27 27v1257q0 27 27 27h653q27 0 27 -27v-61q0 -27 -27 -27h-557z" />
    <glyph glyph-name="F" unicode="F" 
d="M313 1196v-483h455q27 0 27 -27v-61q0 -27 -27 -27h-455v-571q0 -27 -26 -27h-70q-27 0 -27 27v1257q0 27 27 27h653q27 0 27 -27v-61q0 -27 -27 -27h-557z" />
    <glyph glyph-name="G" unicode="G" 
d="M903 934h-69q-27 0 -27 27v8q0 248 -264 248t-264 -248v-627q0 -248 264 -248t264 248v180h-207q-27 0 -27 27v61q0 27 27 27h303q27 0 27 -27v-262q0 -178 -96 -273t-290 -95t-291 96t-97 272v617q0 176 97 271t291 95t290 -95t96 -271v-4q0 -27 -27 -27z" />
    <glyph glyph-name="H" unicode="H" 
d="M834 1311h69q27 0 27 -27v-1257q0 -27 -27 -27h-69q-27 0 -27 27v581h-528v-581q0 -27 -27 -27h-70q-27 0 -26 27v1257q0 27 26 27h70q27 0 27 -27v-561h528v561q0 27 27 27z" />
    <glyph glyph-name="I" unicode="I" 
d="M604 1196v-1081h246q27 0 27 -27v-61q0 -27 -27 -27h-612q-27 0 -27 27v61q0 27 27 27h243v1081h-243q-27 0 -27 27v61q0 27 27 27h612q27 0 27 -27v-61q0 -27 -27 -27h-246z" />
    <glyph glyph-name="J" unicode="J" 
d="M387 1327h516q27 0 27 -27v-952q0 -178 -96 -273t-290 -95t-291 96t-97 272v2q0 27 26 27h70q27 0 27 -27v-8q0 -248 264 -248t264 248v870h-420q-27 0 -27 27v61q0 27 27 27z" />
    <glyph glyph-name="K" unicode="K" horiz-adv-x="1087" 
d="M930 1284v-24q0 -18 -8 -33l-338 -561l338 -576q8 -14 8 -33v-30q0 -27 -27 -27h-49q-23 0 -31 18l-344 590h-200v-581q0 -27 -27 -27h-70q-27 0 -26 27v1257q0 27 26 27h70q27 0 27 -27v-561h200l342 569q10 18 31 19h51q27 0 27 -27z" />
    <glyph glyph-name="L" unicode="L" 
d="M313 115h557q27 0 27 -27v-61q0 -27 -27 -27h-653q-27 0 -27 27v1257q0 27 27 27h70q27 0 26 -27v-1169z" />
    <glyph glyph-name="M" unicode="M" 
d="M862 1311h41q27 0 27 -27v-1257q0 -27 -27 -27h-69q-27 0 -27 27v989l-211 -420q-12 -18 -33 -18h-43q-20 0 -33 18l-208 418v-987q0 -27 -27 -27h-70q-27 0 -26 27v1257q0 27 26 27h43q20 0 33 -19l287 -581l284 581q13 19 33 19z" />
    <glyph glyph-name="N" unicode="N" 
d="M834 1311h69q27 0 27 -27v-1257q0 -27 -27 -27h-45q-23 0 -31 18l-548 1022v-1013q0 -27 -27 -27h-70q-27 0 -26 27v1257q0 27 26 27h45q23 0 31 -19l549 -1022v1014q0 27 27 27z" />
    <glyph glyph-name="O" unicode="O" 
d="M543 1217q-264 0 -264 -248v-627q0 -248 264 -248t264 248v627q0 248 -264 248zM544 1331q194 0 290 -95t96 -271v-617q0 -178 -96 -273t-290 -95t-291 96t-97 272v617q0 176 97 271t291 95z" />
    <glyph glyph-name="P" unicode="P" 
d="M279 1196v-485h264q264 0 264 233v17q0 236 -264 235h-264zM182 1311h361q195 0 291 -92.5t96 -264.5t-96.5 -265t-290.5 -93h-264v-569q0 -27 -27 -27h-70q-27 0 -26 27v1257q-1 27 26 27z" />
    <glyph glyph-name="Q" unicode="Q" 
d="M797 342v627q0 248 -264.5 248t-264.5 -248v-627q0 -227 226 -246v115q0 27 26 27h45q27 0 27 -27v-113q205 25 205 244zM533 1331q194 0 290.5 -95t96.5 -271v-617q0 -336 -328 -366v-119q0 -27 -27 -27h-45q-27 0 -26 27v119q-174 8 -261.5 103t-87.5 263v617
q0 176 97 271t291 95z" />
    <glyph glyph-name="R" unicode="R" 
d="M279 711h264q264 0 264 233v17q0 236 -264 235h-264v-485zM930 954q0 -279 -242 -342l236 -526q6 -18 6 -33v-26q0 -27 -27 -27h-57q-23 0 -31 20l-254 576h-282v-569q0 -27 -27 -27h-70q-27 0 -26 27v1257q0 27 26 27h361q195 0 291 -92.5t96 -264.5z" />
    <glyph glyph-name="S" unicode="S" 
d="M540 1331q187 0 284.5 -89t105.5 -255q0 -27 -27 -26h-69q-27 0 -27 26q-16 229 -264 230q-131 0 -197.5 -59.5t-66.5 -158t67.5 -162t162.5 -102.5t190.5 -82t163 -126t67.5 -205q0 -160 -98.5 -251t-285.5 -91t-284.5 89t-105.5 255q0 27 26 26h70q27 0 27 -26
q16 -229 266 -230q131 0 196.5 59.5t65.5 158.5t-67.5 163t-163 102.5t-190.5 81.5t-162.5 126t-67.5 223.5t98.5 231.5t285.5 91z" />
    <glyph glyph-name="T" unicode="T" 
d="M969 1284v-61q0 -27 -27 -27h-338v-1169q0 -27 -26 -27h-70q-27 0 -27 27v1169h-336q-27 0 -26 27v61q0 27 26 27h797q27 0 27 -27z" />
    <glyph glyph-name="U" unicode="U" 
d="M930 1284v-936q0 -178 -96 -273t-290 -95t-291 96t-97 272v936q0 27 26 27h70q27 0 27 -27v-942q0 -248 264 -248t264 248v942q0 27 27 27h69q27 0 27 -27z" />
    <glyph glyph-name="V" unicode="V" 
d="M852 1311h70q27 0 26 -27v-94q0 -8 -4 -33l-332 -1134q-6 -23 -28 -23h-82q-23 0 -29 23l-330 1134q-4 25 -4 33v94q0 27 27 27h70q27 0 26 -27v-108l281 -994l282 1000v102q0 27 27 27z" />
    <glyph glyph-name="W" unicode="W" 
d="M874 1311h64q31 0 27 -29l-115 -1257q-2 -25 -27 -25h-43q-23 0 -30 20l-207 560l-205 -560q-8 -20 -31 -20h-43q-23 0 -26 25l-117 1257q-4 29 26 29h66q25 0 27 -25l94 -995l162 432q8 20 30 20h31q23 0 31 -20l164 -434l96 997q3 25 26 25z" />
    <glyph glyph-name="X" unicode="X" 
d="M930 1284v-24q0 -18 -8 -35l-310 -566l310 -567q8 -16 8 -35v-30q0 -27 -27 -27h-51q-20 0 -31 18l-278 527l-279 -527q-10 -18 -31 -18h-51q-27 0 -26 27v30q0 18 8 35l309 567l-309 566q-8 16 -8 35v24q0 27 26 27h54q23 0 30 -19l277 -520l276 520q8 18 31 19h53
q27 0 27 -27z" />
    <glyph glyph-name="Y" unicode="Y" 
d="M944 1284v-143q0 -18 -8 -33l-332 -573v-508q0 -27 -26 -27h-70q-27 0 -27 27v508l-331 573q-8 14 -9 33v143q0 27 27 27h70q27 0 26 -27v-129l279 -498l278 498v129q0 27 27 27h70q26 0 26 -27z" />
    <glyph glyph-name="Z" unicode="Z" 
d="M186 1311h715q27 0 27 -27v-190q0 -16 -10 -33l-639 -848v-98h622q27 0 27 -27v-61q0 -27 -27 -27h-715q-27 0 -26 27v190q0 16 10 33l637 848v98h-621q-27 0 -26 27v61q-1 27 26 27z" />
    <glyph glyph-name="bracketleft" unicode="[" 
d="M510 1325v-1364h201q27 0 26 -27v-61q0 -27 -26 -27h-297q-27 0 -27 27v1540q0 27 27 27h297q27 0 26 -27v-61q0 -27 -26 -27h-201z" />
    <glyph glyph-name="backslash" unicode="\" 
d="M700 -61q-23 0 -28 22l-379 1380q-6 31 22 31h70q23 1 29 -22l379 -1381q6 -31 -23 -30h-70z" />
    <glyph glyph-name="bracketright" unicode="]" 
d="M383 1440h297q27 0 27 -27v-1540q0 -27 -27 -27h-297q-27 0 -27 27v61q0 27 27 27h201v1364h-201q-27 0 -27 27v61q0 27 27 27z" />
    <glyph glyph-name="asciicircum" unicode="^" 
d="M854 631h-57q-23 0 -31 20l-223 479l-221 -479q-8 -20 -31 -20h-60q-35 0 -20 31l293 628q8 20 31 21h14q20 0 33 -21l292 -628q15 -31 -20 -31z" />
    <glyph glyph-name="underscore" unicode="_" 
d="M1096 -217v-29q0 -27 -27 -26h-1053q-27 0 -26 26v29q0 27 26 27h1053q27 0 27 -27z" />
    <glyph glyph-name="grave" unicode="`" 
d="M688 1110v-14q0 -27 -26 -27h-29q-18 0 -33 12l-176 170q-14 14 -14 33v21q0 27 26 26h70q23 0 33 -16l137 -172q12 -14 12 -33z" />
    <glyph glyph-name="a" unicode="a" 
d="M504 90q112 0 202.5 59.5t90.5 137.5v147h-265q-127 0 -191.5 -43t-64.5 -121v-12q0 -82 58 -125t170 -43zM569 963q170 0 260.5 -92.5t90.5 -262.5v-581q0 -27 -27 -27h-47q-27 0 -29 25l-12 88q-106 -133 -322 -133q-152 0 -239.5 70.5t-87.5 203.5v12q0 129 96 199
t280 70h265v79q0 240 -238 240q-102 0 -162.5 -39t-79.5 -92q-10 -23 -30 -23h-60q-29 0 -28 13q8 94 104 172t266 78z" />
    <glyph glyph-name="b" unicode="b" 
d="M807 344v254q0 117 -65.5 183.5t-178.5 66.5t-193.5 -62.5t-80.5 -167.5v-294q0 -102 82 -166t193 -64t177 66.5t66 183.5zM567 963q175 0 269 -95.5t94 -265.5v-262q0 -170 -94.5 -265t-253.5 -95q-199 0 -299 139l-13 -94q-4 -25 -28 -25h-49q-27 0 -27 27v1257
q0 27 27 27h69q27 0 27 -27v-453q103 132 278 132z" />
    <glyph glyph-name="c" unicode="c" 
d="M535.5 963q185.5 0 284 -83t108.5 -204q4 -27 -25 -27h-69q-27 0 -29 25q-10 74 -76.5 124t-181.5 50q-268 0 -268 -248v-258q0 -248 268 -248q113 0 179.5 50.5t78.5 123.5q2 25 29 25h69q29 0 25 -27q-10 -121 -108.5 -203.5t-284 -82.5t-282.5 95t-97 273v248
q0 176 97 271.5t282.5 95.5z" />
    <glyph glyph-name="d" unicode="d" 
d="M524 94q112 0 192.5 63.5t80.5 166.5v294q0 104 -80.5 167t-192.5 63t-178.5 -66.5t-66.5 -183.5v-254q0 -117 66.5 -183.5t178.5 -66.5zM823 1311h70q27 0 27 -27v-1257q0 -27 -27 -27h-47q-27 0 -29 25l-14 96q-100 -141 -299 -141q-160 0 -254 95t-94 265v262
q0 170 95 265.5t269 95.5t277 -132v453q-1 27 26 27z" />
    <glyph glyph-name="e" unicode="e" 
d="M543 850q-264 0 -264 -248v-47h528v55q0 240 -264 240zM279 459v-119q0 -119 66.5 -183.5t190.5 -64.5t191.5 48t77.5 124q2 25 29 25h69q29 0 25 -27q-10 -122 -108 -202t-284 -80t-283 96t-97 272v248q0 176 97 271.5t291 95.5t290 -95.5t96 -269.5v-113q0 -27 -27 -26
h-624z" />
    <glyph glyph-name="f" unicode="f" 
d="M698 1264q-156 0 -155 -172v-150h331q27 0 27 -27v-61q0 -27 -27 -27h-331v-800q0 -27 -27 -27h-70q-27 0 -26 27v800h-223q-27 0 -27 27v61q0 27 27 27h223v141q0 135 69.5 212t204.5 77q94 0 232 -41q25 -10 16 -35l-16 -49q-8 -25 -27 -18q-135 35 -201 35z" />
    <glyph glyph-name="g" unicode="g" 
d="M524 258q112 0 192.5 63.5t80.5 165.5v131q0 104 -80.5 167t-192.5 63t-178.5 -66.5t-66.5 -183.5v-90q0 -117 66.5 -183.5t178.5 -66.5zM846 942h47q27 0 27 -27v-813q0 -176 -94.5 -272t-267.5 -96t-262 80t-99 206q0 27 26 27h70q27 0 29 -27q8 -76 66 -125t169 -49
t175.5 63.5t64.5 184.5v180q-101 -131 -277 -131t-270 95.5t-94 265.5v98q0 170 95 265.5t255 95.5q197 0 297 -140l14 95q2 24 29 24z" />
    <glyph glyph-name="h" unicode="h" 
d="M600 963q154 0 237 -86t83 -254v-596q0 -27 -27 -27h-70q-27 0 -26 27v591q0 229 -211 230q-125 0 -211 -70.5t-86 -185.5v-565q0 -27 -27 -27h-69q-27 0 -27 27v1257q0 27 27 27h69q27 0 27 -27v-465q108 144 311 144z" />
    <glyph glyph-name="i" unicode="i" 
d="M604 115h240q27 0 26 -27v-61q0 -27 -26 -27h-602q-27 0 -27 27v61q0 27 27 27h239v712h-239q-27 0 -27 27v61q0 27 27 27h336q27 0 26 -27v-800zM625 1266v-109q0 -27 -27 -27h-109q-27 0 -26 27v109q0 27 26 26h109q27 1 27 -26z" />
    <glyph glyph-name="j" unicode="j" 
d="M326 854v61q0 27 26 27h336q27 0 27 -27v-892q0 -133 -70 -211t-201 -78q-76 0 -221 39q-25 10 -16 32l14 52q8 25 33 18q111 -33 186 -33q152 0 152 174v811h-240q-26 0 -26 27zM598 1292h109q27 0 26 -26v-109q0 -27 -26 -27h-109q-27 0 -27 27v109q0 26 27 26z" />
    <glyph glyph-name="k" unicode="k" 
d="M913 915v-14q0 -16 -12 -33l-354 -393l354 -395q12 -16 12 -33v-20q0 -27 -26 -27h-45q-20 0 -33 14l-360 402h-154v-389q0 -27 -27 -27h-69q-27 0 -27 27v1257q0 27 27 27h69q27 0 27 -27v-754h151l361 398q12 14 33 14h47q26 0 26 -27z" />
    <glyph glyph-name="l" unicode="l" 
d="M604 115h240q27 0 26 -27v-61q0 -27 -26 -27h-602q-27 0 -27 27v61q0 27 27 27h239v1081h-239q-27 0 -27 27v61q0 27 27 27h336q27 0 26 -27v-1169z" />
    <glyph glyph-name="m" unicode="m" 
d="M776 963q90 0 141.5 -56.5t51.5 -150.5v-729q0 -27 -27 -27h-63q-27 0 -27 27v727q0 111 -100 110q-68 0 -110 -47t-42 -123v-667q0 -27 -27 -27h-61q-27 0 -27 27v727q0 111 -100 110q-68 0 -110 -47t-42 -123v-667q0 -27 -26 -27h-62q-27 0 -26 27v888q0 27 26 27h39
q25 0 29 -24l10 -52q70 96 191 96t168 -106q69 107 194 107z" />
    <glyph glyph-name="n" unicode="n" 
d="M600 963q154 0 237 -86t83 -254v-596q0 -27 -27 -27h-70q-27 0 -26 27v591q0 229 -211 230q-125 0 -211 -70.5t-86 -185.5v-565q0 -27 -27 -27h-69q-27 0 -27 27v888q0 27 27 27h49q25 0 28 -24l15 -105q49 70 133 110t182 40z" />
    <glyph glyph-name="o" unicode="o" 
d="M543 848q-131 0 -197.5 -64.5t-66.5 -183.5v-258q0 -119 66.5 -183.5t197.5 -64.5q264 0 264 248v258q0 248 -264 248zM544 963q194 0 290 -95.5t96 -271.5v-248q0 -178 -96 -273t-290 -95t-291 96t-97 272v248q0 176 97 271.5t291 95.5z" />
    <glyph glyph-name="p" unicode="p" 
d="M807 344v254q0 117 -65.5 183.5t-178.5 66.5t-193.5 -62.5t-80.5 -167.5v-294q0 -102 82 -166t193 -64t177 66.5t66 183.5zM582 963q160 0 254 -95.5t94 -265.5v-262q0 -170 -95 -265t-269 -95t-277 131v-330q0 -27 -27 -27h-69q-27 0 -27 27v1134q0 27 27 27h49
q25 0 28 -24l13 -95q100 140 299 140z" />
    <glyph glyph-name="q" unicode="q" 
d="M524 94q112 0 192.5 63.5t80.5 166.5v294q0 104 -80.5 167t-192.5 63t-178.5 -66.5t-66.5 -183.5v-254q0 -117 66.5 -183.5t178.5 -66.5zM846 942h47q27 0 27 -27v-1134q0 -27 -27 -27h-70q-27 0 -26 27v330q-101 -131 -277 -131t-270 95t-94 265v262q0 170 95 265.5
t255 95.5q197 0 297 -140l14 95q2 24 29 24z" />
    <glyph glyph-name="r" unicode="r" 
d="M645 963q156 0 238 -84t82 -248v-33q0 -27 -27 -27h-70q-27 0 -26 27v33q0 217 -211 217q-125 0 -210 -70.5t-85 -185.5v-565q0 -27 -27 -27h-69q-27 0 -27 27v888q0 27 27 27h47q25 0 28 -24l17 -105q104 150 313 150z" />
    <glyph glyph-name="s" unicode="s" 
d="M538 963q165 0 258 -73t103 -198q4 -27 -25 -26h-69q-27 0 -29 24q-10 76 -72.5 118t-167.5 42t-167 -43t-62 -117q0 -76 80 -112q52 -23 142.5 -44.5t129.5 -33.5q123 -36 171 -82q72 -69 71.5 -179t-94.5 -184.5t-259 -74.5t-259 72.5t-105 197.5q0 27 27 26h70
q27 0 28 -24q10 -76 72.5 -118t168 -42t168 44t62.5 116t-64.5 106.5t-157.5 54t-132 31.5q-116 34 -169 80q-73 64 -73 176.5t94.5 187.5t259.5 75z" />
    <glyph glyph-name="t" unicode="t" 
d="M410 250v577h-226q-27 0 -26 27v61q0 27 26 27h226v182q0 27 24 29l70 14q29 6 28 -24v-201h314q27 0 26 -27v-61q0 -27 -26 -27h-314v-575q0 -160 134 -160q53 0 176 31q24 6 32 -19l17 -53q8 -23 -17 -33q-137 -39 -236.5 -38.5t-163.5 72t-64 198.5z" />
    <glyph glyph-name="u" unicode="u" 
d="M823 942h70q27 0 27 -27v-888q0 -27 -27 -27h-47q-27 0 -29 25l-16 104q-104 -150 -314 -149q-156 0 -238.5 86t-82.5 253v596q0 27 27 27h69q27 0 27 -27v-591q0 -229 211 -230q125 0 211 71t86 185v565q-1 27 26 27z" />
    <glyph glyph-name="v" unicode="v" 
d="M838 942h69q27 0 27 -27v-94q0 -14 -6 -33l-314 -768q-8 -20 -30 -20h-82q-23 0 -31 20l-313 768q-6 18 -6 33v94q0 27 26 27h70q27 0 26 -27v-102l269 -674l268 674v102q0 27 27 27z" />
    <glyph glyph-name="w" unicode="w" 
d="M872 942h66q29 0 25 -29l-111 -888q-4 -25 -29 -25h-45q-23 0 -30 20l-205 566l-205 -566q-8 -20 -31 -20h-43q-27 0 -28 25l-113 888q-4 29 24 29h66q25 0 29 -24l86 -664l174 475q8 20 30 21h21q23 0 31 -21l174 -475l86 664q3 24 28 24z" />
    <glyph glyph-name="x" unicode="x" 
d="M930 915v-12q0 -16 -10 -33l-304 -395l304 -397q10 -16 10 -33v-18q0 -27 -27 -27h-51q-23 0 -33 16l-276 373l-277 -373q-10 -16 -33 -16h-51q-27 0 -26 27v18q0 16 10 33l303 397l-303 395q-10 16 -10 33v12q0 27 26 27h54q23 0 32 -16l275 -369l274 369q10 16 33 16
h53q27 0 27 -27z" />
    <glyph glyph-name="y" unicode="y" 
d="M838 942h69q27 0 27 -27v-94q0 -14 -6 -33l-424 -1013q-8 -20 -31 -21h-59q-14 0 -20.5 8.5t-0.5 22.5l90 223l-325 780q-6 18 -6 33v94q0 27 26 27h70q27 0 26 -27v-104l271 -661l266 661v104q0 27 27 27z" />
    <glyph glyph-name="z" unicode="z" 
d="M201 942h686q27 0 26 -27v-149q0 -20 -14 -33l-606 -567v-51h594q27 0 26 -27v-61q0 -27 -26 -27h-686q-27 0 -27 27v149q0 20 14 33l605 565v53h-592q-27 0 -27 27v61q0 27 27 27z" />
    <glyph glyph-name="braceleft" unicode="{" 
d="M852 1397v-60q0 -27 -29 -26q-129 -2 -174 -34t-45 -116v-342q0 -178 -168 -221q168 -43 168 -221v-342q0 -84 45 -116t174 -34q29 0 29 -26v-60q0 -27 -29 -26q-203 4 -271.5 64.5t-68.5 191.5l6 336q0 160 -219 178q-27 2 -26 28v54q0 27 26 28q219 18 219 178l-6 336
q0 131 69 191.5t271 64.5q29 0 29 -26z" />
    <glyph glyph-name="bar" unicode="|" 
d="M598 1530v-1749q0 -27 -27 -27h-57q-27 0 -27 27v1749q0 27 27 26h57q27 1 27 -26z" />
    <glyph glyph-name="braceright" unicode="}" 
d="M842 625v-54q0 -27 -27 -28q-219 -18 -219 -178l6 -336q0 -131 -68.5 -191.5t-271.5 -64.5q-29 0 -29 26v60q0 27 29 26q129 2 174 34t45 116v342q0 178 168 221q-168 43 -168 221v342q0 84 -45 116t-174 34q-29 0 -29 26v60q0 27 29 26q203 -4 271.5 -64.5t68.5 -191.5
l-6 -336q0 -160 219 -178q27 -2 27 -28z" />
    <glyph glyph-name="asciitilde" unicode="~" 
d="M332 737q81 0 204 -70.5t138.5 -75.5t35.5 -12.5t42 -7.5q72 0 86 95q2 27 26 26h39q27 0 27 -28q-12 -197 -176 -197q-80 0 -195 64.5t-126 69.5t-40 18.5t-59 13.5q-74 0 -86 -96q-2 -27 -27 -27h-39q-27 0 -24 37q14 190 174 190z" />
    <glyph glyph-name="exclamdown" unicode="&#xa1;" 
d="M604 -342q0 -27 -26 -27h-70q-27 0 -27 27v448l17 355q2 27 28 26h33q27 0 29 -26l16 -355v-448zM633 915v-127q0 -27 -27 -26h-127q-27 0 -26 26v127q0 27 26 27h127q27 0 27 -27z" />
    <glyph glyph-name="cent" unicode="&#xa2;" 
d="M279 600v-258q0 -221 219 -246v750q-219 -25 -219 -246zM834 293h69q29 0 25 -27q-10 -113 -98.5 -193.5t-241.5 -90.5v-88q0 -27 -27 -27h-37q-27 0 -26 27v88q-342 25 -342 366v248q0 340 342 365v88q0 27 26 26h37q27 0 27 -26v-88q154 -10 242 -91.5t98 -193.5
q4 -27 -25 -27h-69q-27 0 -29 25q-10 68 -66.5 116t-150.5 56v-750q94 8 150.5 57.5t66.5 114.5q2 25 29 25z" />
    <glyph glyph-name="sterling" unicode="&#xa3;" 
d="M891 115q27 0 27 -27v-61q0 -27 -27 -27h-694q-27 0 -27 27v34q0 20 10 33q125 195 125 424v23h-96q-27 0 -27 26v37q0 27 27 27h86q-6 31 -40 162t-34 213q0 147 87.5 236t235.5 89t234 -80t96 -217q0 -27 -26 -26h-68q-27 0 -28 26q-8 86 -62.5 134.5t-144.5 48.5
t-145.5 -56.5t-55.5 -146.5t31 -210t37 -173h237q27 0 27 -27v-37q0 -27 -27 -26h-229v-19q0 -219 -113 -407h584z" />
    <glyph glyph-name="currency" unicode="&#xa4;" 
d="M332 549q0 -96 59.5 -155.5t151.5 -59.5t151.5 58.5t59.5 156.5t-59.5 156.5t-151.5 58.5t-151.5 -59.5t-59.5 -155.5zM860 550q0 -105 -57 -188l115 -114q18 -18 0 -37l-35 -37q-18 -18 -37 0l-115 115q-78 -55 -188.5 -55.5t-188.5 55.5l-112 -115q-18 -18 -37 0
l-37 37q-18 18 0 37l115 112q-55 82 -55.5 188.5t55.5 188.5l-115 115q-18 18 0 37l37 35q18 18 37 0l114 -115q78 55 188 55t187 -55l115 115q18 18 37 0l35 -35q18 -18 0 -37l-115 -115q57 -82 57 -187z" />
    <glyph glyph-name="yen" unicode="&#xa5;" 
d="M944 1284v-143q0 -18 -8 -33l-172 -299h119q27 0 26 -27v-39q0 -27 -26 -26h-172l-72 -123h244q27 0 26 -27v-39q0 -27 -26 -26h-279v-475q0 -27 -26 -27h-70q-27 0 -27 27v475h-278q-27 0 -27 26v39q0 27 27 27h243l-71 123h-172q-27 0 -27 26v39q0 27 27 27h119
l-172 299q-8 14 -9 33v143q0 27 27 27h70q27 0 26 -27v-129l279 -498l278 498v129q0 27 27 27h70q26 0 26 -27z" />
    <glyph glyph-name="brokenbar" unicode="&#xa6;" 
d="M598 434v-653q0 -27 -27 -27h-57q-27 0 -27 27v653q0 27 27 27h57q27 0 27 -27zM598 1530v-653q0 -27 -27 -27h-57q-27 0 -27 27v653q0 27 27 26h57q27 1 27 -26z" />
    <glyph glyph-name="section" unicode="&#xa7;" 
d="M279 594q0 -88 59.5 -136.5t186 -96t165.5 -66.5q117 43 117 176q0 66 -43 114t-92 71.5t-142.5 58.5t-136.5 55q-114 -43 -114 -176zM889 20q0 -130 -91 -208t-252 -78t-250 74.5t-99 209.5q0 27 26 27h70q27 0 29 -27q14 -172 223 -172q104 0 162.5 45.5t58.5 126.5
t-62.5 133t-152.5 84.5t-180 70.5t-152.5 110.5t-62.5 179.5q0 168 133 242q-92 78 -92 208t91 207.5t252 77.5t250 -74.5t99 -209.5q0 -27 -27 -27l-69 2q-27 0 -29 27q-14 170 -221 170q-106 0 -165 -45.5t-59 -126.5t62.5 -132t153 -83.5t180.5 -70.5t152.5 -110.5
t62.5 -179.5q0 -168 -133 -244q92 -77 92 -207z" />
    <glyph glyph-name="dieresis" unicode="&#xa8;" 
d="M786 1260v-97q0 -27 -26 -26h-96q-27 0 -27 26v97q0 27 27 26h96q26 1 26 -26zM449 1260v-97q0 -27 -27 -26h-96q-27 0 -27 26v97q0 27 27 26h96q27 1 27 -26z" />
    <glyph glyph-name="copyright" unicode="&#xa9;" 
d="M367 752q0 166 172 166t184 -136q4 -27 -25 -26h-30q-20 0 -27 24q-12 58 -102 58t-90 -84v-119q0 -84 89 -84t103 57q6 25 27 25h30q29 0 25 -27q-12 -135 -184 -135t-172 168v113zM542.5 1034q-139.5 0 -238.5 -99t-99 -239t99 -240t238.5 -100t239 99.5t99.5 239.5
t-99.5 239.5t-239 99.5zM543 1116q174 0 298 -124t124 -298t-124 -298t-298 -124t-298 124t-124 298t124 298t298 124z" />
    <glyph glyph-name="ordfeminine" unicode="&#xaa;" 
d="M375 842q1 -103 141 -103q68 0 127 38t59 85v86h-170q-158 0 -157 -100v-6zM562 1331q120 0 184.5 -66.5t64.5 -185.5v-395q0 -27 -27 -27h-39q-25 0 -28 25l-6 47q-79 -86 -199 -86t-182 51t-62 142v8q0 92 67.5 141t194.5 49h172v53q0 147 -149 148q-115 0 -150 -72
q-10 -23 -28 -22h-47q-29 0 -29 12q6 68 74.5 123t188.5 55z" />
    <glyph glyph-name="guillemotleft" unicode="&#xab;" 
d="M627 520l209 -305q16 -23 -7 -37l-51 -31q-20 -14 -37 7l-243 348q-12 18 0 37l243 348q16 20 37 6l51 -31q23 -14 7 -37zM299 520l221 -323q16 -23 -8 -37l-49 -31q-20 -12 -37 8l-256 365q-12 18 0 37l256 366q16 20 37 6l51 -30q23 -16 6 -37z" />
    <glyph glyph-name="logicalnot" unicode="&#xac;" 
d="M197 649h694q27 0 27 -26v-220q0 -27 -27 -26h-31q-27 0 -26 26v148h-637q-27 0 -27 27v45q0 26 27 26z" />
    <glyph glyph-name="registered" unicode="&#xae;" 
d="M469 702h78q84 0 84 68v4q0 72 -84 72h-78v-144zM705 772q0 -88 -68 -123l57 -110q8 -16 8 -35q0 -27 -26 -27h-12q-20 0 -33 19l-68 137h-94v-129q0 -27 -27 -27h-20q-27 0 -27 27v383q0 27 27 26h125q158 0 158 -141zM542.5 356q139.5 0 239 99.5t99.5 239.5
t-99.5 239.5t-239 99.5t-238.5 -99t-99 -239t99 -240t238.5 -100zM543 1116q174 0 298 -124t124 -298t-124 -298t-298 -124t-298 124t-124 298t124 298t298 124z" />
    <glyph glyph-name="macron" unicode="&#xaf;" 
d="M780 1200v-49q0 -27 -26 -27h-422q-27 0 -27 27v49q0 27 27 27h422q26 0 26 -27z" />
    <glyph glyph-name="degree" unicode="&#xb0;" 
d="M542.5 1241q-63.5 0 -109.5 -45t-46 -110.5t46 -110.5t109.5 -45t109.5 45t46 110.5t-46 110.5t-109.5 45zM544 1337q103 0 177 -73.5t74 -177.5t-74 -177t-177 -73t-177 73.5t-74 176.5t74 177t177 74z" />
    <glyph glyph-name="plusminus" unicode="&#xb1;" 
d="M170 215v43q0 27 27 27h694q27 0 27 -27v-43q0 -27 -27 -27h-694q-27 0 -27 27zM592 752h299q27 0 27 -27v-45q0 -27 -27 -27h-299v-256q0 -27 -27 -26h-45q-27 0 -26 26v256h-297q-27 0 -27 27v45q0 27 27 27h297v258q0 27 26 26h45q27 0 27 -26v-258z" />
    <glyph glyph-name="acute" unicode="&#xb4;" 
d="M676 1305v-21q0 -18 -14 -33l-177 -170q-14 -12 -32 -12h-27q-27 0 -27 27v14q0 16 13 33l135 172q10 16 33 16h69q27 1 27 -26z" />
    <glyph glyph-name="uni00B5" unicode="&#xb5;" 
d="M823 942h70q27 0 27 -27v-888q0 -27 -27 -27h-47q-27 0 -29 25l-16 104q-104 -150 -314 -149q-123 0 -198 51v-250q0 -27 -27 -27h-69q-27 0 -27 27v1134q0 27 27 27h69q27 0 27 -27v-591q0 -229 211 -230q125 0 211 71t86 185v565q-1 27 26 27z" />
    <glyph glyph-name="paragraph" unicode="&#xb6;" 
d="M508 1311h348q27 0 27 -27v-1503q0 -27 -27 -27h-49q-27 0 -27 27v1427h-170v-1427q0 -27 -26 -27h-49q-27 0 -27 27v907q-168 0 -252 81t-84 230t84 230.5t252 81.5z" />
    <glyph glyph-name="periodcentered" unicode="&#xb7;" 
d="M633 625v-127q0 -27 -27 -27h-127q-27 0 -26 27v127q0 27 26 26h127q27 1 27 -26z" />
    <glyph glyph-name="cedilla" unicode="&#xb8;" 
d="M508 12h39q137 0 137 -131v-16q0 -129 -137 -129q-115 0 -131 90q-4 27 26 27h31q13 -1 27 -19t47 -18q51 0 51 45v26q0 43 -51 43h-39q-27 0 -27 27v29q0 26 27 26z" />
    <glyph glyph-name="ordmasculine" unicode="&#xba;" 
d="M543 1231q-166 0 -166 -156v-176q0 -154 166 -154t166 154v176q0 156 -166 156zM543 1331q137 0 206.5 -68.5t69.5 -191.5v-166q0 -125 -69.5 -193.5t-206.5 -68.5q-274 0 -275 262v166q1 260 275 260z" />
    <glyph glyph-name="guillemotright" unicode="&#xbb;" 
d="M346 887l242 -348q12 -18 0 -37l-242 -348q-16 -20 -37 -7l-51 31q-25 14 -8 37l211 305l-211 305q-16 23 6 37l53 33q21 12 37 -8zM659 905l256 -366q12 -18 0 -37l-256 -365q-16 -20 -36 -8l-52 31q-23 16 -6 37l223 323l-223 324q-16 20 6 37l52 30q20 14 36 -6z" />
    <glyph glyph-name="onequarter" unicode="&#xbc;" 
d="M141 47l289 469q16 22 43 4q23 -12 10 -35l-264 -485q-12 -27 -35 -10l-34 20q-23 17 -9 37zM977 197v-27q0 -27 -27 -27h-61v-116q0 -27 -27 -27h-35q-27 0 -26 27v116h-221q-27 0 -27 27v55q0 16 8 33l182 377q12 20 33 20h41q35 0 21 -30l-193 -402h156v129
q0 27 26 27h35q27 0 27 -27v-129h61q27 1 27 -26zM315 1311h23q27 0 27 -27v-547h98q27 0 26 -26v-29q0 -27 -26 -27h-287q-27 0 -26 27v29q0 27 26 26h98v461l-81 -45q-23 -12 -35 10l-17 29q-14 20 9 35l133 76q14 8 32 8zM948 1264l-289 -467q-17 -25 -43 -6
q-23 12 -10 34l262 484q12 27 35 10l35 -21q26 -11 10 -34z" />
    <glyph glyph-name="onehalf" unicode="&#xbd;" 
d="M141 47l289 469q16 22 43 4q23 -12 10 -35l-264 -485q-12 -27 -35 -10l-34 20q-23 17 -9 37zM653 82h279q27 0 26 -27v-28q0 -27 -26 -27h-336q-27 0 -27 27v92q0 20 15 33l223 204q70 59 70 123q0 106 -109 107q-55 0 -80.5 -21.5t-30.5 -75.5q0 -27 -26 -26h-35
q-27 0 -27 26v3q0 76 51.5 125t147.5 49q197 0 197 -187q0 -92 -95 -178l-217 -195v-24zM299 1311h23q27 0 26 -27v-547h98q27 0 27 -26v-29q0 -27 -27 -27h-286q-27 0 -27 27v29q0 27 27 26h98v461l-82 -45q-23 -12 -35 10l-16 29q-14 20 8 35l133 76q14 8 33 8zM948 1264
l-289 -467q-17 -25 -43 -6q-23 12 -10 34l262 484q12 27 35 10l35 -21q26 -11 10 -34z" />
    <glyph glyph-name="threequarters" unicode="&#xbe;" 
d="M141 47l289 469q16 22 43 4q23 -12 10 -35l-264 -485q-12 -27 -35 -10l-34 20q-23 17 -9 37zM977 197v-27q0 -27 -27 -27h-59v-116q0 -27 -27 -27h-37q-27 0 -26 27v116h-219q-27 0 -27 27v55q0 16 8 33l180 377q12 20 33 20h41q35 0 21 -30l-193 -402h156v129
q0 27 26 27h37q27 0 27 -27v-129h59q27 1 27 -26zM518 1135q0 -113 -76 -152q76 -39 76 -149q0 -188 -199 -189q-98 0 -148 48t-50 126v2q0 27 26 27h35q27 0 27 -27q4 -53 29.5 -73.5t80.5 -20.5q109 0 109 100v15q0 109 -115 108h-10q-27 0 -27 27v16q0 27 27 27h10
q115 0 115 104v17q0 100 -109 100q-55 0 -80.5 -21.5t-29.5 -74.5q0 -27 -27 -27h-35q-27 0 -26 27v2q0 76 51 125t147 49q199 0 199 -186zM948 1264l-289 -467q-17 -25 -43 -6q-23 12 -10 34l262 484q12 27 35 10l35 -21q26 -11 10 -34z" />
    <glyph glyph-name="questiondown" unicode="&#xbf;" 
d="M834 27h69q27 0 27 -27v-23q0 -176 -96 -271t-290 -95t-291 95t-97 271v68q0 162 83 256t246 109l4 135q0 27 27 26h55q27 0 27 -26l6 -219q0 -27 -26 -27h-35q-264 0 -264 -248v-78q0 -248 264 -247.5t264 247.5v27q0 27 27 27zM633 915v-127q0 -27 -27 -26h-127
q-27 0 -26 26v127q0 27 26 27h127q27 0 27 -27z" />
    <glyph glyph-name="Agrave" unicode="&#xc0;" 
d="M715 518l-172 610l-172 -610h344zM948 123v-96q0 -27 -26 -27h-70q-27 0 -27 27v102l-77 274h-410l-76 -268v-108q0 -27 -26 -27h-70q-27 0 -27 27v96q0 8 4 33l330 1132q6 23 29 23h82q22 0 28 -23l332 -1132q4 -25 4 -33zM655 1407h-28q-16 0 -33 12l-176 170
q-14 14 -15 33v20q0 27 27 27h70q23 0 32 -16l138 -172q12 -16 12 -33v-14q0 -27 -27 -27z" />
    <glyph glyph-name="Aacute" unicode="&#xc1;" 
d="M715 518l-172 610l-172 -610h344zM948 123v-96q0 -27 -26 -27h-70q-27 0 -27 27v102l-77 274h-410l-76 -268v-108q0 -27 -26 -27h-70q-27 0 -27 27v96q0 8 4 33l330 1132q6 23 29 23h82q22 0 28 -23l332 -1132q4 -25 4 -33zM457 1407h-27q-27 0 -27 27v14q0 16 13 33
l135 172q10 16 33 16h69q27 0 27 -27v-20q0 -19 -14 -33l-177 -170q-14 -12 -32 -12z" />
    <glyph glyph-name="Acircumflex" unicode="&#xc2;" 
d="M715 518l-172 610l-172 -610h344zM948 123v-96q0 -27 -26 -27h-70q-27 0 -27 27v102l-77 274h-410l-76 -268v-108q0 -27 -26 -27h-70q-27 0 -27 27v96q0 8 4 33l330 1132q6 23 29 23h82q22 0 28 -23l332 -1132q4 -25 4 -33zM344 1407h-16q-27 0 -27 27v12q0 18 14 33
l174 176q14 14 33 14h39q18 0 33 -14l176 -176q14 -14 14 -33v-12q0 -27 -26 -27h-19q-18 0 -32 12l-164 142l-166 -142q-14 -12 -33 -12z" />
    <glyph glyph-name="Atilde" unicode="&#xc3;" 
d="M715 518l-172 610l-172 -610h344zM948 123v-96q0 -27 -26 -27h-70q-27 0 -27 27v102l-77 274h-410l-76 -268v-108q0 -27 -26 -27h-70q-27 0 -27 27v96q0 8 4 33l330 1132q6 23 29 23h82q22 0 28 -23l332 -1132q4 -25 4 -33zM409.5 1548q-49.5 0 -79.5 -47
q-16 -23 -35 -14l-25 8q-27 10 -14 35q53 115 166 115q68 0 149 -58q57 -45 107 -45t78 49q16 23 35 15l22 -9q31 -8 16 -34q-53 -115 -163 -115q-70 0 -152 57q-55 43 -104.5 43z" />
    <glyph glyph-name="Adieresis" unicode="&#xc4;" 
d="M715 518l-172 610l-172 -610h344zM948 123v-96q0 -27 -26 -27h-70q-27 0 -27 27v102l-77 274h-410l-76 -268v-108q0 -27 -26 -27h-70q-27 0 -27 27v96q0 8 4 33l330 1132q6 23 29 23h82q22 0 28 -23l332 -1132q4 -25 4 -33zM786 1597v-96q0 -27 -26 -26h-96q-27 0 -27 26
v96q0 27 27 27h96q26 0 26 -27zM449 1597v-96q0 -27 -27 -26h-96q-27 0 -27 26v96q0 27 27 27h96q27 0 27 -27z" />
    <glyph glyph-name="Aring" unicode="&#xc5;" 
d="M715 518l-172 610l-172 -610h344zM948 123v-96q0 -27 -26 -27h-70q-27 0 -27 27v102l-77 274h-410l-76 -268v-108q0 -27 -26 -27h-70q-27 0 -27 27v96q0 8 4 33l330 1132q6 23 29 23h82q22 0 28 -23l332 -1132q4 -25 4 -33zM543 1661q-41 0 -65.5 -25.5t-24.5 -62.5
t25.5 -62.5t64.5 -25.5t64.5 25.5t25.5 62.5t-24.5 62.5t-65.5 25.5zM542.5 1405q-75.5 0 -123.5 47t-48 118.5t46 121t126 49.5t126 -49.5t46 -121t-48.5 -118.5t-124 -47z" />
    <glyph glyph-name="AE" unicode="&#xc6;" 
d="M539 518v684l-199 -684h199zM655 1196v-483h209q27 0 27 -27v-61q0 -27 -27 -27h-209v-483h289q27 0 27 -27v-61q0 -27 -27 -27h-379q-27 0 -26 27v376h-232l-80 -276v-100q0 -27 -26 -27h-70q-27 0 -27 27v96q0 8 5 33l337 1132q6 23 29 23h469q27 0 27 -27v-61
q0 -27 -27 -27h-289z" />
    <glyph glyph-name="Ccedilla" unicode="&#xc7;" 
d="M903 913h-69q-27 0 -27 27v29q0 248 -264 248t-264 -248v-627q0 -248 264 -248t264 248v29q0 27 27 26h69q27 0 27 -26v-23q0 -319 -295 -362q43 -35 43 -105v-16q0 -129 -137 -129q-115 0 -131 90q-4 27 26 27h31q13 -1 27 -19t47 -18q51 0 51 45v26q0 43 -51 43h-39
q-27 0 -27 27v27q-319 31 -319 364v617q0 176 97 271t291 95t290 -95t96 -271v-25q0 -27 -27 -27z" />
    <glyph glyph-name="Egrave" unicode="&#xc8;" 
d="M313 1196v-483h455q27 0 27 -27v-61q0 -27 -27 -27h-455v-483h557q27 0 27 -27v-61q0 -27 -27 -27h-653q-27 0 -27 27v1257q0 27 27 27h653q27 0 27 -27v-61q0 -27 -27 -27h-557zM655 1407h-28q-16 0 -33 12l-176 170q-14 14 -15 33v20q0 27 27 27h70q23 0 32 -16
l138 -172q12 -16 12 -33v-14q0 -27 -27 -27z" />
    <glyph glyph-name="Eacute" unicode="&#xc9;" 
d="M313 1196v-483h455q27 0 27 -27v-61q0 -27 -27 -27h-455v-483h557q27 0 27 -27v-61q0 -27 -27 -27h-653q-27 0 -27 27v1257q0 27 27 27h653q27 0 27 -27v-61q0 -27 -27 -27h-557zM457 1407h-27q-27 0 -27 27v14q0 16 13 33l135 172q10 16 33 16h69q27 0 27 -27v-20
q0 -19 -14 -33l-177 -170q-14 -12 -32 -12z" />
    <glyph glyph-name="Ecircumflex" unicode="&#xca;" 
d="M313 1196v-483h455q27 0 27 -27v-61q0 -27 -27 -27h-455v-483h557q27 0 27 -27v-61q0 -27 -27 -27h-653q-27 0 -27 27v1257q0 27 27 27h653q27 0 27 -27v-61q0 -27 -27 -27h-557zM344 1407h-16q-27 0 -27 27v12q0 18 14 33l174 176q14 14 33 14h39q18 0 33 -14l176 -176
q14 -14 14 -33v-12q0 -27 -26 -27h-19q-18 0 -32 12l-164 142l-166 -142q-14 -12 -33 -12z" />
    <glyph glyph-name="Edieresis" unicode="&#xcb;" 
d="M313 1196v-483h455q27 0 27 -27v-61q0 -27 -27 -27h-455v-483h557q27 0 27 -27v-61q0 -27 -27 -27h-653q-27 0 -27 27v1257q0 27 27 27h653q27 0 27 -27v-61q0 -27 -27 -27h-557zM786 1597v-96q0 -27 -26 -26h-96q-27 0 -27 26v96q0 27 27 27h96q26 0 26 -27zM449 1597
v-96q0 -27 -27 -26h-96q-27 0 -27 26v96q0 27 27 27h96q27 0 27 -27z" />
    <glyph glyph-name="Igrave" unicode="&#xcc;" 
d="M604 1196v-1081h246q27 0 27 -27v-61q0 -27 -27 -27h-612q-27 0 -27 27v61q0 27 27 27h243v1081h-243q-27 0 -27 27v61q0 27 27 27h612q27 0 27 -27v-61q0 -27 -27 -27h-246zM655 1407h-28q-16 0 -33 12l-176 170q-14 14 -15 33v20q0 27 27 27h70q23 0 32 -16l138 -172
q12 -16 12 -33v-14q0 -27 -27 -27z" />
    <glyph glyph-name="Iacute" unicode="&#xcd;" 
d="M604 1196v-1081h246q27 0 27 -27v-61q0 -27 -27 -27h-612q-27 0 -27 27v61q0 27 27 27h243v1081h-243q-27 0 -27 27v61q0 27 27 27h612q27 0 27 -27v-61q0 -27 -27 -27h-246zM457 1407h-27q-27 0 -27 27v14q0 16 13 33l135 172q10 16 33 16h69q27 0 27 -27v-20
q0 -19 -14 -33l-177 -170q-14 -12 -32 -12z" />
    <glyph glyph-name="Icircumflex" unicode="&#xce;" 
d="M604 1196v-1081h246q27 0 27 -27v-61q0 -27 -27 -27h-612q-27 0 -27 27v61q0 27 27 27h243v1081h-243q-27 0 -27 27v61q0 27 27 27h612q27 0 27 -27v-61q0 -27 -27 -27h-246zM344 1407h-16q-27 0 -27 27v12q0 18 14 33l174 176q14 14 33 14h39q18 0 33 -14l176 -176
q14 -14 14 -33v-12q0 -27 -26 -27h-19q-18 0 -32 12l-164 142l-166 -142q-14 -12 -33 -12z" />
    <glyph glyph-name="Idieresis" unicode="&#xcf;" 
d="M604 1196v-1081h246q27 0 27 -27v-61q0 -27 -27 -27h-612q-27 0 -27 27v61q0 27 27 27h243v1081h-243q-27 0 -27 27v61q0 27 27 27h612q27 0 27 -27v-61q0 -27 -27 -27h-246zM786 1597v-96q0 -27 -26 -26h-96q-27 0 -27 26v96q0 27 27 27h96q26 0 26 -27zM449 1597v-96
q0 -27 -27 -26h-96q-27 0 -27 26v96q0 27 27 27h96q27 0 27 -27z" />
    <glyph glyph-name="Eth" unicode="&#xd0;" 
d="M807 362v586q0 248 -264 248h-264v-473h215q27 0 26 -27v-61q0 -27 -26 -27h-215v-493h264q264 -1 264 247zM182 1311h361q195 0 291 -95.5t96 -271.5v-575q0 -178 -96.5 -273.5t-290.5 -95.5h-361q-27 0 -26 27v581h-56q-27 0 -26 27v61q0 27 26 27h56v561q-1 27 26 27z
" />
    <glyph glyph-name="Ntilde" unicode="&#xd1;" 
d="M834 1311h69q27 0 27 -27v-1257q0 -27 -27 -27h-45q-23 0 -31 18l-548 1022v-1013q0 -27 -27 -27h-70q-27 0 -26 27v1257q0 27 26 27h45q23 0 31 -19l549 -1022v1014q0 27 27 27zM409.5 1548q-49.5 0 -79.5 -47q-16 -23 -35 -14l-25 8q-27 10 -14 35q53 115 166 115
q68 0 149 -58q57 -45 107 -45t78 49q16 23 35 15l22 -9q31 -8 16 -34q-53 -115 -163 -115q-70 0 -152 57q-55 43 -104.5 43z" />
    <glyph glyph-name="Ograve" unicode="&#xd2;" 
d="M543 1217q-264 0 -264 -248v-627q0 -248 264 -248t264 248v627q0 248 -264 248zM544 1331q194 0 290 -95t96 -271v-617q0 -178 -96 -273t-290 -95t-291 96t-97 272v617q0 176 97 271t291 95zM682 1448v-14q0 -27 -27 -27h-28q-16 0 -33 12l-176 170q-14 14 -15 33v20
q0 27 27 27h70q22 0 32 -16l138 -172q12 -16 12 -33z" />
    <glyph glyph-name="Oacute" unicode="&#xd3;" 
d="M543 1217q-264 0 -264 -248v-627q0 -248 264 -248t264 248v627q0 248 -264 248zM544 1331q194 0 290 -95t96 -271v-617q0 -178 -96 -273t-290 -95t-291 96t-97 272v617q0 176 97 271t291 95zM680 1642v-20q0 -18 -14 -33l-177 -170q-14 -12 -32 -12h-27q-27 0 -27 27v14
q0 16 13 33l135 172q10 16 33 16h69q27 0 27 -27z" />
    <glyph glyph-name="Ocircumflex" unicode="&#xd4;" 
d="M807 342v627q0 248 -264 248t-264 -248v-627q0 -248 264 -248t264 248zM544 1331q194 0 290 -95t96 -271v-617q0 -178 -96 -273t-290 -95t-291 96t-97 272v617q0 176 97 271t291 95zM344 1407h-16q-27 0 -27 27v12q0 18 14 33l174 176q14 14 33 14h39q18 0 33 -14
l176 -176q14 -14 14 -33v-12q0 -27 -26 -27h-19q-18 0 -32 12l-164 142l-166 -142q-14 -12 -33 -12z" />
    <glyph glyph-name="Otilde" unicode="&#xd5;" 
d="M543 1217q-264 0 -264 -248v-627q0 -248 264 -248t264 248v627q0 248 -264 248zM544 1331q194 0 290 -95t96 -271v-617q0 -178 -96 -273t-290 -95t-291 96t-97 272v617q0 176 97 271t291 95zM422 1645q68 0 149 -58q57 -45 107 -45t78 49q16 23 35 15l22 -9q31 -8 16 -34
q-53 -115 -163 -115q-70 0 -152 57q-55 43 -104.5 43t-79.5 -47q-16 -23 -35 -14l-25 8q-27 10 -14 37q53 113 166 113z" />
    <glyph glyph-name="Odieresis" unicode="&#xd6;" 
d="M543 1217q-264 0 -264 -248v-627q0 -248 264 -248t264 248v627q0 248 -264 248zM544 1331q194 0 290 -95t96 -271v-617q0 -178 -96 -273t-290 -95t-291 96t-97 272v617q0 176 97 271t291 95zM786 1597v-96q0 -27 -26 -26h-96q-27 0 -27 26v96q0 27 27 27h96q26 0 26 -27z
M449 1597v-96q0 -27 -27 -26h-96q-27 0 -27 26v96q0 27 27 27h96q27 0 27 -27z" />
    <glyph glyph-name="multiply" unicode="&#xd7;" 
d="M614 600l254 -254q18 -18 0 -37l-34 -33q-18 -18 -37 0l-254 254l-254 -254q-18 -18 -37 0l-33 33q-18 18 0 37l254 254l-254 254q-18 18 0 37l33 35q18 18 37 0l254 -254l254 254q18 18 37 0l34 -35q18 -18 0 -37z" />
    <glyph glyph-name="Oslash" unicode="&#xd8;" 
d="M807 342v627q0 131 -76 192l-289 -1055q43 -12 101 -12q264 0 264 248zM279 969v-627q0 -127 73 -192l291 1056q-51 10 -100 11q-264 0 -264 -248zM930 965v-617q0 -178 -96.5 -273t-290.5 -95q-76 0 -131 14l-9 -33q-6 -23 -28 -22h-49q-29 0 -23 30l16 58
q-164 88 -163 321v617q0 176 97 271t290 95q72 0 131 -12l8 31q6 23 29 22h49q28 0 22 -31l-16 -57q164 -84 164 -319z" />
    <glyph glyph-name="Ugrave" unicode="&#xd9;" 
d="M930 1284v-936q0 -178 -96 -273t-290 -95t-291 96t-97 272v936q0 27 26 27h70q27 0 27 -27v-942q0 -248 264 -248t264 248v942q0 27 27 27h69q27 0 27 -27zM682 1448v-14q0 -27 -27 -27h-28q-16 0 -33 12l-176 170q-14 14 -15 33v20q0 27 27 27h70q22 0 32 -16l138 -172
q12 -16 12 -33z" />
    <glyph glyph-name="Uacute" unicode="&#xda;" 
d="M930 1284v-936q0 -178 -96 -273t-290 -95t-291 96t-97 272v936q0 27 26 27h70q27 0 27 -27v-942q0 -248 264 -248t264 248v942q0 27 27 27h69q27 0 27 -27zM680 1642v-20q0 -18 -14 -33l-177 -170q-14 -12 -32 -12h-27q-27 0 -27 27v14q0 16 13 33l135 172q10 16 33 16
h69q27 0 27 -27z" />
    <glyph glyph-name="Ucircumflex" unicode="&#xdb;" 
d="M834 1311h69q27 0 27 -27v-936q0 -178 -96 -273t-290 -95t-291 96t-97 272v936q0 27 26 27h70q27 0 27 -27v-942q0 -248 264 -248t264 248v942q0 27 27 27zM344 1407h-16q-27 0 -27 27v12q0 18 14 33l174 176q14 14 33 14h39q18 0 33 -14l176 -176q14 -14 14 -33v-12
q0 -27 -26 -27h-19q-18 0 -32 12l-164 142l-166 -142q-14 -12 -33 -12z" />
    <glyph glyph-name="Udieresis" unicode="&#xdc;" 
d="M930 1284v-936q0 -178 -96 -273t-290 -95t-291 96t-97 272v936q0 27 26 27h70q27 0 27 -27v-942q0 -248 264 -248t264 248v942q0 27 27 27h69q27 0 27 -27zM786 1597v-96q0 -27 -26 -26h-96q-27 0 -27 26v96q0 27 27 27h96q26 0 26 -27zM449 1597v-96q0 -27 -27 -26h-96
q-27 0 -27 26v96q0 27 27 27h96q27 0 27 -27z" />
    <glyph glyph-name="Yacute" unicode="&#xdd;" 
d="M944 1284v-143q0 -18 -8 -33l-332 -573v-508q0 -27 -26 -27h-70q-27 0 -27 27v508l-331 573q-8 14 -9 33v143q0 27 27 27h70q27 0 26 -27v-129l279 -498l278 498v129q0 27 27 27h70q26 0 26 -27zM457 1407h-27q-27 0 -27 27v14q0 16 13 33l135 172q10 16 33 16h69
q27 0 27 -27v-20q0 -19 -14 -33l-177 -170q-14 -12 -32 -12z" />
    <glyph glyph-name="Thorn" unicode="&#xde;" 
d="M807 655v17q0 236 -264 235h-264v-485h264q264 0 264 233zM279 1022h264q195 0 291 -92t96 -264t-96.5 -265.5t-290.5 -93.5h-264v-280q0 -27 -27 -27h-70q-27 0 -26 27v1257q0 27 26 27h70q27 0 27 -27v-262z" />
    <glyph glyph-name="germandbls" unicode="&#xdf;" 
d="M557 -20q-61 0 -123 14q-25 6 -20 31l12 59q4 26 41 18t88 -8q254 0 254 273q0 254 -264 266q-27 0 -27 26v50q0 27 27 26q211 10 211 228q0 115 -61.5 177t-176.5 62t-172 -61.5t-57 -173.5v-940q0 -27 -27 -27h-69q-27 0 -27 27v936q0 168 89 261t262 93t266 -95.5
t93 -274.5t-135 -259q188 -76 189 -321q0 -188 -95.5 -287.5t-277.5 -99.5z" />
    <glyph glyph-name="agrave" unicode="&#xe0;" 
d="M504 90q112 0 202.5 59.5t90.5 137.5v147h-265q-127 0 -191.5 -43t-64.5 -121v-12q0 -82 58 -125t170 -43zM569 963q170 0 260.5 -92.5t90.5 -262.5v-581q0 -27 -27 -27h-47q-27 0 -29 25l-12 88q-106 -133 -322 -133q-152 0 -239.5 70.5t-87.5 203.5v12q0 129 96 199
t280 70h265v79q0 240 -238 240q-102 0 -162.5 -39t-79.5 -92q-10 -23 -30 -23h-60q-29 0 -28 13q8 94 104 172t266 78zM674 1069h-29q-18 0 -33 12l-176 170q-14 14 -14 33v21q0 27 27 26h69q23 0 33 -16l137 -172q12 -14 12 -33v-14q1 -27 -26 -27z" />
    <glyph glyph-name="aacute" unicode="&#xe1;" 
d="M504 90q112 0 202.5 59.5t90.5 137.5v147h-265q-127 0 -191.5 -43t-64.5 -121v-12q0 -82 58 -125t170 -43zM569 963q170 0 260.5 -92.5t90.5 -262.5v-581q0 -27 -27 -27h-47q-27 0 -29 25l-12 88q-106 -133 -322 -133q-152 0 -239.5 70.5t-87.5 203.5v12q0 129 96 199
t280 70h265v79q0 240 -238 240q-102 0 -162.5 -39t-79.5 -92q-10 -23 -30 -23h-60q-29 0 -28 13q8 94 104 172t266 78zM475 1069h-26q-27 0 -27 27v14q0 16 12 33l135 172q10 16 33 16h70q27 0 26 -26v-21q0 -19 -14 -33l-176 -170q-16 -12 -33 -12z" />
    <glyph glyph-name="acircumflex" unicode="&#xe2;" 
d="M504 90q112 0 202.5 59.5t90.5 137.5v147h-265q-127 0 -191.5 -43t-64.5 -121v-12q0 -82 58 -125t170 -43zM569 963q170 0 260.5 -92.5t90.5 -262.5v-581q0 -27 -27 -27h-47q-27 0 -29 25l-12 88q-106 -133 -322 -133q-152 0 -239.5 70.5t-87.5 203.5v12q0 129 96 199
t280 70h265v79q0 240 -238 240q-102 0 -162.5 -39t-79.5 -92q-10 -23 -30 -23h-60q-29 0 -28 13q8 94 104 172t266 78zM360 1069h-16q-27 0 -27 27v12q0 18 15 33l174 176q14 14 33 14h39q18 0 32 -14l176 -176q14 -14 15 -33v-12q0 -27 -27 -27h-18q-18 0 -33 12l-164 142
l-166 -142q-14 -12 -33 -12z" />
    <glyph glyph-name="atilde" unicode="&#xe3;" 
d="M504 90q112 0 202.5 59.5t90.5 137.5v147h-265q-127 0 -191.5 -43t-64.5 -121v-12q0 -82 58 -125t170 -43zM569 963q170 0 260.5 -92.5t90.5 -262.5v-581q0 -27 -27 -27h-47q-27 0 -29 25l-12 88q-106 -133 -322 -133q-152 0 -239.5 70.5t-87.5 203.5v12q0 129 96 199
t280 70h265v79q0 240 -238 240q-102 0 -162.5 -39t-79.5 -92q-10 -23 -30 -23h-60q-29 0 -28 13q8 94 104 172t266 78zM428 1210q-49 0 -80 -47q-16 -23 -35 -14l-24 8q-27 10 -15 35q53 115 166 115q68 0 150 -58q57 -45 106 -45t78 49q16 23 35 15l22 -8q31 -8 17 -35
q-53 -115 -164 -115q-70 0 -152 57q-55 43 -104 43z" />
    <glyph glyph-name="adieresis" unicode="&#xe4;" 
d="M504 90q112 0 202.5 59.5t90.5 137.5v147h-265q-127 0 -191.5 -43t-64.5 -121v-12q0 -82 58 -125t170 -43zM569 963q170 0 260.5 -92.5t90.5 -262.5v-581q0 -27 -27 -27h-47q-27 0 -29 25l-12 88q-106 -133 -322 -133q-152 0 -239.5 70.5t-87.5 203.5v12q0 129 96 199
t280 70h265v79q0 240 -238 240q-102 0 -162.5 -39t-79.5 -92q-10 -23 -30 -23h-60q-29 0 -28 13q8 94 104 172t266 78zM805 1260v-97q0 -27 -27 -26h-96q-27 0 -27 26v97q0 27 27 26h96q27 1 27 -26zM467 1260v-97q0 -27 -27 -26h-96q-27 0 -27 26v97q0 27 27 26h96
q27 1 27 -26z" />
    <glyph glyph-name="aring" unicode="&#xe5;" 
d="M504 90q112 0 202.5 59.5t90.5 137.5v147h-265q-127 0 -191.5 -43t-64.5 -121v-12q0 -82 58 -125t170 -43zM569 963q170 0 260.5 -92.5t90.5 -262.5v-581q0 -27 -27 -27h-47q-27 0 -29 25l-12 88q-106 -133 -322 -133q-152 0 -239.5 70.5t-87.5 203.5v12q0 129 96 199
t280 70h265v79q0 240 -238 240q-102 0 -162.5 -39t-79.5 -92q-10 -23 -30 -23h-60q-29 0 -28 13q8 94 104 172t266 78zM561 1323q-41 0 -65.5 -25.5t-24.5 -62.5t25.5 -62.5t64.5 -25.5t64.5 25.5t25.5 62.5t-24.5 62.5t-65.5 25.5zM561 1067q-76 0 -124 47t-48 119t46 121
t126 49t126 -49t46 -121t-48 -119t-124 -47z" />
    <glyph glyph-name="ae" unicode="&#xe6;" 
d="M354 88q90 0 148 47q-31 78 -31 213v111h-94q-174 0 -174 -185v-10q-1 -176 151 -176zM733 850q-84 0 -115.5 -60.5t-31.5 -187.5v-47h293v55q-1 240 -146 240zM586 459v-119q0 -127 31.5 -187.5t106.5 -60.5q139 0 155 170q0 27 26 27h62q27 0 26 -27
q-8 -123 -74.5 -202.5t-187.5 -79.5t-182 73q-74 -74 -203 -73q-254 0 -254 280v10q0 133 69.5 209t213.5 76h96v41q0 127 29 205q-37 53 -113 53q-127 0 -143 -129q-2 -25 -27 -25h-57q-27 0 -27 27q8 94 70.5 165t178.5 71t179 -60q63 59 182 59t184.5 -95t65.5 -269v-113
q0 -27 -26 -26h-381z" />
    <glyph glyph-name="ccedilla" unicode="&#xe7;" 
d="M547 94q113 0 179.5 50.5t78.5 123.5q2 25 29 25h69q29 0 25 -27q-8 -102 -84 -181t-209 -99q43 -35 43 -105v-16q0 -129 -137 -129q-115 0 -131 90q-4 27 26 27h31q13 -1 27 -19t47 -18q51 0 51 45v26q0 43 -51 43h-39q-27 0 -27 27v27q-319 33 -319 364v248
q0 176 97 271.5t283 95.5t284 -83t108 -204q4 -27 -25 -27h-69q-27 0 -29 25q-10 74 -76.5 124t-181.5 50q-268 0 -268 -248v-258q0 -248 268 -248z" />
    <glyph glyph-name="egrave" unicode="&#xe8;" 
d="M543 850q-264 0 -264 -248v-47h528v55q0 240 -264 240zM279 459v-119q0 -119 66.5 -183.5t190.5 -64.5t191.5 48t77.5 124q2 25 29 25h69q29 0 25 -27q-10 -122 -108 -202t-284 -80t-283 96t-97 272v248q0 176 97 271.5t291 95.5t290 -95.5t96 -269.5v-113q0 -27 -27 -26
h-624zM655 1069h-28q-16 0 -33 12l-176 170q-14 14 -15 33v21q0 27 27 26h70q23 0 32 -16l138 -172q12 -14 12 -33v-14q0 -27 -27 -27z" />
    <glyph glyph-name="eacute" unicode="&#xe9;" 
d="M543 850q-264 0 -264 -248v-47h528v55q0 240 -264 240zM279 459v-119q0 -119 66.5 -183.5t190.5 -64.5t191.5 48t77.5 124q2 25 29 25h69q29 0 25 -27q-10 -123 -108.5 -202.5t-284 -79.5t-282.5 96t-97 272v248q0 176 97 271.5t291 95.5t290 -95.5t96 -269.5v-113
q0 -27 -27 -26h-624zM457 1069h-27q-27 0 -27 27v14q0 16 13 33l135 172q10 16 33 16h69q27 0 27 -26v-21q0 -19 -14 -33l-177 -170q-14 -12 -32 -12z" />
    <glyph glyph-name="ecircumflex" unicode="&#xea;" 
d="M543 850q-264 0 -264 -248v-47h528v55q0 240 -264 240zM279 459v-119q0 -119 66.5 -183.5t190.5 -64.5t191.5 48t77.5 124q2 25 29 25h69q29 0 25 -27q-10 -123 -108.5 -202.5t-284 -79.5t-282.5 96t-97 272v248q0 176 97 271.5t291 95.5t290 -95.5t96 -269.5v-113
q0 -27 -27 -26h-624zM344 1069h-16q-27 0 -27 27v12q0 18 14 33l174 176q14 14 33 14h39q18 0 33 -14l176 -176q14 -14 14 -33v-12q0 -27 -26 -27h-19q-18 0 -32 12l-164 142l-166 -142q-14 -12 -33 -12z" />
    <glyph glyph-name="edieresis" unicode="&#xeb;" 
d="M543 850q-264 0 -264 -248v-47h528v55q0 240 -264 240zM279 459v-119q0 -119 66.5 -183.5t190.5 -64.5t191.5 48t77.5 124q2 25 29 25h69q29 0 25 -27q-10 -122 -108 -202t-284 -80t-283 96t-97 272v248q0 176 97 271.5t291 95.5t290 -95.5t96 -269.5v-113q0 -27 -27 -26
h-624zM786 1260v-97q0 -27 -26 -26h-96q-27 0 -27 26v97q0 27 27 26h96q26 1 26 -26zM449 1260v-97q0 -27 -27 -26h-96q-27 0 -27 26v97q0 27 27 26h96q27 1 27 -26z" />
    <glyph glyph-name="igrave" unicode="&#xec;" 
d="M604 115h240q27 0 26 -27v-61q0 -27 -26 -27h-602q-27 0 -27 27v61q0 27 27 27h239v712h-239q-27 0 -27 27v61q0 27 27 27h336q27 0 26 -27v-800zM655 1069h-28q-16 0 -33 12l-176 170q-14 14 -15 33v21q0 27 27 26h70q23 0 32 -16l138 -172q12 -14 12 -33v-14
q0 -27 -27 -27z" />
    <glyph glyph-name="iacute" unicode="&#xed;" 
d="M604 115h240q27 0 26 -27v-61q0 -27 -26 -27h-602q-27 0 -27 27v61q0 27 27 27h239v712h-239q-27 0 -27 27v61q0 27 27 27h336q27 0 26 -27v-800zM457 1069h-27q-27 0 -27 27v14q0 16 13 33l135 172q10 16 33 16h69q27 0 27 -26v-21q0 -19 -14 -33l-177 -170
q-14 -12 -32 -12z" />
    <glyph glyph-name="icircumflex" unicode="&#xee;" 
d="M604 115h240q27 0 26 -27v-61q0 -27 -26 -27h-602q-27 0 -27 27v61q0 27 27 27h239v712h-239q-27 0 -27 27v61q0 27 27 27h336q27 0 26 -27v-800zM344 1069h-16q-27 0 -27 27v12q0 18 14 33l174 176q14 14 33 14h39q18 0 33 -14l176 -176q14 -14 14 -33v-12
q0 -27 -26 -27h-19q-18 0 -32 12l-164 142l-166 -142q-14 -12 -33 -12z" />
    <glyph glyph-name="idieresis" unicode="&#xef;" 
d="M604 115h240q27 0 26 -27v-61q0 -27 -26 -27h-602q-27 0 -27 27v61q0 27 27 27h239v712h-239q-27 0 -27 27v61q0 27 27 27h336q27 0 26 -27v-800zM786 1260v-97q0 -27 -26 -26h-96q-27 0 -27 26v97q0 27 27 26h96q26 1 26 -26zM449 1260v-97q0 -27 -27 -26h-96
q-27 0 -27 26v97q0 27 27 26h96q27 1 27 -26z" />
    <glyph glyph-name="eth" unicode="&#xf0;" 
d="M807 342v256q0 33 -4 90q-31 66 -101.5 102.5t-156.5 36.5q-129 0 -197.5 -65.5t-68.5 -183.5v-236q0 -119 66.5 -183.5t197.5 -64.5q264 0 264 248zM930 602v-254q0 -178 -96 -273t-290 -95t-291 96t-97 272v234q0 172 97 266t279 94q137 0 240 -80q-43 141 -154 232
l-174 -82q-25 -10 -36 14l-19 41q-12 25 12 35l121 57q-63 39 -186 86q-25 12 -17 35l17 51q10 25 33 17q170 -59 276 -131l162 75q27 10 35 -14l18 -41q13 -25 -12 -35l-117 -55q199 -188 199 -545z" />
    <glyph glyph-name="ntilde" unicode="&#xf1;" 
d="M600 963q154 0 237 -86t83 -254v-596q0 -27 -27 -27h-70q-27 0 -26 27v591q0 229 -211 230q-125 0 -211 -70.5t-86 -185.5v-565q0 -27 -27 -27h-69q-27 0 -27 27v888q0 27 27 27h49q25 0 28 -24l15 -105q49 70 133 110t182 40zM414 1210q-49 0 -80 -47q-16 -23 -35 -14
l-25 8q-27 10 -14 35q53 115 166 115q68 0 149 -58q57 -45 107 -45t78 49q16 23 35 15l22 -8q31 -8 17 -35q-53 -115 -164 -115q-70 0 -152 57q-55 43 -104 43z" />
    <glyph glyph-name="ograve" unicode="&#xf2;" 
d="M543 848q-131 0 -197.5 -64.5t-66.5 -183.5v-258q0 -119 66.5 -183.5t197.5 -64.5q264 0 264 248v258q0 248 -264 248zM544 963q194 0 290 -95.5t96 -271.5v-248q0 -178 -96 -273t-290 -95t-291 96t-97 272v248q0 176 97 271.5t291 95.5zM688 1110v-14q0 -27 -26 -27h-29
q-18 0 -33 12l-176 170q-14 14 -14 33v21q0 27 26 26h70q23 0 33 -16l137 -172q12 -14 12 -33z" />
    <glyph glyph-name="oacute" unicode="&#xf3;" 
d="M543 848q-131 0 -197.5 -64.5t-66.5 -183.5v-258q0 -119 66.5 -183.5t197.5 -64.5q264 0 264 248v258q0 248 -264 248zM544 963q194 0 290 -95.5t96 -271.5v-248q0 -178 -96 -273t-290 -95t-291 96t-97 272v248q0 176 97 271.5t291 95.5zM676 1305v-21q0 -18 -14 -33
l-177 -170q-14 -12 -32 -12h-27q-27 0 -27 27v14q0 16 13 33l135 172q10 16 33 16h69q27 1 27 -26z" />
    <glyph glyph-name="ocircumflex" unicode="&#xf4;" 
d="M807 342v258q0 248 -264 248q-131 0 -197.5 -64.5t-66.5 -183.5v-258q0 -119 66.5 -183.5t197.5 -64.5q264 0 264 248zM544 963q194 0 290 -95.5t96 -271.5v-248q0 -178 -96 -273t-290 -95t-291 96t-97 272v248q0 176 97 271.5t291 95.5zM340 1069h-16q-27 0 -27 27v12
q0 18 14 33l174 176q14 14 33 14h39q18 0 33 -14l176 -176q14 -14 14 -33v-12q0 -27 -26 -27h-19q-18 0 -33 12l-163 142l-166 -142q-14 -12 -33 -12z" />
    <glyph glyph-name="otilde" unicode="&#xf5;" 
d="M543 848q-131 0 -197.5 -64.5t-66.5 -183.5v-258q0 -119 66.5 -183.5t197.5 -64.5q264 0 264 248v258q0 248 -264 248zM544 963q194 0 290 -95.5t96 -271.5v-248q0 -178 -96 -273t-290 -95t-291 96t-97 272v248q0 176 97 271.5t291 95.5zM422 1307q68 0 149 -58
q57 -45 107 -45t78 49q16 23 35 15l22 -8q31 -8 16 -35q-53 -115 -163 -115q-70 0 -152 57q-55 43 -104.5 43t-79.5 -47q-16 -23 -35 -14l-25 8q-27 10 -14 37q53 113 166 113z" />
    <glyph glyph-name="odieresis" unicode="&#xf6;" 
d="M543 848q-131 0 -197.5 -64.5t-66.5 -183.5v-258q0 -119 66.5 -183.5t197.5 -64.5q264 0 264 248v258q0 248 -264 248zM544 963q194 0 290 -95.5t96 -271.5v-248q0 -178 -96 -273t-290 -95t-291 96t-97 272v248q0 176 97 271.5t291 95.5zM786 1260v-97q0 -27 -26 -26h-96
q-27 0 -27 26v97q0 27 27 26h96q26 1 26 -26zM449 1260v-97q0 -27 -27 -26h-96q-27 0 -27 26v97q0 27 27 26h96q27 1 27 -26z" />
    <glyph glyph-name="divide" unicode="&#xf7;" 
d="M610 360v-79q0 -27 -26 -27h-80q-27 0 -27 27v79q0 27 27 27h80q26 0 26 -27zM918 623v-45q0 -27 -27 -27h-694q-27 0 -27 27v45q0 27 27 26h694q27 1 27 -26zM610 920v-80q0 -27 -26 -27h-80q-27 0 -27 27v80q0 27 27 26h80q26 1 26 -26z" />
    <glyph glyph-name="oslash" unicode="&#xf8;" 
d="M807 342v258q0 164 -119 219l-199 -723q16 -2 54 -2q264 0 264 248zM279 600v-258q0 -164 120 -219l199 721q-37 4 -55 4q-131 0 -197.5 -64.5t-66.5 -183.5zM930 596v-248q0 -178 -96.5 -273t-290.5 -95q-43 0 -84 6l-6 -25q-6 -23 -29 -22h-45q-29 0 -23 30l11 37
q-211 76 -211 342v248q0 176 97 271.5t290 95.5q47 0 86 -7l6 25q6 23 29 23h45q28 0 22 -31l-10 -37q209 -76 209 -340z" />
    <glyph glyph-name="ugrave" unicode="&#xf9;" 
d="M823 942h70q27 0 27 -27v-888q0 -27 -27 -27h-47q-27 0 -29 25l-16 104q-104 -150 -314 -149q-156 0 -238.5 86t-82.5 253v596q0 27 27 27h69q27 0 27 -27v-591q0 -229 211 -230q125 0 211 71t86 185v565q-1 27 26 27zM655 1069h-28q-16 0 -33 12l-176 170q-14 14 -15 33
v21q0 27 27 26h70q23 0 32 -16l138 -172q12 -14 12 -33v-14q0 -27 -27 -27z" />
    <glyph glyph-name="uacute" unicode="&#xfa;" 
d="M823 942h70q27 0 27 -27v-888q0 -27 -27 -27h-47q-27 0 -29 25l-16 104q-104 -150 -314 -149q-156 0 -238.5 86t-82.5 253v596q0 27 27 27h69q27 0 27 -27v-591q0 -229 211 -230q125 0 211 71t86 185v565q-1 27 26 27zM457 1069h-27q-27 0 -27 27v14q0 16 13 33l135 172
q10 16 33 16h69q27 0 27 -26v-21q0 -19 -14 -33l-177 -170q-14 -12 -32 -12z" />
    <glyph glyph-name="ucircumflex" unicode="&#xfb;" 
d="M823 942h70q27 0 27 -27v-888q0 -27 -27 -27h-47q-27 0 -29 25l-16 104q-104 -150 -314 -149q-156 0 -238.5 86t-82.5 253v596q0 27 27 27h69q27 0 27 -27v-591q0 -229 211 -230q125 0 211 71t86 185v565q-1 27 26 27zM344 1069h-16q-27 0 -27 27v12q0 18 14 33l174 176
q14 14 33 14h39q18 0 33 -14l176 -176q14 -14 14 -33v-12q0 -27 -26 -27h-19q-18 0 -32 12l-164 142l-166 -142q-14 -12 -33 -12z" />
    <glyph glyph-name="udieresis" unicode="&#xfc;" 
d="M823 942h70q27 0 27 -27v-888q0 -27 -27 -27h-47q-27 0 -29 25l-16 104q-104 -150 -314 -149q-156 0 -238.5 86t-82.5 253v596q0 27 27 27h69q27 0 27 -27v-591q0 -229 211 -230q125 0 211 71t86 185v565q-1 27 26 27zM786 1260v-97q0 -27 -26 -26h-96q-27 0 -27 26v97
q0 27 27 26h96q26 1 26 -26zM449 1260v-97q0 -27 -27 -26h-96q-27 0 -27 26v97q0 27 27 26h96q27 1 27 -26z" />
    <glyph glyph-name="yacute" unicode="&#xfd;" 
d="M838 942h69q27 0 27 -27v-94q0 -14 -6 -33l-424 -1013q-8 -20 -31 -21h-59q-14 0 -20.5 8.5t-0.5 22.5l90 223l-325 780q-6 18 -6 33v94q0 27 26 27h70q27 0 26 -27v-104l271 -661l266 661v104q0 27 27 27zM457 1069h-27q-27 0 -27 27v14q0 16 13 33l135 172q10 16 33 16
h69q27 0 27 -26v-21q0 -19 -14 -33l-177 -170q-14 -12 -32 -12z" />
    <glyph glyph-name="thorn" unicode="&#xfe;" 
d="M807 344v254q0 117 -65.5 183.5t-178.5 66.5t-193.5 -62.5t-80.5 -167.5v-294q0 -102 82 -166t193 -64t177 66.5t66 183.5zM567 963q175 0 269 -95.5t94 -265.5v-262q0 -170 -95 -265t-269 -95t-277 131v-330q0 -27 -27 -27h-69q-27 0 -27 27v1503q0 27 27 27h69
q27 0 27 -27v-453q103 132 278 132z" />
    <glyph glyph-name="ydieresis" unicode="&#xff;" 
d="M838 942h69q27 0 27 -27v-94q0 -14 -6 -33l-424 -1013q-8 -20 -31 -21h-59q-14 0 -20.5 8.5t-0.5 22.5l90 223l-325 780q-6 18 -6 33v94q0 27 26 27h70q27 0 26 -27v-104l271 -661l266 661v104q0 27 27 27zM786 1260v-97q0 -27 -26 -26h-96q-27 0 -27 26v97q0 27 27 26
h96q26 1 26 -26zM449 1260v-97q0 -27 -27 -26h-96q-27 0 -27 26v97q0 27 27 26h96q27 1 27 -26z" />
    <glyph glyph-name="Amacron" unicode="&#x100;" 
d="M715 518l-172 610l-172 -610h344zM948 123v-96q0 -27 -26 -27h-70q-27 0 -27 27v102l-77 274h-410l-76 -268v-108q0 -27 -26 -27h-70q-27 0 -27 27v96q0 8 4 33l330 1132q6 23 29 23h82q22 0 28 -23l332 -1132q4 -25 4 -33zM780 1538v-49q0 -27 -26 -27h-422
q-27 0 -27 27v49q0 27 27 27h422q26 0 26 -27z" />
    <glyph glyph-name="amacron" unicode="&#x101;" 
d="M504 90q112 0 202.5 59.5t90.5 137.5v147h-265q-127 0 -191.5 -43t-64.5 -121v-12q0 -82 58 -125t170 -43zM569 963q170 0 260.5 -92.5t90.5 -262.5v-581q0 -27 -27 -27h-47q-27 0 -29 25l-12 88q-106 -133 -322 -133q-152 0 -239.5 70.5t-87.5 203.5v12q0 129 96 199
t280 70h265v79q0 240 -238 240q-102 0 -162.5 -39t-79.5 -92q-10 -23 -30 -23h-60q-29 0 -28 13q8 94 104 172t266 78zM799 1200v-49q0 -27 -27 -27h-422q-27 0 -26 27v49q0 27 26 27h422q27 0 27 -27z" />
    <glyph glyph-name="Abreve" unicode="&#x102;" 
d="M715 518l-172 610l-172 -610h344zM948 123v-96q0 -27 -26 -27h-70q-27 0 -27 27v102l-77 274h-410l-76 -268v-108q0 -27 -26 -27h-70q-27 0 -27 27v96q0 8 4 33l330 1132q6 23 29 23h82q22 0 28 -23l332 -1132q4 -25 4 -33zM546 1423q-171 0 -251 158q-8 16 -8 33v14
q0 27 26 27h13q20 0 32 -19q66 -116 188 -116t179 114q12 20 33 21h12q27 0 27 -27v-14q0 -10 -4 -27q-76 -164 -247 -164z" />
    <glyph glyph-name="abreve" unicode="&#x103;" 
d="M504 90q112 0 202.5 59.5t90.5 137.5v147h-265q-127 0 -191.5 -43t-64.5 -121v-12q0 -82 58 -125t170 -43zM569 963q170 0 260.5 -92.5t90.5 -262.5v-581q0 -27 -27 -27h-47q-27 0 -29 25l-12 88q-106 -133 -322 -133q-152 0 -239.5 70.5t-87.5 203.5v12q0 129 96 199
t280 70h265v79q0 240 -238 240q-102 0 -162.5 -39t-79.5 -92q-10 -23 -30 -23h-60q-29 0 -28 13q8 94 104 172t266 78zM564 1085q-171 0 -251 158q-8 16 -8 33v14q0 27 27 27h12q20 0 33 -19q65 -116 187 -116t179 114q12 20 33 21h12q27 0 27 -27v-14q0 -10 -4 -27
q-76 -164 -247 -164z" />
    <glyph glyph-name="Aogonek" unicode="&#x104;" 
d="M715 518l-172 610l-172 -610h344zM948 123v-98q0 -25 -24 -31q-104 -29 -105 -94q0 -45 53 -45h50q27 0 26 -27v-27q0 -27 -24 -28q-61 -4 -99 -4t-70 29.5t-32 76.5q0 96 102 145v109l-77 274h-410l-76 -268v-108q0 -27 -26 -27h-70q-27 0 -27 27v96q0 8 4 33l330 1132
q6 23 29 23h82q23 0 28 -23l332 -1132q4 -25 4 -33z" />
    <glyph glyph-name="aogonek" unicode="&#x105;" 
d="M504 90q112 0 202.5 59.5t90.5 137.5v147h-265q-127 0 -191.5 -43t-64.5 -121v-12q0 -82 58 -125t170 -43zM920 608v-583q0 -25 -25 -31q-104 -29 -104 -94q0 -45 53 -45h49q27 0 27 -27v-27q0 -27 -25 -28q-61 -4 -99 -4t-70 29.5t-32 76.5q0 104 123 156l-12 82
q-106 -133 -322 -133q-152 0 -239.5 70.5t-87.5 203.5v12q0 129 96 199t280 70h265v79q0 240 -238 240q-102 0 -162.5 -39t-79.5 -92q-10 -23 -30 -23h-60q-31 0 -26 27q16 92 111.5 164t261.5 72t256 -92.5t90 -262.5z" />
    <glyph glyph-name="Cacute" unicode="&#x106;" 
d="M544 1331q194 0 290 -95t96 -271v-25q0 -27 -27 -27h-69q-27 0 -27 27v29q0 248 -264 248t-264 -248v-627q0 -248 264 -248t264 248v29q0 27 27 26h69q27 0 27 -26v-23q0 -178 -96.5 -273t-290 -95t-290.5 96t-97 272v617q0 176 97 271t291 95zM680 1642v-20
q0 -18 -14 -33l-177 -170q-14 -12 -32 -12h-27q-27 0 -27 27v14q0 16 13 33l135 172q10 16 33 16h69q27 0 27 -27z" />
    <glyph glyph-name="cacute" unicode="&#x107;" 
d="M535.5 963q185.5 0 284 -83t108.5 -204q4 -27 -25 -27h-69q-27 0 -29 25q-10 74 -76.5 124t-181.5 50q-268 0 -268 -248v-258q0 -248 268 -248q113 0 179.5 50.5t78.5 123.5q2 25 29 25h69q29 0 25 -27q-10 -121 -108.5 -203.5t-284 -82.5t-282.5 95t-97 273v248
q0 176 97 271.5t282.5 95.5zM680 1305v-21q0 -18 -14 -33l-177 -170q-14 -12 -32 -12h-27q-27 0 -27 27v14q0 16 13 33l135 172q10 16 33 16h69q27 1 27 -26z" />
    <glyph glyph-name="Ccircumflex" unicode="&#x108;" 
d="M903 913h-69q-27 0 -27 27v29q0 248 -264 248t-264 -248v-627q0 -248 264 -248t264 248v29q0 27 27 26h69q27 0 27 -26v-23q0 -178 -96.5 -273t-290 -95t-290.5 96t-97 272v617q0 176 97 271t291 95t290 -95t96 -271v-25q0 -27 -27 -27zM344 1407h-16q-27 0 -27 27v12
q0 18 14 33l174 176q14 14 33 14h39q18 0 33 -14l176 -176q14 -14 14 -33v-12q0 -27 -26 -27h-19q-18 0 -32 12l-164 142l-166 -142q-14 -12 -33 -12z" />
    <glyph glyph-name="ccircumflex" unicode="&#x109;" 
d="M547 94q113 0 179.5 50.5t78.5 123.5q2 25 29 25h69q29 0 25 -27q-10 -121 -108.5 -203.5t-284 -82.5t-282.5 95t-97 273v248q0 176 97 271.5t282.5 95.5t284 -83t108.5 -204q4 -27 -25 -27h-69q-27 0 -29 25q-10 74 -76.5 124t-181.5 50q-268 0 -268 -248v-258
q0 -248 268 -248zM344 1069h-16q-27 0 -27 27v12q0 18 14 33l174 176q14 14 33 14h39q18 0 33 -14l176 -176q14 -14 14 -33v-12q0 -27 -26 -27h-19q-18 0 -32 12l-164 142l-166 -142q-14 -12 -33 -12z" />
    <glyph glyph-name="Cdotaccent" unicode="&#x10a;" 
d="M544 1331q194 0 290 -95t96 -271v-25q0 -27 -27 -27h-69q-27 0 -27 27v29q0 248 -264 248t-264 -248v-627q0 -248 264 -248t264 248v29q0 27 27 26h69q27 0 27 -26v-23q0 -178 -96.5 -273t-290 -95t-290.5 96t-97 272v617q0 176 97 271t291 95zM618 1599v-96
q0 -27 -26 -26h-98q-27 0 -27 26v96q0 27 27 27h98q26 0 26 -27z" />
    <glyph glyph-name="cdotaccent" unicode="&#x10b;" 
d="M535.5 963q185.5 0 284 -83t108.5 -204q4 -27 -25 -27h-69q-27 0 -29 25q-10 74 -76.5 124t-181.5 50q-268 0 -268 -248v-258q0 -248 268 -248q113 0 179.5 50.5t78.5 123.5q2 25 29 25h69q29 0 25 -27q-10 -121 -108.5 -203.5t-284 -82.5t-282.5 95t-97 273v248
q0 176 97 271.5t282.5 95.5zM618 1262v-97q0 -27 -26 -26h-98q-27 0 -27 26v97q0 27 27 26h98q26 1 26 -26z" />
    <glyph glyph-name="Ccaron" unicode="&#x10c;" 
d="M903 913h-69q-27 0 -27 27v29q0 248 -264 248t-264 -248v-627q0 -248 264 -248t264 248v29q0 27 27 26h69q27 0 27 -26v-23q0 -178 -96 -273t-290 -95t-291 96t-97 272v617q0 176 97 271t291 95t290 -95t96 -271v-25q0 -27 -27 -27zM561 1407h-39q-18 0 -33 14l-174 176
q-14 14 -14 33v12q0 27 27 27h16q16 0 33 -12l166 -141l164 141q14 12 32 12h19q27 0 26 -27v-12q0 -18 -14 -33l-176 -176q-15 -14 -33 -14z" />
    <glyph glyph-name="ccaron" unicode="&#x10d;" 
d="M547 94q113 0 179.5 50.5t78.5 123.5q2 25 29 25h69q29 0 25 -27q-10 -122 -108 -204t-284 -82t-283 95t-97 273v248q0 176 97 271.5t283 95.5t284 -83t108 -204q4 -27 -25 -27h-69q-27 0 -29 25q-10 74 -76.5 124t-181.5 50q-268 0 -268 -248v-258q0 -248 268 -248z
M561 1069h-39q-18 0 -33 14l-174 177q-14 14 -14 32v13q0 27 27 26h16q16 0 33 -12l166 -141l164 141q14 12 32 12h19q27 0 26 -26v-13q0 -18 -14 -32l-176 -177q-15 -14 -33 -14z" />
    <glyph glyph-name="Dcaron" unicode="&#x10e;" 
d="M807 362v586q0 248 -264 248h-264v-1081h264q264 -1 264 247zM182 1311h361q195 0 291 -95.5t96 -271.5v-575q0 -178 -96.5 -273.5t-290.5 -95.5h-361q-27 0 -26 27v1257q-1 27 26 27zM530 1407h-38q-18 0 -33 14l-174 176q-14 14 -15 33v12q0 27 27 27h16q18 0 33 -12
l166 -141l164 141q16 12 33 12h18q27 0 27 -27v-12q0 -18 -15 -33l-176 -176q-15 -14 -33 -14z" />
    <glyph glyph-name="dcaron" unicode="&#x10f;" 
d="M474 94q97 0 167 63.5t70 166.5v294q0 104 -69 167t-167 63t-158.5 -67.5t-60.5 -182.5v-254q0 -115 60.5 -182.5t157.5 -67.5zM920 1311h88q27 0 26 -27v-37q0 -8 -4 -33l-35 -110q-6 -23 -28 -23h-6q-29 0 -23 29l14 80h-32q-27 0 -27 27v67q0 27 27 27zM711 1284
q0 27 26 27h70q27 0 27 -27v-1257q0 -27 -27 -27h-47q-27 0 -29 25l-12 88q-88 -133 -260 -133q-143 0 -234.5 96t-91.5 264v262q0 168 91 264.5t245 96.5t242 -121v442z" />
    <glyph glyph-name="Dcroat" unicode="&#x110;" 
d="M807 362v586q0 248 -264 248h-264v-473h215q27 0 26 -27v-61q0 -27 -26 -27h-215v-493h264q264 -1 264 247zM182 1311h361q195 0 291 -95.5t96 -271.5v-575q0 -178 -96.5 -273.5t-290.5 -95.5h-361q-27 0 -26 27v581h-56q-27 0 -26 27v61q0 27 26 27h56v561q-1 27 26 27z
" />
    <glyph glyph-name="dcroat" unicode="&#x111;" 
d="M524 94q112 0 192.5 63.5t80.5 166.5v294q0 104 -80.5 167t-192.5 63t-178.5 -66.5t-66.5 -183.5v-254q0 -117 66.5 -183.5t178.5 -66.5zM1016 1153v-49q0 -27 -27 -27h-69v-1050q0 -27 -27 -27h-47q-27 0 -29 25l-14 96q-100 -141 -299 -141q-160 0 -254 95t-94 265v262
q0 170 95 265.5t269 95.5t277 -132v246h-230q-27 0 -26 27v49q0 27 26 27h230v104q0 27 26 27h70q27 0 27 -27v-104h69q27 0 27 -27z" />
    <glyph glyph-name="Emacron" unicode="&#x112;" 
d="M313 1196v-483h455q27 0 27 -27v-61q0 -27 -27 -27h-455v-483h557q27 0 27 -27v-61q0 -27 -27 -27h-653q-27 0 -27 27v1257q0 27 27 27h653q27 0 27 -27v-61q0 -27 -27 -27h-557zM780 1538v-49q0 -27 -26 -27h-422q-27 0 -27 27v49q0 27 27 27h422q26 0 26 -27z" />
    <glyph glyph-name="emacron" unicode="&#x113;" 
d="M543 850q-264 0 -264 -248v-47h528v55q0 240 -264 240zM279 459v-119q0 -119 66.5 -183.5t190.5 -64.5t191.5 48t77.5 124q2 25 29 25h69q29 0 25 -27q-10 -122 -108 -202t-284 -80t-283 96t-97 272v248q0 176 97 271.5t291 95.5t290 -95.5t96 -269.5v-113q0 -27 -27 -26
h-624zM780 1200v-49q0 -27 -26 -27h-422q-27 0 -27 27v49q0 27 27 27h422q26 0 26 -27z" />
    <glyph glyph-name="Ebreve" unicode="&#x114;" 
d="M313 1196v-483h455q27 0 27 -27v-61q0 -27 -27 -27h-455v-483h557q27 0 27 -27v-61q0 -27 -27 -27h-653q-27 0 -27 27v1257q0 27 27 27h653q27 0 27 -27v-61q0 -27 -27 -27h-557zM546 1423q-171 0 -251 158q-8 16 -8 33v14q0 27 26 27h13q20 0 32 -19q66 -117 188 -116.5
t179 114.5q12 20 33 21h12q27 0 27 -27v-14q0 -10 -4 -27q-76 -164 -247 -164z" />
    <glyph glyph-name="ebreve" unicode="&#x115;" 
d="M543 850q-264 0 -264 -248v-47h528v55q0 240 -264 240zM279 459v-119q0 -119 66.5 -183.5t190.5 -64.5t191.5 48t77.5 124q2 25 29 25h69q29 0 25 -27q-10 -123 -108.5 -202.5t-284 -79.5t-282.5 96t-97 272v248q0 176 97 271.5t291 95.5t290 -95.5t96 -269.5v-113
q0 -27 -27 -26h-624zM546 1085q-171 0 -251 158q-8 16 -8 33v14q0 27 26 27h13q20 0 32 -19q66 -117 188 -116.5t179 114.5q12 20 33 21h12q27 0 27 -27v-14q0 -10 -4 -27q-76 -164 -247 -164z" />
    <glyph glyph-name="Edotaccent" unicode="&#x116;" 
d="M313 1196v-483h455q27 0 27 -27v-61q0 -27 -27 -27h-455v-483h557q27 0 27 -27v-61q0 -27 -27 -27h-653q-27 0 -27 27v1257q0 27 27 27h653q27 0 27 -27v-61q0 -27 -27 -27h-557zM618 1599v-96q0 -27 -26 -26h-98q-27 0 -27 26v96q0 27 27 27h98q26 0 26 -27z" />
    <glyph glyph-name="edotaccent" unicode="&#x117;" 
d="M543 850q-264 0 -264 -248v-47h528v55q0 240 -264 240zM279 459v-119q0 -119 66.5 -183.5t190.5 -64.5t191.5 48t77.5 124q2 25 29 25h69q29 0 25 -27q-10 -122 -108 -202t-284 -80t-283 96t-97 272v248q0 176 97 271.5t291 95.5t290 -95.5t96 -269.5v-113q0 -27 -27 -26
h-624zM618 1262v-97q0 -27 -26 -26h-98q-27 0 -27 26v97q0 27 27 26h98q26 1 26 -26z" />
    <glyph glyph-name="Eogonek" unicode="&#x118;" 
d="M313 1196v-483h455q27 0 27 -27v-61q0 -27 -27 -27h-455v-483h557q27 0 27 -27v-63q0 -25 -25 -31q-104 -29 -104 -94q0 -45 53 -45h49q27 0 27 -27v-27q0 -27 -25 -28q-60 -4 -98 -4t-70 29.5t-32 76.5q0 78 67 125h-522q-27 0 -27 27v1257q0 27 27 27h653q27 0 27 -27
v-61q0 -27 -27 -27h-557z" />
    <glyph glyph-name="eogonek" unicode="&#x119;" 
d="M543 850q-264 0 -264 -248v-47h528v55q0 240 -264 240zM279 459v-119q0 -119 66.5 -183.5t190.5 -64.5t191.5 48t77.5 124q2 25 29 25h69q29 0 25 -27q-8 -102 -82 -178t-207 -98q-117 -29 -117 -97q0 -45 53 -45h50q27 0 26 -26v-27q0 -25 -24 -29q-61 -4 -99 -4t-70 30
t-32 90t57 104q-328 31 -327 366v248q0 176 97 271.5t291 95.5t290 -95.5t96 -269.5v-113q0 -27 -27 -26h-624z" />
    <glyph glyph-name="Ecaron" unicode="&#x11a;" 
d="M313 1196v-483h455q27 0 27 -27v-61q0 -27 -27 -27h-455v-483h557q27 0 27 -27v-61q0 -27 -27 -27h-653q-27 0 -27 27v1257q0 27 27 27h653q27 0 27 -27v-61q0 -27 -27 -27h-557zM561 1407h-39q-18 0 -33 14l-174 176q-14 14 -14 33v12q0 27 27 27h16q16 0 33 -12
l166 -141l164 141q14 12 32 12h19q27 0 26 -27v-12q0 -18 -14 -33l-176 -176q-15 -14 -33 -14z" />
    <glyph glyph-name="ecaron" unicode="&#x11b;" 
d="M543 850q-264 0 -264 -248v-47h528v55q0 240 -264 240zM279 459v-119q0 -119 66.5 -183.5t190.5 -64.5t191.5 48t77.5 124q2 25 29 25h69q29 0 25 -27q-10 -122 -108 -202t-284 -80t-283 96t-97 272v248q0 176 97 271.5t291 95.5t290 -95.5t96 -269.5v-113q0 -27 -27 -26
h-624zM561 1069h-39q-18 0 -33 14l-174 177q-14 14 -14 32v13q0 27 27 26h16q16 0 33 -12l166 -141l164 141q14 12 32 12h19q27 0 26 -26v-13q0 -18 -14 -32l-176 -177q-15 -14 -33 -14z" />
    <glyph glyph-name="Gcircumflex" unicode="&#x11c;" 
d="M903 934h-69q-27 0 -27 27v8q0 248 -264 248t-264 -248v-627q0 -248 264 -248t264 248v180h-207q-27 0 -27 27v61q0 27 27 27h303q27 0 27 -27v-262q0 -178 -96.5 -273t-290 -95t-290.5 96t-97 272v617q0 176 97 271t291 95t290 -95t96 -271v-4q0 -27 -27 -27zM344 1407
h-16q-27 0 -27 27v12q0 18 14 33l174 176q14 14 33 14h39q18 0 33 -14l176 -176q14 -14 14 -33v-12q0 -27 -26 -27h-19q-18 0 -32 12l-164 142l-166 -142q-14 -12 -33 -12z" />
    <glyph glyph-name="gcircumflex" unicode="&#x11d;" 
d="M524 258q112 0 192.5 63.5t80.5 165.5v131q0 104 -80.5 167t-192.5 63t-178.5 -66.5t-66.5 -183.5v-90q0 -117 66.5 -183.5t178.5 -66.5zM846 942h47q27 0 27 -27v-813q0 -176 -94.5 -272t-267.5 -96t-262 80t-99 206q0 27 26 27h70q27 0 29 -27q8 -76 66 -125t169 -49
t175.5 63.5t64.5 184.5v180q-101 -131 -277 -131t-270 95.5t-94 265.5v98q0 170 95 265.5t255 95.5q197 0 297 -140l14 95q2 24 29 24zM342 1069h-16q-27 0 -27 27v12q0 18 14 33l174 176q14 14 33 14h39q18 0 33 -14l176 -176q14 -14 14 -33v-12q0 -27 -26 -27h-19
q-18 0 -32 12l-164 142l-166 -142q-16 -12 -33 -12z" />
    <glyph glyph-name="Gbreve" unicode="&#x11e;" 
d="M903 934h-69q-27 0 -27 27v8q0 248 -264 248t-264 -248v-627q0 -248 264 -248t264 248v180h-207q-27 0 -27 27v61q0 27 27 27h303q27 0 27 -27v-262q0 -178 -96.5 -273t-290 -95t-290.5 96t-97 272v617q0 176 97 271t291 95t290 -95t96 -271v-4q0 -27 -27 -27zM546 1423
q-171 0 -251 158q-8 16 -8 33v14q0 27 26 27h13q20 0 32 -19q66 -117 188 -116.5t179 114.5q12 20 33 21h12q27 0 27 -27v-14q0 -10 -4 -27q-76 -164 -247 -164z" />
    <glyph glyph-name="gbreve" unicode="&#x11f;" 
d="M524 258q112 0 192.5 63.5t80.5 165.5v131q0 104 -80.5 167t-192.5 63t-178.5 -66.5t-66.5 -183.5v-90q0 -117 66.5 -183.5t178.5 -66.5zM846 942h47q27 0 27 -27v-813q0 -176 -94.5 -272t-267.5 -96t-262 80t-99 206q0 27 26 27h70q27 0 29 -27q8 -76 66 -125t169 -49
t175.5 63.5t64.5 184.5v180q-101 -131 -277 -131t-270 95.5t-94 265.5v98q0 170 95 265.5t255 95.5q197 0 297 -140l14 95q2 24 29 24zM544 1085q-171 0 -251 158q-8 16 -8 33v14q0 27 26 27h13q20 0 32 -19q66 -116 188 -116t179 114q12 20 33 21h12q27 0 27 -27v-14
q0 -10 -4 -27q-76 -164 -247 -164z" />
    <glyph glyph-name="Gdotaccent" unicode="&#x120;" 
d="M903 934h-69q-27 0 -27 27v8q0 248 -264 248t-264 -248v-627q0 -248 264 -248t264 248v180h-207q-27 0 -27 27v61q0 27 27 27h303q27 0 27 -27v-262q0 -178 -96 -273t-290 -95t-291 96t-97 272v617q0 176 97 271t291 95t290 -95t96 -271v-4q0 -27 -27 -27zM618 1599v-96
q0 -27 -26 -26h-98q-27 0 -27 26v96q0 27 27 27h98q26 0 26 -27z" />
    <glyph glyph-name="gdotaccent" unicode="&#x121;" 
d="M524 258q112 0 192.5 63.5t80.5 165.5v131q0 104 -80.5 167t-192.5 63t-178.5 -66.5t-66.5 -183.5v-90q0 -117 66.5 -183.5t178.5 -66.5zM846 942h47q27 0 27 -27v-813q0 -176 -94.5 -272t-267.5 -96t-262 80t-99 206q0 27 26 27h70q27 0 29 -27q8 -76 66 -125t169 -49
t175.5 63.5t64.5 184.5v180q-101 -131 -277 -131t-270 95.5t-94 265.5v98q0 170 95 265.5t255 95.5q197 0 297 -140l14 95q2 24 29 24zM616 1262v-97q0 -27 -26 -26h-98q-27 0 -27 26v97q0 27 27 26h98q26 1 26 -26z" />
    <glyph glyph-name="Gcommaaccent" unicode="&#x122;" 
d="M471 -188v69q0 27 27 27h88q27 0 26 -27v-37q0 -8 -4 -32l-35 -111q-6 -23 -28 -23h-6q-29 0 -23 29l14 78h-32q-27 0 -27 27zM903 934h-69q-27 0 -27 27v8q0 248 -264 248t-264 -248v-627q0 -248 264 -248t264 248v180h-207q-27 0 -27 27v61q0 27 27 27h303q27 0 27 -27
v-262q0 -178 -96 -273t-290 -95t-291 96t-97 272v617q0 176 97 271t291 95t290 -95t96 -271v-4q0 -27 -27 -27z" />
    <glyph glyph-name="gcommaaccent" unicode="&#x123;" 
d="M524 258q112 0 192.5 63.5t80.5 165.5v131q0 104 -80.5 167t-192.5 63t-178.5 -66.5t-66.5 -183.5v-90q0 -117 66.5 -183.5t178.5 -66.5zM846 942h47q27 0 27 -27v-813q0 -176 -94.5 -272t-267.5 -96t-262 80t-99 206q0 27 26 27h70q27 0 29 -27q8 -76 66 -125t169 -49
t175.5 63.5t64.5 184.5v180q-101 -131 -277 -131t-270 95.5t-94 265.5v98q0 170 95 265.5t255 95.5q197 0 297 -140l14 95q2 24 29 24zM612 1130v-69q0 -27 -26 -27h-88q-27 0 -27 27v37q0 8 4 32l37 111q6 23 29 23h4q29 0 24 -29l-14 -78h31q26 0 26 -27z" />
    <glyph glyph-name="Hcircumflex" unicode="&#x124;" 
d="M834 1311h69q27 0 27 -27v-1257q0 -27 -27 -27h-69q-27 0 -27 27v581h-528v-581q0 -27 -27 -27h-70q-27 0 -26 27v1257q0 27 26 27h70q27 0 27 -27v-561h528v561q0 27 27 27zM344 1407h-16q-27 0 -27 27v12q0 18 14 33l174 176q14 14 33 14h39q18 0 33 -14l176 -176
q14 -14 14 -33v-12q0 -27 -26 -27h-19q-18 0 -32 12l-164 142l-166 -142q-14 -12 -33 -12z" />
    <glyph glyph-name="hcircumflex" unicode="&#x125;" 
d="M600 963q154 0 237 -86t83 -254v-596q0 -27 -27 -27h-70q-27 0 -26 27v591q0 229 -211 230q-125 0 -211 -70.5t-86 -185.5v-565q0 -27 -27 -27h-69q-27 0 -27 27v1257q0 27 27 27h69q27 0 27 -27v-465q108 144 311 144zM344 1407h-16q-27 0 -27 27v12q0 18 14 33l174 176
q14 14 33 14h39q18 0 33 -14l176 -176q14 -14 14 -33v-12q0 -27 -26 -27h-19q-18 0 -32 12l-164 142l-166 -142q-14 -12 -33 -12z" />
    <glyph glyph-name="Hbar" unicode="&#x126;" 
d="M807 874h-528v-151h528v151zM1012 963v-62q0 -27 -27 -27h-55v-847q0 -27 -27 -27h-69q-27 0 -27 27v581h-528v-581q0 -27 -27 -27h-70q-27 0 -26 27v847h-56q-27 0 -26 27v62q0 27 26 26h56v295q0 27 26 27h70q27 0 27 -27v-295h528v295q0 27 27 27h69q27 0 27 -27v-295
h55q27 1 27 -26z" />
    <glyph glyph-name="hbar" unicode="&#x127;" 
d="M600 963q154 0 237 -86t83 -254v-596q0 -27 -27 -27h-70q-27 0 -26 27v591q0 229 -211 230q-125 0 -211 -70.5t-86 -185.5v-565q0 -27 -27 -27h-69q-27 0 -27 27v1257q0 27 27 27h69q27 0 27 -27v-465q108 144 311 144zM780 1538v-49q0 -27 -26 -27h-422q-27 0 -27 27v49
q0 27 27 27h422q26 0 26 -27z" />
    <glyph glyph-name="Itilde" unicode="&#x128;" 
d="M604 1196v-1081h246q27 0 27 -27v-61q0 -27 -27 -27h-612q-27 0 -27 27v61q0 27 27 27h243v1081h-243q-27 0 -27 27v61q0 27 27 27h612q27 0 27 -27v-61q0 -27 -27 -27h-246zM409.5 1548q-49.5 0 -79.5 -47q-16 -23 -35 -14l-25 8q-27 10 -14 35q53 115 166 115
q68 0 149 -58q57 -45 107 -45t78 49q16 23 35 15l22 -9q31 -8 16 -34q-53 -115 -163 -115q-70 0 -152 57q-55 43 -104.5 43z" />
    <glyph glyph-name="itilde" unicode="&#x129;" 
d="M604 115h240q27 0 26 -27v-61q0 -27 -26 -27h-602q-27 0 -27 27v61q0 27 27 27h239v712h-239q-27 0 -27 27v61q0 27 27 27h336q27 0 26 -27v-800zM409.5 1210q-49.5 0 -79.5 -47q-16 -23 -35 -14l-25 8q-27 10 -14 35q53 115 166 115q68 0 149 -58q57 -45 107 -45t78 49
q16 23 35 15l22 -8q31 -8 16 -35q-53 -115 -163 -115q-70 0 -152 57q-55 43 -104.5 43z" />
    <glyph glyph-name="Imacron" unicode="&#x12a;" 
d="M604 1196v-1081h246q27 0 27 -27v-61q0 -27 -27 -27h-612q-27 0 -27 27v61q0 27 27 27h243v1081h-243q-27 0 -27 27v61q0 27 27 27h612q27 0 27 -27v-61q0 -27 -27 -27h-246zM780 1538v-49q0 -27 -26 -27h-422q-27 0 -27 27v49q0 27 27 27h422q26 0 26 -27z" />
    <glyph glyph-name="imacron" unicode="&#x12b;" 
d="M604 115h240q27 0 26 -27v-61q0 -27 -26 -27h-602q-27 0 -27 27v61q0 27 27 27h239v712h-239q-27 0 -27 27v61q0 27 27 27h336q27 0 26 -27v-800zM780 1200v-49q0 -27 -26 -27h-422q-27 0 -27 27v49q0 27 27 27h422q26 0 26 -27z" />
    <glyph glyph-name="Ibreve" unicode="&#x12c;" 
d="M604 1196v-1081h246q27 0 27 -27v-61q0 -27 -27 -27h-612q-27 0 -27 27v61q0 27 27 27h243v1081h-243q-27 0 -27 27v61q0 27 27 27h612q27 0 27 -27v-61q0 -27 -27 -27h-246zM546 1423q-171 0 -251 158q-8 16 -8 33v14q0 27 26 27h13q20 0 32 -19q66 -116 188 -116
t179 114q12 20 33 21h12q27 0 27 -27v-14q0 -10 -4 -27q-76 -164 -247 -164z" />
    <glyph glyph-name="ibreve" unicode="&#x12d;" 
d="M604 115h240q27 0 26 -27v-61q0 -27 -26 -27h-602q-27 0 -27 27v61q0 27 27 27h239v712h-239q-27 0 -27 27v61q0 27 27 27h336q27 0 26 -27v-800zM546 1085q-171 0 -251 158q-8 16 -8 33v14q0 27 26 27h13q20 0 32 -19q66 -116 188 -116t179 114q12 20 33 21h12
q27 0 27 -27v-14q0 -10 -4 -27q-76 -164 -247 -164z" />
    <glyph glyph-name="Iogonek" unicode="&#x12e;" 
d="M604 1196v-1081h246q27 0 27 -27v-63q0 -25 -25 -31q-104 -29 -104 -94q0 -45 53 -45h49q27 0 27 -27v-27q0 -27 -25 -28q-61 -4 -99 -4t-70 29.5t-32 76.5q0 78 68 125h-481q-27 0 -27 27v61q0 27 27 27h243v1081h-243q-27 0 -27 27v61q0 27 27 27h612q27 0 27 -27v-61
q0 -27 -27 -27h-246z" />
    <glyph glyph-name="iogonek" unicode="&#x12f;" 
d="M870 88v-63q0 -25 -24 -31q-104 -29 -105 -94q0 -45 54 -45h49q27 0 26 -27v-27q0 -27 -24 -28q-61 -4 -99 -4t-70 29.5t-32 76.5q0 78 68 125h-471q-27 0 -27 27v61q0 27 27 27h239v712h-239q-27 0 -27 27v61q0 27 27 27h336q27 0 26 -27v-800h240q26 0 26 -27z
M618 1262v-97q0 -27 -26 -26h-98q-27 0 -27 26v97q0 27 27 26h98q26 1 26 -26z" />
    <glyph glyph-name="Idotaccent" unicode="&#x130;" 
d="M604 1196v-1081h246q27 0 27 -27v-61q0 -27 -27 -27h-612q-27 0 -27 27v61q0 27 27 27h243v1081h-243q-27 0 -27 27v61q0 27 27 27h612q27 0 27 -27v-61q0 -27 -27 -27h-246zM618 1599v-96q0 -27 -26 -26h-98q-27 0 -27 26v96q0 27 27 27h98q26 0 26 -27z" />
    <glyph glyph-name="dotlessi" unicode="&#x131;" 
d="M604 115h240q27 0 26 -27v-61q0 -27 -26 -27h-602q-27 0 -27 27v61q0 27 27 27h239v712h-239q-27 0 -27 27v61q0 27 27 27h336q27 0 26 -27v-800z" />
    <glyph glyph-name="IJ" unicode="&#x132;" 
d="M573 1311h351q27 0 26 -27v-969q0 -156 -75.5 -245.5t-211 -89.5t-209 89t-73.5 246v35q0 27 27 27h59q27 0 27 -27v-39q0 -102 45 -160.5t124.5 -58.5t123.5 58.5t44 160.5v887h-258q-27 0 -26 27v59q-1 27 26 27zM135 27v1257q0 27 27 27h65q27 0 27 -27v-1257
q0 -27 -27 -27h-65q-27 0 -27 27z" />
    <glyph glyph-name="ij" unicode="&#x133;" 
d="M829 915v-909q0 -133 -59 -205.5t-174 -72.5q-78 0 -176 36q-25 8 -14 35l16 47q8 25 35 15q61 -25 125 -25t94.5 39t30.5 129v911q0 27 26 27h70q26 0 26 -27zM379 915v-888q0 -27 -27 -27h-69q-27 0 -27 27v888q0 27 27 27h69q27 0 27 -27zM850 1266v-109
q0 -27 -27 -27h-108q-27 0 -27 27v109q0 27 27 26h108q27 1 27 -26zM399 1266v-109q0 -27 -26 -27h-109q-27 0 -26 27v109q0 27 26 26h109q26 1 26 -26z" />
    <glyph glyph-name="Jcircumflex" unicode="&#x134;" 
d="M387 1327h516q27 0 27 -27v-952q0 -178 -96 -273t-290 -95t-291 96t-97 272v2q0 27 26 27h70q27 0 27 -27v-8q0 -248 264 -248t264 248v870h-420q-27 0 -27 27v61q0 27 27 27zM444 1407h-16q-27 0 -27 27v12q0 18 15 33l174 176q14 14 33 14h39q18 0 32 -14l176 -176
q14 -14 15 -33v-12q0 -27 -27 -27h-18q-16 0 -33 12l-164 142l-166 -142q-16 -12 -33 -12z" />
    <glyph glyph-name="jcircumflex" unicode="&#x135;" 
d="M326 854v61q0 27 26 27h336q27 0 27 -27v-892q0 -133 -70 -211t-201 -78q-76 0 -221 39q-25 10 -16 32l14 52q8 25 33 18q111 -33 186 -33q152 0 152 174v811h-240q-26 0 -26 27zM895 1108v-12q0 -27 -27 -27h-18q-16 0 -33 12l-164 142l-166 -142q-16 -12 -32 -12h-17
q-27 0 -26 27v12q0 18 14 33l174 176q14 14 33 14h39q19 0 33 -14l176 -176q14 -14 14 -33z" />
    <glyph glyph-name="Kcommaaccent" unicode="&#x136;" horiz-adv-x="1087" 
d="M467 -188v69q0 27 27 27h88q27 0 26 -27v-37q0 -8 -4 -32l-35 -111q-6 -23 -28 -23h-6q-29 0 -23 29l14 78h-32q-27 0 -27 27zM930 1284v-24q0 -18 -8 -33l-338 -561l338 -576q8 -14 8 -33v-30q0 -27 -27 -27h-49q-23 0 -31 18l-344 590h-200v-581q0 -27 -27 -27h-70
q-27 0 -26 27v1257q0 27 26 27h70q27 0 27 -27v-561h200l342 569q10 18 31 19h51q27 0 27 -27z" />
    <glyph glyph-name="kcommaaccent" unicode="&#x137;" 
d="M461 -188v69q0 27 26 27h88q27 0 27 -27v-37q0 -8 -4 -32l-35 -111q-6 -23 -28 -23h-7q-29 0 -22 29l14 78h-33q-26 0 -26 27zM913 915v-14q0 -16 -12 -33l-354 -393l354 -395q12 -16 12 -33v-20q0 -27 -26 -27h-45q-20 0 -33 14l-360 402h-154v-389q0 -27 -27 -27h-69
q-27 0 -27 27v1257q0 27 27 27h69q27 0 27 -27v-754h151l361 398q12 14 33 14h47q26 0 26 -27z" />
    <glyph glyph-name="kgreenlandic" unicode="&#x138;" 
d="M913 915v-14q0 -16 -12 -33l-354 -393l354 -395q12 -16 12 -33v-20q0 -27 -26 -27h-45q-20 0 -33 14l-360 402h-154v-389q0 -27 -27 -27h-69q-27 0 -27 27v888q0 27 27 27h69q27 0 27 -27v-385h151l361 398q12 14 33 14h47q26 0 26 -27z" />
    <glyph glyph-name="Lacute" unicode="&#x139;" 
d="M313 115h557q27 0 27 -27v-61q0 -27 -27 -27h-653q-27 0 -27 27v1257q0 27 27 27h70q27 0 26 -27v-1169zM457 1407h-27q-27 0 -27 27v14q0 16 13 33l135 172q10 16 33 16h69q27 0 27 -27v-20q0 -19 -14 -33l-177 -170q-14 -12 -32 -12z" />
    <glyph glyph-name="lacute" unicode="&#x13a;" 
d="M604 115h240q27 0 26 -27v-61q0 -27 -26 -27h-602q-27 0 -27 27v61q0 27 27 27h239v1081h-239q-27 0 -27 27v61q0 27 27 27h336q27 0 26 -27v-1169zM457 1407h-27q-27 0 -27 27v14q0 16 13 33l135 172q10 16 33 16h69q27 0 27 -27v-20q0 -19 -14 -33l-177 -170
q-14 -12 -32 -12z" />
    <glyph glyph-name="Lcommaaccent" unicode="&#x13b;" 
d="M471 -188v69q0 27 27 27h88q27 0 26 -27v-37q0 -8 -4 -32l-35 -111q-6 -23 -28 -23h-6q-29 0 -23 29l14 78h-32q-27 0 -27 27zM313 115h557q27 0 27 -27v-61q0 -27 -27 -27h-653q-27 0 -27 27v1257q0 27 27 27h70q27 0 26 -27v-1169z" />
    <glyph glyph-name="lcommaaccent" unicode="&#x13c;" 
d="M471 -188v69q0 27 27 27h88q27 0 26 -27v-37q0 -8 -4 -32l-35 -111q-6 -23 -28 -23h-6q-29 0 -23 29l14 78h-32q-27 0 -27 27zM604 115h240q27 0 26 -27v-61q0 -27 -26 -27h-602q-27 0 -27 27v61q0 27 27 27h239v1081h-239q-27 0 -27 27v61q0 27 27 27h336q27 0 26 -27
v-1169z" />
    <glyph glyph-name="Lcaron" unicode="&#x13d;" 
d="M561 1190q-27 0 -26 27v67q0 27 26 27h88q27 0 27 -27v-37q0 -8 -4 -33l-35 -110q-6 -23 -29 -23h-6q-29 0 -22 29l14 80h-33zM313 115h557q27 0 27 -27v-61q0 -27 -27 -27h-653q-27 0 -27 27v1257q0 27 27 27h70q27 0 26 -27v-1169z" />
    <glyph glyph-name="lcaron" unicode="&#x13e;" 
d="M741 1190q-27 0 -26 27v67q0 27 26 27h88q27 0 27 -27v-37q0 -8 -4 -33l-37 -110q-6 -23 -29 -23h-6q-29 0 -22 29l14 80h-31zM604 115h240q27 0 26 -27v-61q0 -27 -26 -27h-602q-27 0 -27 27v61q0 27 27 27h239v1081h-239q-27 0 -27 27v61q0 27 27 27h336q27 0 26 -27
v-1169z" />
    <glyph glyph-name="Ldot" unicode="&#x13f;" 
d="M877 741v-98q0 -27 -27 -27h-98q-27 0 -27 27v98q0 27 27 27h98q27 0 27 -27zM313 115h557q27 0 27 -27v-61q0 -27 -27 -27h-653q-27 0 -27 27v1257q0 27 27 27h70q27 0 26 -27v-1169z" />
    <glyph glyph-name="ldot" unicode="&#x140;" 
d="M1036 741h99q27 0 26 -26v-97q0 -27 -26 -26h-99q-27 0 -26 26v97q-1 26 26 26zM604 115h240q27 0 26 -27v-61q0 -27 -26 -27h-602q-27 0 -27 27v61q0 27 27 27h239v1081h-239q-27 0 -27 27v61q0 27 27 27h336q27 0 26 -27v-1169z" />
    <glyph glyph-name="Lslash" unicode="&#x141;" 
d="M313 115h557q27 0 27 -27v-61q0 -27 -27 -27h-653q-27 0 -27 27v579l-86 -22q-31 -10 -30 22v53q0 23 22 29l94 25v571q0 27 27 27h70q27 0 26 -27v-539l183 50q31 10 30 -23v-53q0 -23 -22 -29l-191 -51v-524z" />
    <glyph glyph-name="lslash" unicode="&#x142;" 
d="M604 115h240q27 0 26 -27v-61q0 -27 -26 -27h-602q-27 0 -27 27v61q0 27 27 27h239v503l-133 -34q-31 -10 -31 22v53q0 23 23 29l141 37v471h-239q-27 0 -27 27v61q0 27 27 27h336q27 0 26 -27v-524l133 35q31 10 31 -23v-53q0 -23 -23 -29l-141 -37v-538z" />
    <glyph glyph-name="Nacute" unicode="&#x143;" 
d="M834 1311h69q27 0 27 -27v-1257q0 -27 -27 -27h-45q-23 0 -31 18l-548 1022v-1013q0 -27 -27 -27h-70q-27 0 -26 27v1257q0 27 26 27h45q23 0 31 -19l549 -1022v1014q0 27 27 27zM457 1407h-27q-27 0 -27 27v14q0 16 13 33l135 172q10 16 33 16h69q27 0 27 -27v-20
q0 -19 -14 -33l-177 -170q-14 -12 -32 -12z" />
    <glyph glyph-name="nacute" unicode="&#x144;" 
d="M600 963q154 0 237 -86t83 -254v-596q0 -27 -27 -27h-70q-27 0 -26 27v591q0 229 -211 230q-125 0 -211 -70.5t-86 -185.5v-565q0 -27 -27 -27h-69q-27 0 -27 27v888q0 27 27 27h49q25 0 28 -24l15 -105q49 70 133 110t182 40zM463 1069h-27q-27 0 -26 27v14q0 16 12 33
l135 172q10 16 33 16h69q27 0 27 -26v-21q0 -19 -14 -33l-176 -170q-14 -12 -33 -12z" />
    <glyph glyph-name="Ncommaaccent" unicode="&#x145;" 
d="M471 -188v69q0 27 27 27h88q27 0 26 -27v-37q0 -8 -4 -32l-35 -111q-6 -23 -28 -23h-6q-29 0 -23 29l14 78h-32q-27 0 -27 27zM834 1311h69q27 0 27 -27v-1257q0 -27 -27 -27h-45q-23 0 -31 18l-548 1022v-1013q0 -27 -27 -27h-70q-27 0 -26 27v1257q0 27 26 27h45
q23 0 31 -19l549 -1022v1014q0 27 27 27z" />
    <glyph glyph-name="ncommaaccent" unicode="&#x146;" 
d="M471 -188v69q0 27 27 27h88q27 0 26 -27v-37q0 -8 -4 -32l-35 -111q-6 -23 -28 -23h-6q-29 0 -23 29l14 78h-32q-27 0 -27 27zM600 963q154 0 237 -86t83 -254v-596q0 -27 -27 -27h-70q-27 0 -26 27v591q0 229 -211 230q-125 0 -211 -70.5t-86 -185.5v-565q0 -27 -27 -27
h-69q-27 0 -27 27v888q0 27 27 27h49q25 0 28 -24l15 -105q49 70 133 110t182 40z" />
    <glyph glyph-name="Ncaron" unicode="&#x147;" 
d="M834 1311h69q27 0 27 -27v-1257q0 -27 -27 -27h-45q-23 0 -31 18l-548 1022v-1013q0 -27 -27 -27h-70q-27 0 -26 27v1257q0 27 26 27h45q23 0 31 -19l549 -1022v1014q0 27 27 27zM561 1407h-39q-18 0 -33 14l-174 176q-14 14 -14 33v12q0 27 27 27h16q16 0 33 -12
l166 -141l164 141q14 12 32 12h19q27 0 26 -27v-12q0 -18 -14 -33l-176 -176q-15 -14 -33 -14z" />
    <glyph glyph-name="ncaron" unicode="&#x148;" 
d="M600 963q154 0 237 -86t83 -254v-596q0 -27 -27 -27h-70q-27 0 -26 27v591q0 229 -211 230q-125 0 -211 -70.5t-86 -185.5v-565q0 -27 -27 -27h-69q-27 0 -27 27v888q0 27 27 27h49q25 0 28 -24l15 -105q49 70 133 110t182 40zM565 1069h-39q-18 0 -32 14l-175 177
q-14 14 -14 32v13q0 27 27 26h16q16 0 33 -12l166 -141l164 141q14 12 32 12h19q27 0 26 -26v-13q0 -18 -14 -32l-176 -177q-15 -14 -33 -14z" />
    <glyph glyph-name="napostrophe" unicode="&#x149;" 
d="M600 963q154 0 237 -86t83 -254v-596q0 -27 -27 -27h-70q-27 0 -26 27v591q0 229 -211 230q-125 0 -211 -70.5t-86 -185.5v-565q0 -27 -27 -27h-69q-27 0 -27 27v888q0 27 27 27h49q25 0 28 -24l15 -105q49 70 133 110t182 40zM199 1092h-6q-29 0 -23 28l14 80h-32
q-27 0 -27 27v67q0 27 27 27h88q27 0 26 -27v-37q0 -8 -4 -32l-35 -111q-5 -22 -28 -22z" />
    <glyph glyph-name="Eng" unicode="&#x14a;" 
d="M834 1311h69q27 0 27 -27v-1278q0 -133 -59.5 -205.5t-174.5 -72.5q-80 0 -178 36q-25 8 -14 35l16 47q8 25 35 15q63 -25 127 -25t94.5 39t30.5 129v53l-528 983v-1013q0 -27 -27 -27h-70q-27 0 -26 27v1257q0 27 26 27h45q23 0 31 -19l549 -1022v1014q0 27 27 27z" />
    <glyph glyph-name="eng" unicode="&#x14b;" 
d="M600 963q154 0 237 -86t83 -254v-617q0 -133 -59.5 -205.5t-174.5 -72.5q-80 0 -178 36q-25 8 -14 35l16 47q8 25 35 15q66 -25 129 -25t93 39t30 129v614q0 229 -211 230q-125 0 -211 -70.5t-86 -185.5v-565q0 -27 -27 -27h-69q-27 0 -27 27v888q0 27 27 27h49
q25 0 28 -24l15 -105q49 70 133 110t182 40z" />
    <glyph glyph-name="Omacron" unicode="&#x14c;" 
d="M543 1217q-264 0 -264 -248v-627q0 -248 264 -248t264 248v627q0 248 -264 248zM544 1331q194 0 290 -95t96 -271v-617q0 -178 -96 -273t-290 -95t-291 96t-97 272v617q0 176 97 271t291 95zM780 1538v-49q0 -27 -26 -27h-422q-27 0 -27 27v49q0 27 27 27h422
q26 0 26 -27z" />
    <glyph glyph-name="omacron" unicode="&#x14d;" 
d="M543 848q-131 0 -197.5 -64.5t-66.5 -183.5v-258q0 -119 66.5 -183.5t197.5 -64.5q264 0 264 248v258q0 248 -264 248zM544 963q194 0 290 -95.5t96 -271.5v-248q0 -178 -96 -273t-290 -95t-291 96t-97 272v248q0 176 97 271.5t291 95.5zM780 1200v-49q0 -27 -26 -27
h-422q-27 0 -27 27v49q0 27 27 27h422q26 0 26 -27z" />
    <glyph glyph-name="Obreve" unicode="&#x14e;" 
d="M543 1217q-264 0 -264 -248v-627q0 -248 264 -248t264 248v627q0 248 -264 248zM544 1331q194 0 290 -95t96 -271v-617q0 -178 -96 -273t-290 -95t-291 96t-97 272v617q0 176 97 271t291 95zM797 1628v-14q0 -14 -6 -33q-80 -158 -248 -158t-248 158q-8 16 -8 33v14
q0 27 26 27h13q20 0 32 -19q66 -116 188 -116t179 114q12 20 33 21h12q27 0 27 -27z" />
    <glyph glyph-name="obreve" unicode="&#x14f;" 
d="M543 848q-131 0 -197.5 -64.5t-66.5 -183.5v-258q0 -119 66.5 -183.5t197.5 -64.5q264 0 264 248v258q0 248 -264 248zM544 963q194 0 290 -95.5t96 -271.5v-248q0 -178 -96 -273t-290 -95t-291 96t-97 272v248q0 176 97 271.5t291 95.5zM799 1290v-14q0 -14 -6 -33
q-80 -158 -248 -158t-248 158q-8 16 -8 33v14q0 27 26 27h13q20 0 32 -19q66 -116 188 -116t179 114q12 20 33 21h12q27 0 27 -27z" />
    <glyph glyph-name="Ohungarumlaut" unicode="&#x150;" 
d="M543 1217q-264 0 -264 -248v-627q0 -248 264 -248t264 248v627q0 248 -264 248zM544 1331q194 0 290 -95t96 -271v-617q0 -178 -96 -273t-290 -95t-291 96t-97 272v617q0 176 97 271t291 95zM807 1642v-20q0 -18 -14 -33l-177 -170q-14 -12 -32 -12h-17q-27 0 -26 27v14
q0 16 12 33l135 172q10 16 33 16h59q27 0 27 -27zM543 1642v-20q0 -18 -15 -33l-176 -170q-14 -12 -33 -12h-16q-27 0 -27 27v14q0 16 13 33l137 172q10 16 33 16h57q27 0 27 -27z" />
    <glyph glyph-name="ohungarumlaut" unicode="&#x151;" 
d="M543 848q-131 0 -197.5 -64.5t-66.5 -183.5v-258q0 -119 66.5 -183.5t197.5 -64.5q264 0 264 248v258q0 248 -264 248zM544 963q194 0 290 -95.5t96 -271.5v-248q0 -178 -96 -273t-290 -95t-291 96t-97 272v248q0 176 97 271.5t291 95.5zM848 1305v-21q0 -18 -14 -33
l-177 -170q-14 -12 -32 -12h-17q-27 0 -26 27v14q0 16 12 33l135 172q10 16 33 16h59q27 1 27 -26zM584 1305v-21q0 -18 -15 -33l-176 -170q-14 -12 -33 -12h-16q-27 0 -27 27v14q0 16 13 33l137 172q10 16 33 16h57q27 1 27 -26z" />
    <glyph glyph-name="OE" unicode="&#x152;" 
d="M539 115v1081q-260 0 -260 -248v-586q0 -247 260 -247zM655 1196v-483h209q27 0 27 -27v-61q0 -27 -27 -27h-209v-483h289q27 0 27 -27v-61q0 -27 -27 -27h-405q-193 0 -288 95t-95 274v575q0 367 383 367h405q27 0 27 -27v-61q0 -27 -27 -27h-289z" />
    <glyph glyph-name="oe" unicode="&#x153;" 
d="M729 850q-84 0 -116.5 -60.5t-32.5 -187.5v-47h299v55q0 240 -150 240zM359 92q87 0 124 84q-18 74 -18 172v248q0 90 16 166q-35 88 -122 88t-119.5 -60.5t-32.5 -187.5v-262q0 -127 32.5 -187.5t119.5 -60.5zM92 596q0 367 251 367q128 0 198 -76q63 76 192 76
t194.5 -95.5t65.5 -269.5v-113q0 -27 -26 -26h-387v-119q0 -127 32.5 -187.5t108.5 -60.5q142 0 158 170q0 27 26 27h62q27 0 26 -27q-8 -123 -75.5 -202.5t-190.5 -79.5t-186 75q-72 -75 -199 -75q-250 1 -250 368v248z" />
    <glyph glyph-name="Racute" unicode="&#x154;" 
d="M279 711h264q264 0 264 233v17q0 236 -264 235h-264v-485zM930 954q0 -279 -242 -342l236 -526q6 -18 6 -33v-26q0 -27 -27 -27h-57q-23 0 -31 20l-254 576h-282v-569q0 -27 -27 -27h-70q-27 0 -26 27v1257q0 27 26 27h361q195 0 291 -92.5t96 -264.5zM457 1407h-27
q-27 0 -27 27v14q0 16 13 33l135 172q10 16 33 16h69q27 0 27 -27v-20q0 -19 -14 -33l-177 -170q-14 -12 -32 -12z" />
    <glyph glyph-name="racute" unicode="&#x155;" 
d="M645 963q156 0 238 -84t82 -248v-33q0 -27 -27 -27h-70q-27 0 -26 27v33q0 217 -211 217q-125 0 -210 -70.5t-85 -185.5v-565q0 -27 -27 -27h-69q-27 0 -27 27v888q0 27 27 27h47q25 0 28 -24l17 -105q104 150 313 150zM481 1069h-26q-27 0 -27 27v14q0 16 12 33l135 172
q10 16 33 16h70q27 0 27 -26v-21q-1 -19 -15 -33l-176 -170q-14 -12 -33 -12z" />
    <glyph glyph-name="Rcommaaccent" unicode="&#x156;" 
d="M471 -188v69q0 27 27 27h88q27 0 26 -27v-37q0 -8 -4 -32l-35 -111q-6 -23 -28 -23h-6q-29 0 -23 29l14 78h-32q-27 0 -27 27zM279 711h264q264 0 264 233v17q0 236 -264 235h-264v-485zM930 954q0 -279 -242 -342l236 -526q6 -18 6 -33v-26q0 -27 -27 -27h-57
q-23 0 -31 20l-254 576h-282v-569q0 -27 -27 -27h-70q-27 0 -26 27v1257q0 27 26 27h361q195 0 291 -92.5t96 -264.5z" />
    <glyph glyph-name="rcommaaccent" unicode="&#x157;" 
d="M471 -188v69q0 27 27 27h88q27 0 26 -27v-37q0 -8 -4 -32l-35 -111q-6 -23 -28 -23h-6q-29 0 -23 29l14 78h-32q-27 0 -27 27zM645 963q156 0 238 -84t82 -248v-33q0 -27 -27 -27h-70q-27 0 -26 27v33q0 217 -211 217q-125 0 -210 -70.5t-85 -185.5v-565q0 -27 -27 -27
h-69q-27 0 -27 27v888q0 27 27 27h47q25 0 28 -24l17 -105q104 150 313 150z" />
    <glyph glyph-name="Rcaron" unicode="&#x158;" 
d="M279 711h264q264 0 264 233v17q0 236 -264 235h-264v-485zM930 954q0 -279 -242 -342l236 -526q6 -18 6 -33v-26q0 -27 -27 -27h-57q-23 0 -31 20l-254 576h-282v-569q0 -27 -27 -27h-70q-27 0 -26 27v1257q0 27 26 27h361q195 0 291 -92.5t96 -264.5zM561 1407h-39
q-18 0 -33 14l-174 176q-14 14 -14 33v12q0 27 27 27h16q16 0 33 -12l166 -141l164 141q14 12 32 12h19q27 0 26 -27v-12q0 -18 -14 -33l-176 -176q-15 -14 -33 -14z" />
    <glyph glyph-name="rcaron" unicode="&#x159;" 
d="M645 963q156 0 238 -84t82 -248v-33q0 -27 -27 -27h-70q-27 0 -26 27v33q0 217 -211 217q-125 0 -210 -70.5t-85 -185.5v-565q0 -27 -27 -27h-69q-27 0 -27 27v888q0 27 27 27h47q25 0 28 -24l17 -105q104 150 313 150zM584 1069h-39q-18 0 -33 14l-174 177
q-14 14 -14 32v13q0 27 26 26h17q18 0 32 -12l166 -141l164 141q16 12 33 12h18q27 0 27 -26v-13q0 -18 -14 -32l-177 -177q-14 -14 -32 -14z" />
    <glyph glyph-name="Sacute" unicode="&#x15a;" 
d="M540 1331q187 0 284.5 -89t105.5 -255q0 -27 -27 -26h-69q-27 0 -27 26q-16 229 -264 230q-131 0 -197.5 -59.5t-66.5 -158t67.5 -162t162.5 -102.5t190.5 -82t163 -126t67.5 -205q0 -160 -98.5 -251t-285.5 -91t-284.5 89t-105.5 255q0 27 26 26h70q27 0 27 -26
q16 -229 266 -230q131 0 196.5 59.5t65.5 158.5t-67.5 163t-163 102.5t-190.5 81.5t-162.5 126t-67.5 223.5t98.5 231.5t285.5 91zM680 1642v-20q0 -18 -14 -33l-177 -170q-14 -12 -32 -12h-27q-27 0 -27 27v14q0 16 13 33l135 172q10 16 33 16h69q27 0 27 -27z" />
    <glyph glyph-name="sacute" unicode="&#x15b;" 
d="M538 963q165 0 258 -73t103 -198q4 -27 -25 -26h-69q-27 0 -29 24q-10 76 -72.5 118t-167.5 42t-167 -43t-62 -117q0 -76 80 -112q52 -23 142.5 -44.5t129.5 -33.5q123 -36 171 -82q72 -69 71.5 -179t-94.5 -184.5t-259 -74.5t-259 72.5t-105 197.5q0 27 27 26h70
q27 0 28 -24q10 -76 72.5 -118t168 -42t168 44t62.5 116t-64.5 106.5t-157.5 54t-132 31.5q-116 34 -169 80q-73 64 -73 176.5t94.5 187.5t259.5 75zM680 1305v-21q0 -18 -14 -33l-177 -170q-14 -12 -32 -12h-27q-27 0 -27 27v14q0 16 13 33l135 172q10 16 33 16h69
q27 1 27 -26z" />
    <glyph glyph-name="Scircumflex" unicode="&#x15c;" 
d="M279 999q0 -98 67.5 -161.5t162.5 -102.5t190.5 -82t163 -126t67.5 -205q0 -160 -98.5 -251t-285.5 -91t-284.5 89t-105.5 255q0 27 26 26h70q27 0 27 -26q16 -229 266 -230q131 0 196.5 59.5t65.5 158.5t-67.5 163t-163 102.5t-190.5 81.5t-162.5 126t-67.5 223.5
t98 231.5t285.5 91t285 -89t105.5 -255q0 -27 -27 -26h-69q-27 0 -27 26q-16 229 -264 230q-131 0 -197.5 -60t-66.5 -158zM344 1407h-16q-27 0 -27 27v12q0 18 14 33l174 176q14 14 33 14h39q18 0 33 -14l176 -176q14 -14 14 -33v-12q0 -27 -26 -27h-19q-18 0 -32 12
l-164 142l-166 -142q-14 -12 -33 -12z" />
    <glyph glyph-name="scircumflex" unicode="&#x15d;" 
d="M548 -20q-165 0 -259 72.5t-105 197.5q0 27 27 26h70q27 0 28 -24q10 -76 72.5 -118t168 -42t168 44t62.5 116t-64.5 106.5t-157.5 54t-132 31.5q-116 34 -169 80q-73 64 -73 176.5t94.5 187.5t259.5 75t258 -73t103 -198q4 -27 -25 -26h-69q-27 0 -29 24
q-10 76 -72.5 118t-167.5 42t-167 -43t-62 -117q0 -76 80 -112q62 -28 147.5 -47t124.5 -31q123 -36 171 -82q72 -69 71.5 -179t-94.5 -184.5t-259 -74.5zM344 1069h-16q-27 0 -27 27v12q0 18 14 33l174 176q14 14 33 14h39q18 0 33 -14l176 -176q14 -14 14 -33v-12
q0 -27 -26 -27h-19q-18 0 -32 12l-164 142l-166 -142q-14 -12 -33 -12z" />
    <glyph glyph-name="Scedilla" unicode="&#x15e;" 
d="M279 999q0 -98 67.5 -161.5t162.5 -102.5t190.5 -82t163 -126t67.5 -213.5t-75 -219t-220 -108.5q43 -35 43 -105v-16q0 -129 -137 -129q-115 0 -131 90q-4 27 26 27h31q14 0 27.5 -18.5t46.5 -18.5q51 0 51 45v26q0 43 -51 43h-39q-27 0 -27 27v27q-303 31 -319 340
q0 27 26 26h70q27 0 27 -26q16 -229 266 -230q131 0 196.5 59.5t65.5 158.5t-67.5 163t-163 102.5t-190.5 81.5t-162.5 126t-67.5 223.5t98 231.5t285.5 91t285 -89t105.5 -255q0 -27 -27 -26h-69q-27 0 -27 26q-16 229 -264 230q-131 0 -197.5 -60t-66.5 -158z" />
    <glyph glyph-name="scedilla" unicode="&#x15f;" 
d="M678 -119v-16q0 -129 -137 -129q-115 0 -131 90q-4 27 26 27h31q14 0 27.5 -18.5t46.5 -18.5q51 0 51 45v26q0 43 -51 43h-39q-27 0 -27 27v27q-131 14 -205.5 84.5t-85.5 181.5q0 27 27 26h70q27 0 28 -24q10 -76 72.5 -118t168 -42t168 44t62.5 116t-64.5 106.5
t-157.5 54t-132 31.5q-116 34 -169 80q-73 64 -73 176.5t94.5 187.5t259.5 75t258 -73t103 -198q4 -27 -25 -26h-69q-27 0 -29 24q-10 76 -72.5 118t-167.5 42t-167 -43t-62 -117q0 -76 80 -112q62 -28 147.5 -47t124.5 -31q123 -36 171 -82q72 -69 71.5 -170.5t-70 -171.5
t-196.5 -90q43 -35 43 -105z" />
    <glyph glyph-name="Scaron" unicode="&#x160;" 
d="M279 999q0 -98 67.5 -161.5t162.5 -102.5t190.5 -82t163 -126t67.5 -205q0 -160 -98.5 -251t-285.5 -91t-284.5 89t-105.5 255q0 27 26 26h70q27 0 27 -26q16 -229 266 -230q131 0 196.5 59.5t65.5 158.5t-67.5 163t-163 102.5t-190.5 81.5t-162.5 126t-67.5 223.5
t98 231.5t285.5 91t285 -89t105.5 -255q0 -27 -27 -26h-69q-27 0 -27 26q-16 229 -264 230q-131 0 -197.5 -60t-66.5 -158zM561 1407h-39q-18 0 -33 14l-174 176q-14 14 -14 33v12q0 27 27 27h16q16 0 33 -12l166 -141l164 141q14 12 32 12h19q27 0 26 -27v-12
q0 -18 -14 -33l-176 -176q-15 -14 -33 -14z" />
    <glyph glyph-name="scaron" unicode="&#x161;" 
d="M548 -20q-165 0 -259 72.5t-105 197.5q0 27 27 26h70q27 0 28 -24q10 -76 72.5 -118t168 -42t168 44t62.5 116t-64.5 106.5t-157.5 54t-132 31.5q-116 34 -169 80q-73 64 -73 176.5t94.5 187.5t259.5 75t258 -73t103 -198q4 -27 -25 -26h-69q-27 0 -29 24
q-10 76 -72.5 118t-167.5 42t-167 -43t-62 -117q0 -76 80 -112q62 -28 147.5 -47t124.5 -31q123 -36 171 -82q72 -69 71.5 -179t-94.5 -184.5t-259 -74.5zM561 1069h-39q-18 0 -33 14l-174 177q-14 14 -14 32v13q0 27 27 26h16q16 0 33 -12l166 -141l164 141q14 12 32 12h19
q27 0 26 -26v-13q0 -18 -14 -32l-176 -177q-15 -14 -33 -14z" />
    <glyph glyph-name="Tcedilla" unicode="&#x162;" 
d="M604 1196v-1190q82 -25 82 -125v-16q0 -129 -137 -129q-117 0 -133 90q-4 27 26 27h33q13 -1 27 -19t47 -18q51 0 51 45v26q0 43 -51 43h-41q-27 0 -27 27v1239h-336q-27 0 -26 27v61q0 27 26 27h797q27 0 27 -27v-61q0 -27 -27 -27h-338z" />
    <glyph glyph-name="tcedilla" unicode="&#x163;" 
d="M786 -119v-16q0 -129 -137 -129q-115 0 -131 90q-4 27 27 27h30q14 0 27.5 -18.5t46.5 -18.5q51 0 51 45v26q0 43 -51 43h-39q-27 0 -26 27v31q-84 20 -129 87.5t-45 174.5v577h-226q-27 0 -26 27v61q0 27 26 27h226v182q0 27 24 29l70 14q29 6 28 -24v-201h314
q27 0 26 -27v-61q0 -27 -26 -27h-314v-575q0 -160 134 -160q53 0 176 31q25 6 32 -19l17 -53q8 -25 -8 -31q-89 -24 -142 -32q45 -33 45 -107z" />
    <glyph glyph-name="Tcaron" unicode="&#x164;" 
d="M969 1284v-61q0 -27 -27 -27h-338v-1169q0 -27 -26 -27h-70q-27 0 -27 27v1169h-336q-27 0 -26 27v61q0 27 26 27h797q27 0 27 -27zM561 1407h-39q-18 0 -33 14l-174 176q-14 14 -14 33v12q0 27 27 27h16q16 0 33 -12l166 -141l164 141q14 12 32 12h19q27 0 26 -27v-12
q0 -18 -14 -33l-176 -176q-15 -14 -33 -14z" />
    <glyph glyph-name="tcaron" unicode="&#x165;" 
d="M410 250v577h-226q-27 0 -26 27v61q0 27 26 27h226v182q0 27 24 29l70 14q29 6 28 -24v-201h314q27 0 26 -27v-61q0 -27 -26 -27h-314v-575q0 -160 134 -160q53 0 176 31q24 6 32 -19l17 -53q8 -23 -17 -33q-137 -39 -236.5 -38.5t-163.5 72t-64 198.5zM758 1153
q-27 0 -27 27v69q0 27 27 27h88q27 0 26 -27v-37q0 -8 -4 -32l-37 -113q-6 -23 -28 -23h-4q-29 0 -25 29l14 80h-30z" />
    <glyph glyph-name="Tbar" unicode="&#x166;" 
d="M604 1196v-473h168q27 0 27 -27v-61q0 -27 -27 -27h-168v-581q0 -27 -26 -27h-70q-27 0 -27 27v581h-168q-27 0 -26 27v61q0 27 26 27h168v473h-336q-27 0 -26 27v61q0 27 26 27h797q27 0 27 -27v-61q0 -27 -27 -27h-338z" />
    <glyph glyph-name="tbar" unicode="&#x167;" 
d="M410 250v317h-226q-27 0 -26 27v55q0 27 26 27h226v151h-226q-27 0 -26 27v61q0 27 26 27h226v182q0 27 24 29l70 14q29 6 28 -24v-201h314q27 0 26 -27v-61q0 -27 -26 -27h-314v-151h314q27 0 26 -27v-55q0 -27 -26 -27h-314v-315q0 -160 134 -160q53 0 176 31
q24 6 32 -19l17 -53q8 -23 -17 -33q-137 -39 -236.5 -38.5t-163.5 72t-64 198.5z" />
    <glyph glyph-name="Utilde" unicode="&#x168;" 
d="M930 1284v-936q0 -178 -96 -273t-290 -95t-291 96t-97 272v936q0 27 26 27h70q27 0 27 -27v-942q0 -248 264 -248t264 248v942q0 27 27 27h69q27 0 27 -27zM422 1645q68 0 149 -58q57 -45 107 -45t78 49q16 23 35 15l22 -9q31 -8 16 -34q-53 -115 -163 -115
q-70 0 -152 57q-55 43 -104.5 43t-79.5 -47q-16 -23 -35 -14l-25 8q-27 10 -14 37q53 113 166 113z" />
    <glyph glyph-name="utilde" unicode="&#x169;" 
d="M823 942h70q27 0 27 -27v-888q0 -27 -27 -27h-47q-27 0 -29 25l-16 104q-104 -150 -314 -149q-156 0 -238.5 86t-82.5 253v596q0 27 27 27h69q27 0 27 -27v-591q0 -229 211 -230q125 0 211 71t86 185v565q-1 27 26 27zM409.5 1210q-49.5 0 -79.5 -47q-16 -23 -35 -14
l-25 8q-27 10 -14 35q53 115 166 115q68 0 149 -58q57 -45 107 -45t78 49q16 23 35 15l22 -8q31 -8 16 -35q-53 -115 -163 -115q-70 0 -152 57q-55 43 -104.5 43z" />
    <glyph glyph-name="Umacron" unicode="&#x16a;" 
d="M930 1284v-936q0 -178 -96 -273t-290 -95t-291 96t-97 272v936q0 27 26 27h70q27 0 27 -27v-942q0 -248 264 -248t264 248v942q0 27 27 27h69q27 0 27 -27zM780 1538v-49q0 -27 -26 -27h-422q-27 0 -27 27v49q0 27 27 27h422q26 0 26 -27z" />
    <glyph glyph-name="umacron" unicode="&#x16b;" 
d="M823 942h70q27 0 27 -27v-888q0 -27 -27 -27h-47q-27 0 -29 25l-16 104q-104 -150 -314 -149q-156 0 -238.5 86t-82.5 253v596q0 27 27 27h69q27 0 27 -27v-591q0 -229 211 -230q125 0 211 71t86 185v565q-1 27 26 27zM780 1200v-49q0 -27 -26 -27h-422q-27 0 -27 27v49
q0 27 27 27h422q26 0 26 -27z" />
    <glyph glyph-name="Ubreve" unicode="&#x16c;" 
d="M930 1284v-936q0 -178 -96 -273t-290 -95t-291 96t-97 272v936q0 27 26 27h70q27 0 27 -27v-942q0 -248 264 -248t264 248v942q0 27 27 27h69q27 0 27 -27zM797 1628v-14q0 -14 -6 -33q-80 -158 -248 -158t-248 158q-8 16 -8 33v14q0 27 26 27h13q20 0 32 -19
q66 -116 188 -116t179 114q12 20 33 21h12q27 0 27 -27z" />
    <glyph glyph-name="ubreve" unicode="&#x16d;" 
d="M823 942h70q27 0 27 -27v-888q0 -27 -27 -27h-47q-27 0 -29 25l-16 104q-104 -150 -314 -149q-156 0 -238.5 86t-82.5 253v596q0 27 27 27h69q27 0 27 -27v-591q0 -229 211 -230q125 0 211 71t86 185v565q-1 27 26 27zM546 1085q-171 0 -251 158q-8 16 -8 33v14
q0 27 26 27h13q20 0 32 -19q66 -116 188 -116t179 114q12 20 33 21h12q27 0 27 -27v-14q0 -10 -4 -27q-76 -164 -247 -164z" />
    <glyph glyph-name="Uring" unicode="&#x16e;" 
d="M930 1284v-936q0 -178 -96 -273t-290 -95t-291 96t-97 272v936q0 27 26 27h70q27 0 27 -27v-942q0 -248 264 -248t264 248v942q0 27 27 27h69q27 0 27 -27zM543 1661q-41 0 -65.5 -25.5t-24.5 -62.5t25.5 -62.5t64.5 -25.5t64.5 25.5t25.5 62.5t-24.5 62.5t-65.5 25.5z
M543 1741q80 0 126 -49.5t46 -121t-48.5 -118.5t-124 -47t-123.5 47t-48 118.5t46 121t126 49.5z" />
    <glyph glyph-name="uring" unicode="&#x16f;" 
d="M823 942h70q27 0 27 -27v-888q0 -27 -27 -27h-47q-27 0 -29 25l-16 104q-104 -150 -314 -149q-156 0 -238.5 86t-82.5 253v596q0 27 27 27h69q27 0 27 -27v-591q0 -229 211 -230q125 0 211 71t86 185v565q-1 27 26 27zM543 1323q-41 0 -65.5 -25.5t-24.5 -62.5
t25.5 -62.5t64.5 -25.5t64.5 25.5t25.5 62.5t-24.5 62.5t-65.5 25.5zM542.5 1067q-75.5 0 -123.5 47t-48 119t46 121t126 49t126 -49t46 -121t-48.5 -119t-124 -47z" />
    <glyph glyph-name="Uhungarumlaut" unicode="&#x170;" 
d="M930 1284v-936q0 -178 -96 -273t-290 -95t-291 96t-97 272v936q0 27 26 27h70q27 0 27 -27v-942q0 -248 264 -248t264 248v942q0 27 27 27h69q27 0 27 -27zM807 1642v-20q0 -18 -14 -33l-177 -170q-14 -12 -32 -12h-17q-27 0 -26 27v14q0 16 12 33l135 172q10 16 33 16
h59q27 0 27 -27zM543 1642v-20q0 -18 -15 -33l-176 -170q-14 -12 -33 -12h-16q-27 0 -27 27v14q0 16 13 33l137 172q10 16 33 16h57q27 0 27 -27z" />
    <glyph glyph-name="uhungarumlaut" unicode="&#x171;" 
d="M823 942h70q27 0 27 -27v-888q0 -27 -27 -27h-47q-27 0 -29 25l-16 104q-104 -150 -314 -149q-156 0 -238.5 86t-82.5 253v596q0 27 27 27h69q27 0 27 -27v-591q0 -229 211 -230q125 0 211 71t86 185v565q-1 27 26 27zM541 1096v14q0 16 12 33l135 172q10 16 33 16h59
q27 0 27 -26v-21q0 -18 -14 -33l-177 -170q-14 -12 -32 -12h-17q-26 0 -26 27zM319 1069h-16q-27 0 -27 27v14q0 16 13 33l137 172q10 16 33 16h57q27 0 27 -26v-21q-1 -19 -15 -33l-176 -170q-14 -12 -33 -12z" />
    <glyph glyph-name="Uogonek" unicode="&#x172;" 
d="M834 1311h69q27 0 27 -27v-936q0 -313 -283 -360q-113 -29 -112 -97q0 -45 53 -45h49q27 0 27 -26v-27q0 -27 -25 -29q-61 -4 -99 -4t-70 30t-32 88t54 104q-168 12 -252 107t-84 259v936q0 27 26 27h70q27 0 27 -27v-942q0 -248 264 -248t264 248v942q0 27 27 27z" />
    <glyph glyph-name="uogonek" unicode="&#x173;" 
d="M920 915v-890q0 -25 -25 -31q-104 -29 -104 -94q0 -45 53 -45h49q27 0 27 -27v-27q0 -27 -25 -28q-61 -4 -99 -4t-70 29.5t-32 76.5q0 104 123 156l-16 98q-104 -150 -314 -149q-156 0 -238.5 86t-82.5 253v596q0 27 27 27h69q27 0 27 -27v-591q0 -229 211 -230
q125 0 211 71t86 185v565q0 27 26 27h70q27 0 27 -27z" />
    <glyph glyph-name="Wcircumflex" unicode="&#x174;" 
d="M874 1311h64q31 0 27 -29l-115 -1257q-2 -25 -27 -25h-43q-23 0 -30 20l-207 560l-205 -560q-8 -20 -31 -20h-43q-23 0 -26 25l-117 1257q-4 29 26 29h66q25 0 27 -25l94 -995l162 432q8 20 30 20h31q23 0 31 -20l164 -434l96 997q3 25 26 25zM344 1407h-16q-27 0 -27 27
v12q0 18 14 33l174 176q14 14 33 14h39q18 0 33 -14l176 -176q14 -14 14 -33v-12q0 -27 -26 -27h-19q-18 0 -32 12l-164 142l-166 -142q-14 -12 -33 -12z" />
    <glyph glyph-name="wcircumflex" unicode="&#x175;" 
d="M872 942h66q29 0 25 -29l-111 -888q-4 -25 -29 -25h-45q-23 0 -30 20l-205 566l-205 -566q-8 -20 -31 -20h-43q-27 0 -28 25l-113 888q-4 29 24 29h66q25 0 29 -24l86 -664l174 475q8 20 30 21h21q23 0 31 -21l174 -475l86 664q3 24 28 24zM340 1069h-16q-27 0 -27 27v12
q0 18 14 33l174 176q14 14 33 14h39q18 0 33 -14l176 -176q14 -14 14 -33v-12q0 -27 -26 -27h-19q-18 0 -33 12l-163 142l-166 -142q-14 -12 -33 -12z" />
    <glyph glyph-name="Ycircumflex" unicode="&#x176;" 
d="M944 1284v-143q0 -18 -8 -33l-332 -573v-508q0 -27 -26 -27h-70q-27 0 -27 27v508l-331 573q-8 14 -9 33v143q0 27 27 27h70q27 0 26 -27v-129l279 -498l278 498v129q0 27 27 27h70q26 0 26 -27zM344 1407h-16q-27 0 -27 27v12q0 18 14 33l174 176q14 14 33 14h39
q18 0 33 -14l176 -176q14 -14 14 -33v-12q0 -27 -26 -27h-19q-18 0 -32 12l-164 142l-166 -142q-14 -12 -33 -12z" />
    <glyph glyph-name="ycircumflex" unicode="&#x177;" 
d="M838 942h69q27 0 27 -27v-94q0 -14 -6 -33l-424 -1013q-8 -20 -31 -21h-59q-14 0 -20.5 8.5t-0.5 22.5l90 223l-325 780q-6 18 -6 33v94q0 27 26 27h70q27 0 26 -27v-104l271 -661l266 661v104q0 27 27 27zM344 1069h-16q-27 0 -27 27v12q0 18 14 33l174 176q14 14 33 14
h39q18 0 33 -14l176 -176q14 -14 14 -33v-12q0 -27 -26 -27h-19q-18 0 -32 12l-164 142l-166 -142q-14 -12 -33 -12z" />
    <glyph glyph-name="Ydieresis" unicode="&#x178;" 
d="M944 1284v-143q0 -18 -8 -33l-332 -573v-508q0 -27 -26 -27h-70q-27 0 -27 27v508l-331 573q-8 14 -9 33v143q0 27 27 27h70q27 0 26 -27v-129l279 -498l278 498v129q0 27 27 27h70q26 0 26 -27zM786 1597v-96q0 -27 -26 -26h-96q-27 0 -27 26v96q0 27 27 27h96
q26 0 26 -27zM449 1597v-96q0 -27 -27 -26h-96q-27 0 -27 26v96q0 27 27 27h96q27 0 27 -27z" />
    <glyph glyph-name="Zacute" unicode="&#x179;" 
d="M186 1311h715q27 0 27 -27v-190q0 -16 -10 -33l-639 -848v-98h622q27 0 27 -27v-61q0 -27 -27 -27h-715q-27 0 -26 27v190q0 16 10 33l637 848v98h-621q-27 0 -26 27v61q-1 27 26 27zM457 1407h-27q-27 0 -27 27v14q0 16 13 33l135 172q10 16 33 16h69q27 0 27 -27v-20
q0 -19 -14 -33l-177 -170q-14 -12 -32 -12z" />
    <glyph glyph-name="zacute" unicode="&#x17a;" 
d="M201 942h686q27 0 26 -27v-149q0 -20 -14 -33l-606 -567v-51h594q27 0 26 -27v-61q0 -27 -26 -27h-686q-27 0 -27 27v149q0 20 14 33l605 565v53h-592q-27 0 -27 27v61q0 27 27 27zM457 1069h-27q-27 0 -27 27v14q0 16 13 33l135 172q10 16 33 16h69q27 0 27 -26v-21
q0 -19 -14 -33l-177 -170q-14 -12 -32 -12z" />
    <glyph glyph-name="Zdotaccent" unicode="&#x17b;" 
d="M186 1311h715q27 0 27 -27v-190q0 -16 -10 -33l-639 -848v-98h622q27 0 27 -27v-61q0 -27 -27 -27h-715q-27 0 -26 27v190q0 16 10 33l637 848v98h-621q-27 0 -26 27v61q-1 27 26 27zM618 1599v-96q0 -27 -26 -26h-98q-27 0 -27 26v96q0 27 27 27h98q26 0 26 -27z" />
    <glyph glyph-name="zdotaccent" unicode="&#x17c;" 
d="M201 942h686q27 0 26 -27v-149q0 -20 -14 -33l-606 -567v-51h594q27 0 26 -27v-61q0 -27 -26 -27h-686q-27 0 -27 27v149q0 20 14 33l605 565v53h-592q-27 0 -27 27v61q0 27 27 27zM618 1262v-97q0 -27 -26 -26h-98q-27 0 -27 26v97q0 27 27 26h98q26 1 26 -26z" />
    <glyph glyph-name="Zcaron" unicode="&#x17d;" 
d="M186 1311h715q27 0 27 -27v-190q0 -16 -10 -33l-639 -848v-98h622q27 0 27 -27v-61q0 -27 -27 -27h-715q-27 0 -26 27v190q0 16 10 33l637 848v98h-621q-27 0 -26 27v61q-1 27 26 27zM561 1407h-39q-18 0 -33 14l-174 176q-14 14 -14 33v12q0 27 27 27h16q16 0 33 -12
l166 -141l164 141q14 12 32 12h19q27 0 26 -27v-12q0 -18 -14 -33l-176 -176q-15 -14 -33 -14z" />
    <glyph glyph-name="zcaron" unicode="&#x17e;" 
d="M201 942h686q27 0 26 -27v-149q0 -20 -14 -33l-606 -567v-51h594q27 0 26 -27v-61q0 -27 -26 -27h-686q-27 0 -27 27v149q0 20 14 33l605 565v53h-592q-27 0 -27 27v61q0 27 27 27zM561 1069h-39q-18 0 -33 14l-174 177q-14 14 -14 32v13q0 27 27 26h16q16 0 33 -12
l166 -141l164 141q14 12 32 12h19q27 0 26 -26v-13q0 -18 -14 -32l-176 -177q-15 -14 -33 -14z" />
    <glyph glyph-name="Schwa" unicode="&#x18f;" 
d="M543 94q264 0 264 248v221h-528v-221q0 -248 264 -248zM544 1331q194 0 290 -95t96 -271v-619q0 -176 -96 -271t-290 -95t-291 95t-97 271v305q0 27 26 27h625v291q0 248 -264 248t-264 -248v-29q0 -27 -27 -27h-70q-27 0 -26 27v25q0 176 97 271t291 95z" />
    <glyph glyph-name="florin" unicode="&#x192;" 
d="M760 1266q-62 0 -106 -43t-58 -119l-29 -162h195q29 0 22 -29l-12 -61q-2 -25 -29 -25h-196l-141 -802q-4 -25 -29 -25h-70q-29 0 -22 29l141 798h-162q-29 0 -22 29l10 62q2 25 29 24h165l29 164q23 125 98 195.5t177 70.5t188 -49q23 -12 6 -37l-29 -43
q-16 -20 -28 -12q-65 35 -127 35z" />
    <glyph glyph-name="Nhookleft" unicode="&#x19d;" 
d="M834 1311h69q27 0 27 -27v-1257q0 -27 -27 -27h-45q-23 0 -31 18l-548 1022v-1034q0 -133 -59.5 -205.5t-174.5 -72.5q-78 0 -176 36q-25 8 -14 35l16 47q8 25 35 15q62 -25 126 -25t94 39t30 129v1280q0 27 26 27h45q23 0 31 -19l549 -1022v1014q0 27 27 27z" />
    <glyph glyph-name="Gcaron" unicode="&#x1e6;" 
d="M903 934h-69q-27 0 -27 27v8q0 248 -264 248t-264 -248v-627q0 -248 264 -248t264 248v180h-207q-27 0 -27 27v61q0 27 27 27h303q27 0 27 -27v-262q0 -178 -96 -273t-290 -95t-291 96t-97 272v617q0 176 97 271t291 95t290 -95t96 -271v-4q0 -27 -27 -27zM561 1407h-39
q-18 0 -33 14l-174 176q-14 14 -14 33v12q0 27 27 27h16q16 0 33 -12l166 -141l164 141q14 12 32 12h19q27 0 26 -27v-12q0 -18 -14 -33l-176 -176q-15 -14 -33 -14z" />
    <glyph glyph-name="gcaron" unicode="&#x1e7;" 
d="M524 258q112 0 192.5 63.5t80.5 165.5v131q0 104 -80.5 167t-192.5 63t-178.5 -66.5t-66.5 -183.5v-90q0 -117 66.5 -183.5t178.5 -66.5zM846 942h47q27 0 27 -27v-813q0 -176 -94.5 -272t-267.5 -96t-262 80t-99 206q0 27 26 27h70q27 0 29 -27q8 -76 66 -125t169 -49
t175.5 63.5t64.5 184.5v180q-101 -131 -277 -131t-270 95.5t-94 265.5v98q0 170 95 265.5t255 95.5q197 0 297 -140l14 95q2 24 29 24zM559 1069h-39q-18 0 -33 14l-174 177q-14 14 -14 32v13q0 27 27 26h16q18 0 33 -12l166 -141l164 141q14 12 32 12h19q27 0 26 -26v-13
q0 -18 -14 -32l-176 -177q-15 -14 -33 -14z" />
    <glyph glyph-name="Oogonek" unicode="&#x1ea;" 
d="M807 342v627q0 248 -264 248t-264 -248v-627q0 -248 264 -248t264 248zM544 1331q194 0 290 -95t96 -271v-617q0 -317 -293 -362q-129 -29 -129 -101q0 -45 53 -45h49q27 0 27 -26v-27q0 -25 -25 -29q-61 -4 -99 -4t-69.5 30t-31.5 77q0 76 63 123q-319 33 -319 364v617
q0 176 97 271t291 95z" />
    <glyph glyph-name="oogonek" unicode="&#x1eb;" 
d="M807 342v258q0 248 -264 248q-131 0 -197.5 -64.5t-66.5 -183.5v-258q0 -119 66.5 -183.5t197.5 -64.5q264 0 264 248zM544 963q194 0 290 -95.5t96 -271.5v-248q0 -317 -293 -362q-129 -29 -129 -101q0 -45 53 -45h49q27 0 27 -26v-27q0 -25 -25 -29q-61 -4 -99 -4
t-69.5 30t-31.5 77q0 76 63 123q-319 33 -319 364v248q0 176 97 271.5t291 95.5z" />
    <glyph glyph-name="Aringacute" unicode="&#x1fa;" 
d="M715 518l-172 610l-172 -610h344zM948 123v-96q0 -27 -26 -27h-70q-27 0 -27 27v102l-77 274h-410l-76 -268v-108q0 -27 -26 -27h-70q-27 0 -27 27v96q0 8 4 33l330 1132q6 23 29 23h82q22 0 28 -23l332 -1132q4 -25 4 -33zM543 1624q-41 0 -65.5 -25.5t-24.5 -63.5
t25.5 -63.5t64.5 -25.5t64.5 25.5t25.5 63.5t-24.5 63.5t-65.5 25.5zM542.5 1366q-75.5 0 -123.5 47t-48 119t46 121t126 49t126 -49t46 -121t-48.5 -119t-124 -47zM459 1743h-29q-27 0 -27 26v15q0 18 13 33l135 172q10 16 33 16h71q27 0 27 -27v-20q0 -19 -14 -33
l-176 -170q-16 -12 -33 -12z" />
    <glyph glyph-name="aringacute" unicode="&#x1fb;" 
d="M504 90q112 0 202.5 59.5t90.5 137.5v147h-265q-127 0 -191.5 -43t-64.5 -121v-12q0 -82 58 -125t170 -43zM569 963q170 0 260.5 -92.5t90.5 -262.5v-581q0 -27 -27 -27h-47q-27 0 -29 25l-12 88q-106 -133 -322 -133q-152 0 -239.5 70.5t-87.5 203.5v12q0 129 96 199
t280 70h265v79q0 240 -238 240q-102 0 -162.5 -39t-79.5 -92q-10 -23 -30 -23h-60q-29 0 -28 13q8 94 104 172t266 78zM561 1276q-41 0 -66.5 -25.5t-25.5 -63.5t26.5 -63.5t65.5 -25.5t64.5 25.5t25.5 63.5t-24.5 63.5t-65.5 25.5zM560 1018q-75 0 -124 47t-49 118.5
t47 121t127 49.5t126 -49.5t46 -121t-49 -118.5t-124 -47zM475 1409h-29q-27 0 -26 27v16q0 18 12 33l137 170q10 16 33 16h70q27 0 26 -26v-21q0 -19 -14 -33l-176 -170q-16 -12 -33 -12z" />
    <glyph glyph-name="AEacute" unicode="&#x1fc;" 
d="M539 518v684l-199 -684h199zM655 1196v-483h209q27 0 27 -27v-61q0 -27 -27 -27h-209v-483h289q27 0 27 -27v-61q0 -27 -27 -27h-379q-27 0 -26 27v376h-232l-80 -276v-100q0 -27 -26 -27h-70q-27 0 -27 27v96q0 8 5 33l337 1132q6 23 29 23h469q27 0 27 -27v-61
q0 -27 -27 -27h-289zM522 1409h-26q-27 0 -27 27v14q0 16 12 33l135 172q10 16 33 16h70q27 0 26 -26v-21q0 -19 -14 -33l-176 -170q-14 -12 -33 -12z" />
    <glyph glyph-name="aeacute" unicode="&#x1fd;" 
d="M354 88q90 0 148 47q-31 78 -31 213v111h-94q-174 0 -174 -185v-10q-1 -176 151 -176zM733 850q-84 0 -115.5 -60.5t-31.5 -187.5v-47h293v55q-1 240 -146 240zM586 459v-119q0 -127 31.5 -187.5t106.5 -60.5q139 0 155 170q0 27 26 27h62q27 0 26 -27
q-8 -123 -74.5 -202.5t-187.5 -79.5t-182 73q-74 -74 -203 -73q-254 0 -254 280v10q0 133 69.5 209t213.5 76h96v41q0 127 29 205q-37 53 -113 53q-127 0 -143 -129q-2 -25 -27 -25h-57q-27 0 -27 27q8 94 70.5 165t178.5 71t179 -60q63 59 182 59t184.5 -95t65.5 -269v-113
q0 -27 -26 -26h-381zM475 1069h-26q-27 0 -27 27v14q0 16 12 33l135 172q10 16 33 16h70q27 0 26 -26v-21q0 -19 -14 -33l-176 -170q-16 -12 -33 -12z" />
    <glyph glyph-name="Oslashacute" unicode="&#x1fe;" 
d="M807 342v627q0 131 -76 192l-289 -1055q43 -12 101 -12q264 0 264 248zM279 969v-627q0 -127 73 -192l291 1056q-51 10 -100 11q-264 0 -264 -248zM930 965v-617q0 -178 -96.5 -273t-290.5 -95q-76 0 -131 14l-9 -33q-6 -23 -28 -22h-49q-29 0 -23 30l16 58
q-164 88 -163 321v617q0 176 97 271t290 95q72 0 131 -12l8 31q6 23 29 22h49q28 0 22 -31l-16 -57q164 -84 164 -319zM457 1407h-27q-27 0 -27 27v14q0 16 13 33l135 172q10 16 33 16h69q27 0 27 -27v-20q0 -19 -14 -33l-177 -170q-14 -12 -32 -12z" />
    <glyph glyph-name="oslashacute" unicode="&#x1ff;" 
d="M807 342v258q0 164 -119 219l-199 -723q16 -2 54 -2q264 0 264 248zM279 600v-258q0 -164 120 -219l199 721q-37 4 -55 4q-131 0 -197.5 -64.5t-66.5 -183.5zM930 596v-248q0 -178 -96.5 -273t-290.5 -95q-43 0 -84 6l-6 -25q-6 -23 -29 -22h-45q-29 0 -23 30l11 37
q-211 76 -211 342v248q0 176 97 271.5t290 95.5q47 0 86 -7l6 25q6 23 29 23h45q28 0 22 -31l-10 -37q209 -76 209 -340zM453 1069h-27q-27 0 -27 27v14q0 16 13 33l135 172q10 16 33 16h69q27 0 27 -26v-21q0 -19 -14 -33l-177 -170q-14 -12 -32 -12z" />
    <glyph glyph-name="Scommaaccent" unicode="&#x218;" 
d="M471 -188v69q0 27 27 27h88q27 0 26 -27v-37q0 -8 -4 -32l-35 -111q-6 -23 -28 -23h-6q-29 0 -23 29l14 78h-32q-27 0 -27 27zM279 999q0 -98 67.5 -161.5t162.5 -102.5t190.5 -82t163 -126t67.5 -205q0 -160 -98.5 -251t-285.5 -91t-284.5 89t-105.5 255q0 27 26 26h70
q27 0 27 -26q16 -229 266 -230q131 0 196.5 59.5t65.5 158.5t-67.5 163t-163 102.5t-190.5 81.5t-162.5 126t-67.5 223.5t98 231.5t285.5 91t285 -89t105.5 -255q0 -27 -27 -26h-69q-27 0 -27 26q-16 229 -264 230q-131 0 -197.5 -60t-66.5 -158z" />
    <glyph glyph-name="scommaaccent" unicode="&#x219;" 
d="M471 -188v69q0 27 27 27h88q27 0 26 -27v-37q0 -8 -4 -32l-35 -111q-6 -23 -28 -23h-6q-29 0 -23 29l14 78h-32q-27 0 -27 27zM548 -20q-165 0 -259 72.5t-105 197.5q0 27 27 26h70q27 0 28 -24q10 -76 72.5 -118t168 -42t168 44t62.5 116t-64.5 106.5t-157.5 54
t-132 31.5q-116 34 -169 80q-73 64 -73 176.5t94.5 187.5t259.5 75t258 -73t103 -198q4 -27 -25 -26h-69q-27 0 -29 24q-10 76 -72.5 118t-167.5 42t-167 -43t-62 -117q0 -76 80 -112q62 -28 147.5 -47t124.5 -31q123 -36 171 -82q72 -69 71.5 -179t-94.5 -184.5t-259 -74.5
z" />
    <glyph glyph-name="uni021A" unicode="&#x21a;" 
d="M471 -188v69q0 27 27 27h88q27 0 26 -27v-37q0 -8 -4 -32l-35 -111q-6 -23 -28 -23h-6q-29 0 -23 29l14 78h-32q-27 0 -27 27zM145 1311h797q27 0 27 -27v-61q0 -27 -27 -27h-338v-1169q0 -27 -26 -27h-70q-27 0 -27 27v1169h-336q-27 0 -26 27v61q-1 27 26 27z" />
    <glyph glyph-name="uni021B" unicode="&#x21b;" 
d="M471 -188v69q0 27 27 27h88q27 0 26 -27v-37q0 -8 -4 -32l-35 -111q-6 -23 -28 -23h-6q-29 0 -23 29l14 78h-32q-27 0 -27 27zM410 250v577h-226q-27 0 -26 27v61q0 27 26 27h226v182q0 27 24 29l70 14q29 6 28 -24v-201h314q27 0 26 -27v-61q0 -27 -26 -27h-314v-575
q0 -160 134 -160q53 0 176 31q24 6 32 -19l17 -53q8 -23 -17 -33q-137 -39 -236.5 -38.5t-163.5 72t-64 198.5z" />
    <glyph glyph-name="Ymacron" unicode="&#x232;" 
d="M944 1284v-143q0 -18 -8 -33l-332 -573v-508q0 -27 -26 -27h-70q-27 0 -27 27v508l-331 573q-8 14 -9 33v143q0 27 27 27h70q27 0 26 -27v-129l279 -498l278 498v129q0 27 27 27h70q26 0 26 -27zM780 1538v-49q0 -27 -26 -27h-422q-27 0 -27 27v49q0 27 27 27h422
q26 0 26 -27z" />
    <glyph glyph-name="ymacron" unicode="&#x233;" 
d="M838 942h69q27 0 27 -27v-94q0 -14 -6 -33l-424 -1013q-8 -20 -31 -21h-59q-14 0 -20.5 8.5t-0.5 22.5l90 223l-325 780q-6 18 -6 33v94q0 27 26 27h70q27 0 26 -27v-104l271 -661l266 661v104q0 27 27 27zM780 1200v-49q0 -27 -26 -27h-422q-27 0 -27 27v49q0 27 27 27
h422q26 0 26 -27z" />
    <glyph glyph-name="dotlessj" unicode="&#x237;" 
d="M352 942h336q27 0 27 -27v-892q0 -133 -70 -211t-201 -78q-76 0 -221 39q-25 10 -16 32l14 52q8 25 33 18q111 -33 186 -33q152 0 152 174v811h-240q-27 0 -26 27v61q-1 27 26 27z" />
    <glyph glyph-name="schwa" unicode="&#x259;" 
d="M543 92q264 0 264 248v49h-528v-57q0 -115 67.5 -177.5t196.5 -62.5zM552 963q186 0 282 -95.5t96 -271.5v-248q0 -178 -96 -273t-290 -95t-291 95t-97 269v113q0 27 26 26h625v119q0 248 -264 248q-117 0 -184.5 -48t-77.5 -124q-2 -25 -29 -25h-70q-27 0 -26 19
q8 123 109 207t287 84z" />
    <glyph glyph-name="nhookleft" unicode="&#x272;" 
d="M600 963q154 0 237 -86t83 -254v-596q0 -27 -27 -27h-70q-27 0 -26 27v591q0 229 -211 230q-125 0 -211 -70.5t-86 -185.5v-586q0 -133 -59.5 -205.5t-174.5 -72.5q-78 0 -176 36q-25 8 -14 35l16 47q8 25 35 15q62 -25 126 -25t94 39t30 129v911q0 27 27 27h49
q25 0 28 -24l15 -105q49 70 133 110t182 40z" />
    <glyph glyph-name="circumflex" unicode="&#x2c6;" 
d="M780 1108v-12q0 -27 -26 -27h-19q-18 0 -33 12l-163 142l-166 -142q-14 -12 -33 -12h-16q-27 0 -27 27v12q0 18 14 33l174 176q14 14 33 14h39q19 0 33 -14l176 -176q14 -14 14 -33z" />
    <glyph glyph-name="caron" unicode="&#x2c7;" 
d="M735 1331h19q27 0 26 -26v-13q0 -18 -14 -32l-176 -177q-14 -14 -33 -14h-39q-18 0 -33 14l-174 177q-14 14 -14 32v13q0 27 27 26h16q16 0 33 -12l166 -141l163 141q15 12 33 12z" />
    <glyph glyph-name="breve" unicode="&#x2d8;" 
d="M799 1290v-14q0 -14 -6 -33q-80 -158 -248 -158t-248 158q-8 16 -8 33v14q0 27 26 27h13q20 0 32 -19q66 -116 188 -116t179 114q12 20 33 21h12q27 0 27 -27z" />
    <glyph glyph-name="dotaccent" unicode="&#x2d9;" 
d="M618 1262v-97q0 -27 -26 -26h-98q-27 0 -27 26v97q0 27 27 26h98q26 1 26 -26z" />
    <glyph glyph-name="ring" unicode="&#x2da;" 
d="M543 1323q-41 0 -65.5 -25.5t-24.5 -62.5t25.5 -62.5t64.5 -25.5t64.5 25.5t25.5 62.5t-24.5 62.5t-65.5 25.5zM543 1403q80 0 126 -49t46 -121t-48.5 -119t-124 -47t-123.5 47t-48 119t46 121t126 49z" />
    <glyph glyph-name="ogonek" unicode="&#x2db;" 
d="M508 -115q0 -45 53 -45h49q27 0 27 -26v-27q0 -25 -25 -29q-61 -4 -99 -4t-69.5 30t-31.5 77q0 123 176 174q27 7 37 -23q12 -25 -19 -35q-98 -29 -98 -92z" />
    <glyph glyph-name="tilde" unicode="&#x2dc;" 
d="M422 1307q68 0 149 -58q57 -45 107 -45t78 49q16 23 35 15l22 -8q31 -8 16 -35q-53 -115 -163 -115q-70 0 -152 57q-55 43 -104.5 43t-79.5 -47q-16 -23 -35 -14l-25 8q-27 10 -14 37q53 113 166 113z" />
    <glyph glyph-name="hungarumlaut" unicode="&#x2dd;" 
d="M848 1305v-21q0 -18 -14 -33l-177 -170q-14 -12 -32 -12h-17q-27 0 -26 27v14q0 16 12 33l135 172q10 16 33 16h59q27 1 27 -26zM584 1305v-21q0 -18 -15 -33l-176 -170q-14 -12 -33 -12h-16q-27 0 -27 27v14q0 16 13 33l137 172q10 16 33 16h57q27 1 27 -26z" />
    <glyph glyph-name="uni0326" unicode="&#x326;" horiz-adv-x="0" 
d="M502 -92h88q27 0 26 -27v-37q0 -8 -4 -32l-34 -111q-6 -23 -29 -23h-6q-29 0 -23 29l15 78h-33q-27 0 -27 27v69q0 27 27 27z" />
    <glyph glyph-name="Delta" unicode="&#x394;" 
d="M262 115h563v14l-282 999l-281 -993v-20zM948 123v-96q0 -27 -26 -27h-756q-27 0 -27 27v96q0 8 4 33l330 1132q6 23 29 23h82q22 0 28 -23l332 -1132q4 -25 4 -33z" />
    <glyph glyph-name="Omega" unicode="&#x3a9;" 
d="M930 965v-330q0 -291 -238 -367v-155h195q27 0 26 -27v-59q0 -27 -26 -27h-269q-27 0 -26 27v301q0 25 22 30q193 47 193 267v344q0 248 -264 248t-264 -248v-344q0 -219 192 -267q23 -6 23 -30v-301q0 -27 -27 -27h-268q-27 0 -27 27v59q0 27 27 27h194v155
q-238 76 -237 367v330q0 176 97 271t291 95t290 -95t96 -271z" />
    <glyph glyph-name="mu" unicode="&#x3bc;" 
d="M823 942h70q27 0 27 -27v-888q0 -27 -27 -27h-47q-27 0 -29 25l-16 104q-104 -150 -314 -149q-123 0 -198 51v-250q0 -27 -27 -27h-69q-27 0 -27 27v1134q0 27 27 27h69q27 0 27 -27v-591q0 -229 211 -230q125 0 211 71t86 185v565q-1 27 26 27z" />
    <glyph glyph-name="pi" unicode="&#x3c0;" horiz-adv-x="1193" 
d="M866 827v-677q0 -39 29 -52q25 -8 25 -28v-64q0 -27 -27 -26q-78 6 -113 46t-35 121v680h-251v-800q0 -27 -27 -27h-68q-27 0 -26 27v798q-61 -6 -119 -30q-25 -10 -37 14l-24 51q-10 23 10 35q84 47 213 47h567q27 0 27 -27v-61q0 -27 -27 -27h-117z" />
    <glyph glyph-name="Wgrave" unicode="&#x1e80;" 
d="M874 1311h64q31 0 27 -29l-115 -1257q-2 -25 -27 -25h-43q-23 0 -30 20l-207 560l-205 -560q-8 -20 -31 -20h-43q-23 0 -26 25l-117 1257q-4 29 26 29h66q25 0 27 -25l94 -995l162 432q8 20 30 20h31q23 0 31 -20l164 -434l96 997q3 25 26 25zM655 1407h-28q-16 0 -33 12
l-176 170q-14 14 -15 33v20q0 27 27 27h70q23 0 32 -16l138 -172q12 -16 12 -33v-14q0 -27 -27 -27z" />
    <glyph glyph-name="wgrave" unicode="&#x1e81;" 
d="M872 942h66q29 0 25 -29l-111 -888q-4 -25 -29 -25h-45q-23 0 -30 20l-205 566l-205 -566q-8 -20 -31 -20h-43q-27 0 -28 25l-113 888q-4 29 24 29h66q25 0 29 -24l86 -664l174 475q8 20 30 21h21q23 0 31 -21l174 -475l86 664q3 24 28 24zM662 1069h-29q-18 0 -33 12
l-176 170q-14 14 -14 33v21q0 27 26 26h70q23 0 33 -16l137 -172q12 -14 12 -33v-14q1 -27 -26 -27z" />
    <glyph glyph-name="Wacute" unicode="&#x1e82;" 
d="M874 1311h64q31 0 27 -29l-115 -1257q-2 -25 -27 -25h-43q-23 0 -30 20l-207 560l-205 -560q-8 -20 -31 -20h-43q-23 0 -26 25l-117 1257q-4 29 26 29h66q25 0 27 -25l94 -995l162 432q8 20 30 20h31q23 0 31 -20l164 -434l96 997q3 25 26 25zM457 1407h-27q-27 0 -27 27
v14q0 16 13 33l135 172q10 16 33 16h69q27 0 27 -27v-20q0 -19 -14 -33l-177 -170q-14 -12 -32 -12z" />
    <glyph glyph-name="wacute" unicode="&#x1e83;" 
d="M872 942h66q29 0 25 -29l-111 -888q-4 -25 -29 -25h-45q-23 0 -30 20l-205 566l-205 -566q-8 -20 -31 -20h-43q-27 0 -28 25l-113 888q-4 29 24 29h66q25 0 29 -24l86 -664l174 475q8 20 30 21h21q23 0 31 -21l174 -475l86 664q3 24 28 24zM453 1069h-27q-27 0 -27 27v14
q0 16 13 33l135 172q10 16 33 16h69q27 0 27 -26v-21q0 -19 -14 -33l-177 -170q-14 -12 -32 -12z" />
    <glyph glyph-name="Wdieresis" unicode="&#x1e84;" 
d="M874 1311h64q31 0 27 -29l-115 -1257q-2 -25 -27 -25h-43q-23 0 -30 20l-207 560l-205 -560q-8 -20 -31 -20h-43q-23 0 -26 25l-117 1257q-4 29 26 29h66q25 0 27 -25l94 -995l162 432q8 20 30 20h31q23 0 31 -20l164 -434l96 997q3 25 26 25zM786 1597v-96
q0 -27 -26 -26h-96q-27 0 -27 26v96q0 27 27 27h96q26 0 26 -27zM449 1597v-96q0 -27 -27 -26h-96q-27 0 -27 26v96q0 27 27 27h96q27 0 27 -27z" />
    <glyph glyph-name="wdieresis" unicode="&#x1e85;" 
d="M872 942h66q29 0 25 -29l-111 -888q-4 -25 -29 -25h-45q-23 0 -30 20l-205 566l-205 -566q-8 -20 -31 -20h-43q-27 0 -28 25l-113 888q-4 29 24 29h66q25 0 29 -24l86 -664l174 475q8 20 30 21h21q23 0 31 -21l174 -475l86 664q3 24 28 24zM786 1260v-97q0 -27 -26 -26
h-96q-27 0 -27 26v97q0 27 27 26h96q26 1 26 -26zM449 1260v-97q0 -27 -27 -26h-96q-27 0 -27 26v97q0 27 27 26h96q27 1 27 -26z" />
    <glyph glyph-name="uni1E9E" unicode="&#x1e9e;" 
d="M557 -20q-61 0 -123 14q-25 6 -20 31l12 59q4 26 41 18t88 -8q254 0 254 273q0 129 -71.5 194.5t-233.5 71.5q-27 0 -27 26v48q0 20 10 32l242 353q-59 111 -217 110q-109 0 -166 -61.5t-57 -173.5v-940q0 -27 -27 -27h-69q-27 0 -27 27v936q0 168 89 261t239 93
q284 0 360 -215q6 -17 -4 -35l-238 -350q317 -47 318 -350q0 -188 -95.5 -287.5t-277.5 -99.5z" />
    <glyph glyph-name="Adotbelow" unicode="&#x1ea0;" 
d="M467 -217v98q0 27 27 27h98q27 0 26 -27v-98q0 -27 -26 -27h-98q-27 0 -27 27zM715 518l-172 610l-172 -610h344zM948 123v-96q0 -27 -26 -27h-70q-27 0 -27 27v102l-77 274h-410l-76 -268v-108q0 -27 -26 -27h-70q-27 0 -27 27v96q0 8 4 33l330 1132q6 23 29 23h82
q22 0 28 -23l332 -1132q4 -25 4 -33z" />
    <glyph glyph-name="adotbelow" unicode="&#x1ea1;" 
d="M485 -240v97q0 27 27 26h96q27 0 27 -26v-97q0 -27 -27 -26h-96q-27 -1 -27 26zM504 90q112 0 202.5 59.5t90.5 137.5v147h-265q-127 0 -191.5 -43t-64.5 -121v-12q0 -82 58 -125t170 -43zM569 963q170 0 260.5 -92.5t90.5 -262.5v-581q0 -27 -27 -27h-47q-27 0 -29 25
l-12 88q-106 -133 -322 -133q-152 0 -239.5 70.5t-87.5 203.5v12q0 129 96 199t280 70h265v79q0 240 -238 240q-102 0 -162.5 -39t-79.5 -92q-10 -23 -30 -23h-60q-29 0 -28 13q8 94 104 172t266 78z" />
    <glyph glyph-name="Edotbelow" unicode="&#x1eb8;" 
d="M467 -238v99q0 27 27 26h98q27 0 26 -26v-99q0 -27 -26 -26h-98q-27 -1 -27 26zM313 1196v-483h455q27 0 27 -27v-61q0 -27 -27 -27h-455v-483h557q27 0 27 -27v-61q0 -27 -27 -27h-653q-27 0 -27 27v1257q0 27 27 27h653q27 0 27 -27v-61q0 -27 -27 -27h-557z" />
    <glyph glyph-name="edotbelow" unicode="&#x1eb9;" 
d="M467 -238v99q0 27 27 26h98q27 0 26 -26v-99q0 -27 -26 -26h-98q-27 -1 -27 26zM543 850q-264 0 -264 -248v-47h528v55q0 240 -264 240zM279 459v-119q0 -119 66.5 -183.5t190.5 -64.5t191.5 48t77.5 124q2 25 29 25h69q29 0 25 -27q-10 -122 -108 -202t-284 -80t-283 96
t-97 272v248q0 176 97 271.5t291 95.5t290 -95.5t96 -269.5v-113q0 -27 -27 -26h-624z" />
    <glyph glyph-name="Etilde" unicode="&#x1ebc;" 
d="M313 1196v-483h455q27 0 27 -27v-61q0 -27 -27 -27h-455v-483h557q27 0 27 -27v-61q0 -27 -27 -27h-653q-27 0 -27 27v1257q0 27 27 27h653q27 0 27 -27v-61q0 -27 -27 -27h-557zM409.5 1548q-49.5 0 -79.5 -47q-16 -23 -35 -14l-25 8q-27 10 -14 35q53 115 166 115
q68 0 149 -58q57 -45 107 -45t78 49q16 23 35 15l22 -9q31 -8 16 -34q-53 -115 -163 -115q-70 0 -152 57q-55 43 -104.5 43z" />
    <glyph glyph-name="etilde" unicode="&#x1ebd;" 
d="M543 850q-264 0 -264 -248v-47h528v55q0 240 -264 240zM279 459v-119q0 -119 66.5 -183.5t190.5 -64.5t191.5 48t77.5 124q2 25 29 25h69q29 0 25 -27q-10 -122 -108 -202t-284 -80t-283 96t-97 272v248q0 176 97 271.5t291 95.5t290 -95.5t96 -269.5v-113q0 -27 -27 -26
h-624zM409.5 1210q-49.5 0 -79.5 -47q-16 -23 -35 -14l-25 8q-27 10 -14 35q53 115 166 115q68 0 149 -58q57 -45 107 -45t78 49q16 23 35 15l22 -8q31 -8 16 -35q-53 -115 -163 -115q-70 0 -152 57q-55 43 -104.5 43z" />
    <glyph glyph-name="Idotbelow" unicode="&#x1eca;" 
d="M467 -221v96q0 27 27 27h98q27 0 26 -27v-96q0 -27 -26 -27h-98q-27 0 -27 27zM604 1196v-1081h246q27 0 27 -27v-61q0 -27 -27 -27h-612q-27 0 -27 27v61q0 27 27 27h243v1081h-243q-27 0 -27 27v61q0 27 27 27h612q27 0 27 -27v-61q0 -27 -27 -27h-246z" />
    <glyph glyph-name="idotbelow" unicode="&#x1ecb;" 
d="M467 -219v98q0 27 27 27h98q27 0 26 -27v-98q0 -27 -26 -27h-98q-27 0 -27 27zM604 115h240q27 0 26 -27v-61q0 -27 -26 -27h-602q-27 0 -27 27v61q0 27 27 27h239v712h-239q-27 0 -27 27v61q0 27 27 27h336q27 0 26 -27v-800zM625 1266v-109q0 -27 -27 -27h-109
q-27 0 -26 27v109q0 27 26 26h109q27 1 27 -26z" />
    <glyph glyph-name="Odotbelow" unicode="&#x1ecc;" 
d="M618 -121v-98q0 -27 -26 -27h-98q-27 0 -27 27v98q0 27 27 27h98q26 0 26 -27zM543 1217q-264 0 -264 -248v-627q0 -248 264 -248t264 248v627q0 248 -264 248zM544 1331q194 0 290 -95t96 -271v-617q0 -178 -96 -273t-290 -95t-291 96t-97 272v617q0 176 97 271t291 95z
" />
    <glyph glyph-name="odotbelow" unicode="&#x1ecd;" 
d="M618 -121v-98q0 -27 -26 -27h-98q-27 0 -27 27v98q0 27 27 27h98q26 0 26 -27zM543 848q-131 0 -197.5 -64.5t-66.5 -183.5v-258q0 -119 66.5 -183.5t197.5 -64.5q264 0 264 248v258q0 248 -264 248zM544 963q194 0 290 -95.5t96 -271.5v-248q0 -178 -96 -273t-290 -95
t-291 96t-97 272v248q0 176 97 271.5t291 95.5z" />
    <glyph glyph-name="Udotbelow" unicode="&#x1ee4;" 
d="M618 -121v-98q0 -27 -26 -27h-98q-27 0 -27 27v98q0 27 27 27h98q26 0 26 -27zM930 1284v-936q0 -178 -96 -273t-290 -95t-291 96t-97 272v936q0 27 26 27h70q27 0 27 -27v-942q0 -248 264 -248t264 248v942q0 27 27 27h69q27 0 27 -27z" />
    <glyph glyph-name="udotbelow" unicode="&#x1ee5;" 
d="M467 -219v98q0 27 27 27h98q27 0 26 -27v-98q0 -27 -26 -27h-98q-27 0 -27 27zM823 942h70q27 0 27 -27v-888q0 -27 -27 -27h-47q-27 0 -29 25l-16 104q-104 -150 -314 -149q-156 0 -238.5 86t-82.5 253v596q0 27 27 27h69q27 0 27 -27v-591q0 -229 211 -230
q125 0 211 71t86 185v565q-1 27 26 27z" />
    <glyph glyph-name="Ygrave" unicode="&#x1ef2;" 
d="M944 1284v-143q0 -18 -8 -33l-332 -573v-508q0 -27 -26 -27h-70q-27 0 -27 27v508l-331 573q-8 14 -9 33v143q0 27 27 27h70q27 0 26 -27v-129l279 -498l278 498v129q0 27 27 27h70q26 0 26 -27zM655 1407h-28q-16 0 -33 12l-176 170q-14 14 -15 33v20q0 27 27 27h70
q23 0 32 -16l138 -172q12 -16 12 -33v-14q0 -27 -27 -27z" />
    <glyph glyph-name="ygrave" unicode="&#x1ef3;" 
d="M838 942h69q27 0 27 -27v-94q0 -14 -6 -33l-424 -1013q-8 -20 -31 -21h-59q-14 0 -20.5 8.5t-0.5 22.5l90 223l-325 780q-6 18 -6 33v94q0 27 26 27h70q27 0 26 -27v-104l271 -661l266 661v104q0 27 27 27zM655 1069h-28q-16 0 -33 12l-176 170q-14 14 -15 33v21
q0 27 27 26h70q23 0 32 -16l138 -172q12 -14 12 -33v-14q0 -27 -27 -27z" />
    <glyph glyph-name="Ytilde" unicode="&#x1ef8;" 
d="M944 1284v-143q0 -18 -8 -33l-332 -573v-508q0 -27 -26 -27h-70q-27 0 -27 27v508l-331 573q-8 14 -9 33v143q0 27 27 27h70q27 0 26 -27v-129l279 -498l278 498v129q0 27 27 27h70q26 0 26 -27zM409.5 1548q-49.5 0 -79.5 -47q-16 -23 -35 -14l-25 8q-27 10 -14 35
q53 115 166 115q68 0 149 -58q57 -45 107 -45t78 49q16 23 35 15l22 -9q31 -8 16 -34q-53 -115 -163 -115q-70 0 -152 57q-55 43 -104.5 43z" />
    <glyph glyph-name="ytilde" unicode="&#x1ef9;" 
d="M838 942h69q27 0 27 -27v-94q0 -14 -6 -33l-424 -1013q-8 -20 -31 -21h-59q-14 0 -20.5 8.5t-0.5 22.5l90 223l-325 780q-6 18 -6 33v94q0 27 26 27h70q27 0 26 -27v-104l271 -661l266 661v104q0 27 27 27zM409.5 1210q-49.5 0 -79.5 -47q-16 -23 -35 -14l-25 8
q-27 10 -14 35q53 115 166 115q68 0 149 -58q57 -45 107 -45t78 49q16 23 35 15l22 -8q31 -8 16 -35q-53 -115 -163 -115q-70 0 -152 57q-55 43 -104.5 43z" />
    <glyph glyph-name="endash" unicode="&#x2013;" 
d="M901 584v-49q0 -27 -27 -27h-663q-27 0 -27 27v49q0 27 27 26h663q27 1 27 -26z" />
    <glyph glyph-name="emdash" unicode="&#x2014;" horiz-adv-x="2170" 
d="M1987 578v-37q0 -27 -27 -27h-1749q-27 0 -27 27v37q0 27 27 26h1749q27 1 27 -26z" />
    <glyph glyph-name="quoteleft" unicode="&#x2018;" 
d="M606 1161q27 0 27 -26v-127q0 -27 -27 -27h-127q-27 0 -26 27v88q0 14 6 32l80 213q8 20 30 21h29q29 0 23 -31l-48 -170h33z" />
    <glyph glyph-name="quoteright" unicode="&#x2019;" 
d="M479 1311h127q27 0 27 -27v-86q0 -14 -6 -33l-80 -215q-8 -20 -31 -20h-29q-29 0 -22 31l49 169h-35q-27 0 -26 27v127q-1 27 26 27z" />
    <glyph glyph-name="quotesinglbase" unicode="&#x201a;" 
d="M479 180h127q27 0 27 -26v-86q0 -14 -6 -33l-80 -215q-8 -20 -31 -21h-29q-29 0 -22 31l49 170h-35q-27 0 -26 27v127q-1 26 26 26z" />
    <glyph glyph-name="quotedblleft" unicode="&#x201c;" 
d="M750 1161q27 0 26 -26v-127q0 -27 -26 -27h-127q-27 0 -27 27v88q0 14 6 32l80 213q8 20 31 21h28q29 0 23 -31l-47 -170h33zM463 1161q27 0 26 -26v-127q0 -27 -26 -27h-127q-27 0 -27 27v88q0 14 6 32l80 213q8 20 31 21h29q29 0 22 -31l-47 -170h33z" />
    <glyph glyph-name="quotedblright" unicode="&#x201d;" 
d="M623 1311h127q27 0 26 -27v-86q0 -14 -6 -33l-80 -215q-8 -20 -31 -20h-28q-29 0 -23 31l49 169h-34q-27 0 -27 27v127q0 27 27 27zM309 1157v127q0 27 27 27h127q27 0 26 -27v-86q0 -14 -6 -33l-80 -215q-8 -20 -30 -20h-29q-29 0 -22 31l49 169h-35q-27 0 -27 27z" />
    <glyph glyph-name="quotedblbase" unicode="&#x201e;" 
d="M623 180h127q27 0 26 -26v-86q0 -14 -6 -33l-80 -215q-8 -20 -31 -21h-28q-29 0 -23 31l49 170h-34q-27 0 -27 27v127q0 26 27 26zM309 27v127q0 27 27 26h127q27 0 26 -26v-86q0 -14 -6 -33l-80 -215q-8 -20 -30 -21h-29q-29 0 -22 31l49 170h-35q-27 0 -27 27z" />
    <glyph glyph-name="dagger" unicode="&#x2020;" 
d="M877 946v-59q0 -27 -27 -27h-252v-833q0 -27 -27 -27h-65q-27 0 -27 27v833h-243q-27 0 -27 27v59q0 27 27 27h243v311q0 27 27 27h65q27 0 27 -27v-311h252q27 0 27 -27z" />
    <glyph glyph-name="daggerdbl" unicode="&#x2021;" 
d="M598 860v-409h252q27 0 27 -27v-59q0 -27 -27 -27h-252v-311q0 -27 -27 -27h-65q-27 0 -27 27v311h-243q-27 0 -27 27v59q0 27 27 27h243v409h-243q-27 0 -27 27v59q0 27 27 27h243v311q0 27 27 27h65q27 0 27 -27v-311h252q27 0 27 -27v-59q0 -27 -27 -27h-252z" />
    <glyph glyph-name="bullet" unicode="&#x2022;" 
d="M544 743q67 0 114 -48.5t47 -114.5t-47.5 -112t-113.5 -46t-113.5 46t-47.5 113t47 114.5t114 47.5z" />
    <glyph glyph-name="ellipsis" unicode="&#x2026;" 
d="M936 145v-118q0 -27 -27 -27h-118q-27 0 -27 27v118q0 27 27 27h118q27 0 27 -27zM629 145v-118q0 -27 -27 -27h-119q-27 0 -26 27v118q0 27 26 27h119q27 0 27 -27zM322 145v-118q0 -27 -27 -27h-119q-27 0 -26 27v118q0 27 26 27h119q27 0 27 -27z" />
    <glyph glyph-name="perthousand" unicode="&#x2030;" 
d="M901 188q0 86 -87 86t-87 -86v-32q0 -88 87 -88t87 88v32zM436 274q-88 0 -88 -86v-32q0 -88 88 -88t88 88v32q0 86 -88 86zM653 188q0 156 161 156t161 -156v-32q0 -158 -161 -158t-161 158v32zM274 188q0 156 161 156t161 -156v-32q0 -158 -161 -158t-161 158v32z
M272 1243q-88 0 -88 -86v-33q0 -88 88 -88t88 88v33q0 86 -88 86zM271 1313q161 0 161 -156v-33q0 -158 -161 -158t-160 158v33q-1 156 160 156zM584 1300q8 27 47 9q25 -8 14 -35l-522 -1264q-8 -25 -35 -14l-14 6q-25 8 -15 35z" />
    <glyph glyph-name="guilsinglleft" unicode="&#x2039;" 
d="M446 520l261 -375q16 -25 -7 -36l-49 -33q-23 -16 -37 6l-295 420q-12 18 0 37l295 419q12 23 37 9l49 -35q23 -12 9 -37z" />
    <glyph glyph-name="guilsinglright" unicode="&#x203a;" 
d="M471 958l297 -419q12 -18 0 -37l-297 -420q-14 -23 -37 -6l-47 33q-23 12 -8 36l260 375l-260 375q-14 25 8 37l47 33q25 16 37 -7z" />
    <glyph glyph-name="fraction" unicode="&#x2044;" 
d="M430 516q18 23 42 6q24 -16 11 -37l-264 -485q-12 -27 -35 -10l-34 20q-23 16 -9 37zM903 1321l37 -21q23 -16 8 -36l-289 -467q-17 -25 -43 -6q-23 12 -10 34l262 486q12 22 35 10z" />
    <glyph glyph-name="Euro" unicode="&#x20ac;" 
d="M903 913h-69q-27 0 -27 27v29q0 248 -264 248t-264 -248v-160h344q31 0 24 -29l-8 -41q-6 -23 -31 -22h-329v-123h299q29 0 22 -29l-8 -39q-2 -25 -29 -24h-284v-160q0 -248 264 -248t264 248v29q0 27 27 26h69q27 0 27 -26v-23q0 -178 -96 -273t-290 -95t-291 96
t-97 272v154h-52q-27 0 -26 26v39q0 27 26 27h52v123h-52q-27 0 -26 26v39q0 27 26 27h52v156q0 176 97 271t291 95t290 -95t96 -271v-25q0 -27 -27 -27z" />
    <glyph glyph-name="trademark" unicode="&#x2122;" 
d="M928 1311h10q27 0 27 -27v-520q0 -27 -27 -27h-31q-27 0 -26 27v348l-78 -156q-12 -18 -33 -18h-4q-20 0 -33 18l-78 156v-348q0 -27 -26 -27h-31q-27 0 -27 27v520q0 27 27 27h12q20 0 33 -21l125 -258l127 260q13 19 33 19zM90 1260v24q0 27 27 27h364q27 0 27 -27v-24
q0 -27 -27 -27h-139v-469q0 -27 -27 -27h-30q-27 0 -27 27v469h-141q-27 0 -27 27z" />
    <glyph glyph-name="Ohm" unicode="&#x2126;" 
d="M930 965v-330q0 -291 -238 -367v-155h195q27 0 26 -27v-59q0 -27 -26 -27h-269q-27 0 -26 27v301q0 25 22 30q193 47 193 267v344q0 248 -264 248t-264 -248v-344q0 -219 192 -267q23 -6 23 -30v-301q0 -27 -27 -27h-268q-27 0 -27 27v59q0 27 27 27h194v155
q-238 76 -237 367v330q0 176 97 271t291 95t290 -95t96 -271z" />
    <glyph glyph-name="uni2150" unicode="&#x2150;" 
d="M141 47l289 469q16 22 43 4q23 -12 10 -35l-264 -485q-12 -27 -35 -10l-34 20q-23 17 -9 37zM623 655h338q27 0 26 -26v-94q0 -14 -6 -33l-221 -482q-8 -20 -31 -20h-35q-35 0 -20 31l223 483v61h-215v-34q0 -27 -27 -27h-32q-27 0 -27 27v88q0 26 27 26zM295 1311h22
q27 0 27 -27v-547h98q27 0 27 -26v-29q0 -27 -27 -27h-286q-27 0 -27 27v29q0 27 27 26h98v461l-82 -45q-23 -12 -35 10l-16 29q-14 20 8 35l133 76q14 8 33 8zM948 1264l-289 -467q-17 -25 -43 -6q-23 12 -10 34l262 484q12 27 35 10l35 -21q26 -11 10 -34z" />
    <glyph glyph-name="uni2151" unicode="&#x2151;" 
d="M141 47l289 469q16 22 43 4q23 -12 10 -35l-264 -485q-12 -27 -35 -10l-34 20q-23 17 -9 37zM657 416q0 -101 110 -101t110 109v59q0 103 -110 103t-110 -103v-67zM768 666q199 0 199 -189v-299q0 -188 -197 -188q-176 0 -192 155q-4 27 24 27h37q25 0 27 -27
q12 -74 104 -73q106 0 107 100v98q-43 -37 -127 -37t-132.5 49.5t-48.5 137.5v57q0 189 199 189zM315 1311h23q27 0 27 -27v-547h98q27 0 26 -26v-29q0 -27 -26 -27h-287q-27 0 -26 27v29q0 27 26 26h98v461l-81 -45q-23 -12 -35 10l-17 29q-14 20 9 35l133 76q14 8 32 8z
M948 1264l-289 -467q-17 -25 -43 -6q-23 12 -10 34l262 484q12 27 35 10l35 -21q26 -11 10 -34z" />
    <glyph glyph-name="uni2153" unicode="&#x2153;" 
d="M141 47l289 469q16 22 43 4q23 -12 10 -35l-264 -485q-12 -27 -35 -10l-34 20q-23 17 -9 37zM967 178q0 -188 -199 -188q-98 0 -148.5 48t-50.5 126v2q0 27 27 27h35q27 0 26 -27q4 -53 30 -73.5t81 -20.5q109 0 109 100v14q0 109 -115 109h-10q-27 0 -27 27v16
q0 27 27 27h10q115 0 115 104v16q0 100 -109 101q-55 0 -80.5 -21.5t-30.5 -75.5q0 -27 -26 -26h-35q-27 0 -27 26v3q0 76 51.5 125t147.5 49q199 0 199 -187q0 -112 -76 -151q76 -39 76 -150zM313 1311h23q27 0 26 -27v-547h99q27 0 26 -26v-29q0 -27 -26 -27h-287
q-27 0 -27 27v29q0 27 27 26h98v461l-82 -45q-23 -12 -34 10l-17 29q-14 20 8 35l134 76q14 8 32 8zM948 1264l-289 -467q-17 -25 -43 -6q-23 12 -10 34l262 484q12 27 35 10l35 -21q26 -11 10 -34z" />
    <glyph glyph-name="uni2154" unicode="&#x2154;" 
d="M141 47l289 469q16 22 43 4q23 -12 10 -35l-264 -485q-12 -27 -35 -10l-34 20q-23 17 -9 37zM967 178q0 -188 -199 -188q-98 0 -148.5 48t-50.5 126v2q0 27 27 27h35q27 0 26 -27q4 -53 30 -73.5t81 -20.5q109 0 109 100v14q0 109 -115 109h-10q-27 0 -27 27v16
q0 27 27 27h10q115 0 115 104v16q0 100 -109 101q-55 0 -80.5 -21.5t-30.5 -75.5q0 -27 -26 -26h-35q-27 0 -27 26v3q0 76 51.5 125t147.5 49q199 0 199 -187q0 -112 -76 -151q76 -39 76 -150zM203 737h278q27 0 27 -26v-29q0 -27 -27 -27h-336q-27 0 -26 27v92q0 20 14 33
l223 205q70 59 70 123q0 106 -109 106q-55 0 -80.5 -21.5t-29.5 -74.5q0 -27 -27 -27h-35q-27 0 -26 27v2q0 76 51 125t147 49q197 0 197 -186q0 -92 -94 -179l-217 -194v-25zM948 1264l-289 -467q-17 -25 -43 -6q-23 12 -10 34l262 484q12 27 35 10l35 -21q26 -11 10 -34z
" />
    <glyph glyph-name="uni2155" unicode="&#x2155;" 
d="M141 47l289 469q16 22 43 4q23 -12 10 -35l-264 -485q-12 -27 -35 -10l-34 20q-23 17 -9 37zM790 444q78 0 127.5 -49t49.5 -139v-78q0 -188 -199 -188q-90 0 -139 41t-58 112q-4 27 25 27h37q23 0 26 -25q16 -73 117 -73t101 100v90q0 100 -109 100q-72 0 -106 -49
q-10 -20 -33 -16l-29 4q-27 4 -22 29l16 299q2 27 29 26h299q27 0 26 -26v-27q0 -27 -26 -27h-250l-10 -161q50 30 128 30zM315 1311h23q27 0 27 -27v-547h98q27 0 26 -26v-29q0 -27 -26 -27h-287q-27 0 -26 27v29q0 27 26 26h98v461l-81 -45q-23 -12 -35 10l-17 29
q-14 20 9 35l133 76q14 8 32 8zM948 1264l-289 -467q-17 -25 -43 -6q-23 12 -10 34l262 484q12 27 35 10l35 -21q26 -11 10 -34z" />
    <glyph glyph-name="uni2156" unicode="&#x2156;" 
d="M141 47l289 469q16 22 43 4q23 -12 10 -35l-264 -485q-12 -27 -35 -10l-34 20q-23 17 -9 37zM790 444q78 0 127.5 -49t49.5 -139v-78q0 -188 -199 -188q-90 0 -139 41t-58 112q-4 27 25 27h37q23 0 26 -25q16 -73 117 -73t101 100v90q0 100 -109 100q-72 0 -106 -49
q-10 -20 -33 -16l-29 4q-27 4 -22 29l16 299q2 27 29 26h299q27 0 26 -26v-27q0 -27 -26 -27h-250l-10 -161q50 30 128 30zM205 737h278q27 0 27 -26v-29q0 -27 -27 -27h-336q-27 0 -26 27v92q0 20 14 33l223 205q70 59 70 123q0 106 -109 106q-55 0 -80.5 -21.5
t-29.5 -74.5q0 -27 -27 -27h-35q-27 0 -26 27v2q0 76 51 125t147 49q197 0 197 -186q0 -92 -94 -179l-217 -194v-25zM948 1264l-289 -467q-17 -25 -43 -6q-23 12 -10 34l262 484q12 27 35 10l35 -21q26 -11 10 -34z" />
    <glyph glyph-name="uni2157" unicode="&#x2157;" 
d="M141 47l289 469q16 22 43 4q23 -12 10 -35l-264 -485q-12 -27 -35 -10l-34 20q-23 17 -9 37zM790 444q78 0 127.5 -49t49.5 -139v-78q0 -188 -199 -188q-90 0 -139 41t-58 112q-4 27 25 27h37q23 0 26 -25q16 -73 117 -73t101 100v90q0 100 -109 100q-72 0 -106 -49
q-10 -20 -33 -16l-29 4q-27 4 -22 29l16 299q2 27 29 26h299q27 0 26 -26v-27q0 -27 -26 -27h-250l-10 -161q50 30 128 30zM518 1135q0 -113 -76 -152q76 -39 76 -149q0 -188 -199 -189q-98 0 -148 48t-50 126v2q0 27 26 27h35q27 0 27 -27q4 -53 29.5 -73.5t80.5 -20.5
q109 0 109 100v15q0 109 -115 108h-10q-27 0 -27 27v16q0 27 27 27h10q115 0 115 104v17q0 100 -109 100q-55 0 -80.5 -21.5t-29.5 -74.5q0 -27 -27 -27h-35q-27 0 -26 27v2q0 76 51 125t147 49q199 0 199 -186zM948 1264l-289 -467q-17 -25 -43 -6q-23 12 -10 34l262 484
q12 27 35 10l35 -21q26 -11 10 -34z" />
    <glyph glyph-name="uni2158" unicode="&#x2158;" 
d="M141 47l289 469q16 22 43 4q23 -12 10 -35l-264 -485q-12 -27 -35 -10l-34 20q-23 17 -9 37zM790 444q78 0 127.5 -49t49.5 -139v-78q0 -188 -199 -188q-90 0 -139 41t-58 112q-4 27 25 27h37q23 0 26 -25q16 -73 117 -73t101 100v90q0 100 -109 100q-72 0 -106 -49
q-10 -20 -33 -16l-29 4q-27 4 -22 29l16 299q2 27 29 26h299q27 0 26 -26v-27q0 -27 -26 -27h-250l-10 -161q50 30 128 30zM442 879h62q27 0 26 -27v-27q0 -27 -26 -26h-62v-117q0 -27 -26 -27h-35q-27 0 -27 27v117h-221q-27 0 -27 26v56q0 16 9 32l182 377q12 20 33 21h41
q35 0 20 -31l-192 -401h155v129q0 27 27 26h35q27 0 26 -26v-129zM948 1264l-289 -467q-17 -25 -43 -6q-23 12 -10 34l262 484q12 27 35 10l35 -21q26 -11 10 -34z" />
    <glyph glyph-name="uni2159" unicode="&#x2159;" 
d="M877 172v70q0 100 -107 100q-113 0 -113 -111v-59q0 -100 110 -100t110 100zM141 47l289 469q16 22 43 4q23 -12 10 -35l-264 -485q-12 -27 -35 -10l-34 20q-23 17 -9 37zM787 424q85 0 132.5 -49t47.5 -139v-58q0 -188 -199 -188t-199 188v301q0 186 197 187
q178 0 190 -156q4 -27 -24 -27h-37q-25 0 -27 27q-12 76 -102 76q-109 0 -109 -103v-98q45 39 130 39zM315 1311h23q27 0 27 -27v-547h98q27 0 26 -26v-29q0 -27 -26 -27h-287q-27 0 -26 27v29q0 27 26 26h98v461l-81 -45q-23 -12 -35 10l-17 29q-14 20 9 35l133 76
q14 8 32 8zM948 1264l-289 -467q-17 -25 -43 -6q-23 12 -10 34l262 484q12 27 35 10l35 -21q26 -11 10 -34z" />
    <glyph glyph-name="uni215A" unicode="&#x215a;" 
d="M877 172v70q0 100 -107 100q-113 0 -113 -111v-59q0 -100 110 -100t110 100zM141 47l289 469q16 22 43 4q23 -12 10 -35l-264 -485q-12 -27 -35 -10l-34 20q-23 17 -9 37zM787 424q85 0 132.5 -49t47.5 -139v-58q0 -188 -199 -188t-199 188v301q0 186 197 187
q178 0 190 -156q4 -27 -24 -27h-37q-25 0 -27 27q-12 76 -102 76q-109 0 -109 -103v-98q45 39 130 39zM342 1100q78 0 127 -49.5t49 -139.5v-77q0 -188 -199 -189q-90 0 -139 41t-57 113q-4 27 24 26h37q25 0 27 -24q13 -74 115 -74t102 100v91q0 100 -109 100
q-72 0 -106 -49q-10 -20 -33 -17l-28 4q-27 4 -23 29l16 299q2 27 29 27h299q27 0 27 -27v-27q0 -27 -27 -26h-250l-10 -162q51 31 129 31zM948 1264l-289 -467q-17 -25 -43 -6q-23 12 -10 34l262 484q12 27 35 10l35 -21q26 -11 10 -34z" />
    <glyph glyph-name="oneeighth" unicode="&#x215b;" 
d="M887 174v16q0 109 -119 109t-119 -109v-16q0 -102 119 -102t119 102zM141 47l289 469q16 22 43 4q23 -12 10 -35l-264 -485q-12 -27 -35 -10l-34 20q-23 17 -9 37zM662 485v-14q0 -100 106 -100t106 100v14q0 47 -27.5 74t-78.5 27q-106 -1 -106 -101zM768 666
q195 0 195 -196q0 -97 -74 -136q86 -39 86 -156q0 -188 -207 -188t-207 188q0 117 86 156q-74 39 -74 136q0 196 195 196zM315 1311h23q27 0 27 -27v-547h98q27 0 26 -26v-29q0 -27 -26 -27h-287q-27 0 -26 27v29q0 27 26 26h98v461l-81 -45q-23 -12 -35 10l-17 29
q-14 20 9 35l133 76q14 8 32 8zM948 1264l-289 -467q-17 -25 -43 -6q-23 12 -10 34l262 484q12 27 35 10l35 -21q26 -11 10 -34z" />
    <glyph glyph-name="threeeighths" unicode="&#x215c;" 
d="M885 174v16q0 109 -119 109t-119 -109v-16q0 -102 119 -102t119 102zM141 47l289 469q16 22 43 4q23 -12 10 -35l-264 -485q-12 -27 -35 -10l-34 20q-23 17 -9 37zM662 485v-14q0 -100 105 -100t105 100v14q0 100 -106 101q-49 0 -76.5 -27t-27.5 -74zM973 178
q0 -188 -207 -188t-207 188q0 117 86 156q-74 39 -74 136q0 196 195 196t195 -187q0 -106 -74 -145q86 -39 86 -156zM518 1135q0 -113 -76 -152q76 -39 76 -149q0 -188 -199 -189q-98 0 -148 48t-50 126v2q0 27 26 27h35q27 0 27 -27q4 -53 29.5 -73.5t80.5 -20.5
q109 0 109 100v15q0 109 -115 108h-10q-27 0 -27 27v16q0 27 27 27h10q115 0 115 104v17q0 100 -109 100q-55 0 -80.5 -21.5t-29.5 -74.5q0 -27 -27 -27h-35q-27 0 -26 27v2q0 76 51 125t147 49q199 0 199 -186zM948 1264l-289 -467q-17 -25 -43 -6q-23 12 -10 34l262 484
q12 27 35 10l35 -21q26 -11 10 -34z" />
    <glyph glyph-name="fiveeighths" unicode="&#x215d;" 
d="M885 174v16q0 109 -119 109t-119 -109v-16q0 -102 119 -102t119 102zM141 47l289 469q16 22 43 4q23 -12 10 -35l-264 -485q-12 -27 -35 -10l-34 20q-23 17 -9 37zM662 485v-14q0 -100 105 -100t105 100v14q0 100 -106 101q-49 0 -76.5 -27t-27.5 -74zM973 178
q0 -188 -207 -188t-207 188q0 117 86 156q-74 39 -74 136q0 196 195 196t195 -187q0 -106 -74 -145q86 -39 86 -156zM342 1100q78 0 127 -49.5t49 -139.5v-77q0 -188 -199 -189q-90 0 -139 41t-57 113q-4 27 24 26h37q25 0 27 -24q13 -74 115 -74t102 100v91q0 100 -109 100
q-72 0 -106 -49q-10 -20 -33 -17l-28 4q-27 4 -23 29l16 299q2 27 29 27h299q27 0 27 -27v-27q0 -27 -27 -26h-250l-10 -162q51 31 129 31zM948 1264l-289 -467q-17 -25 -43 -6q-23 12 -10 34l262 484q12 27 35 10l35 -21q26 -11 10 -34z" />
    <glyph glyph-name="seveneighths" unicode="&#x215e;" 
d="M885 174v16q0 109 -119 109t-119 -109v-16q0 -102 119 -102t119 102zM141 47l289 469q16 22 43 4q23 -12 10 -35l-264 -485q-12 -27 -35 -10l-34 20q-23 17 -9 37zM662 485v-14q0 -100 105 -100t105 100v14q0 100 -106 101q-49 0 -76.5 -27t-27.5 -74zM973 178
q0 -188 -207 -188t-207 188q0 117 86 156q-74 39 -74 136q0 196 195 196t195 -187q0 -106 -74 -145q86 -39 86 -156zM150 1311h337q27 0 27 -27v-94q0 -14 -6 -33l-221 -481q-8 -20 -31 -21h-35q-35 0 -20 31l225 490v55h-217v-35q0 -27 -27 -27h-32q-27 0 -27 27v88
q0 27 27 27zM948 1264l-289 -467q-17 -25 -43 -6q-23 12 -10 34l262 484q12 27 35 10l35 -21q26 -11 10 -34z" />
    <glyph glyph-name="onefraction" unicode="&#x215f;" 
d="M141 47l289 469q16 22 43 4q23 -12 10 -35l-264 -485q-12 -27 -35 -10l-34 20q-23 17 -9 37zM315 1311h23q27 0 27 -27v-547h98q27 0 26 -26v-29q0 -27 -26 -27h-287q-27 0 -26 27v29q0 27 26 26h98v461l-81 -45q-23 -12 -35 10l-17 29q-14 20 9 35l133 76q14 8 32 8z
M903 1321l37 -21q23 -16 8 -36l-289 -467q-17 -25 -43 -6q-23 12 -10 34l262 486q12 22 35 10z" />
    <glyph glyph-name="zerothird" unicode="&#x2189;" 
d="M141 47l289 469q16 22 43 4q23 -12 10 -35l-264 -485q-12 -27 -35 -10l-34 20q-23 17 -9 37zM967 178q0 -188 -199 -188q-98 0 -148.5 48t-50.5 126v2q0 27 27 27h35q27 0 26 -27q4 -53 30 -73.5t81 -20.5q109 0 109 100v14q0 109 -115 109h-10q-27 0 -27 27v16
q0 27 27 27h10q115 0 115 104v16q0 100 -109 101q-55 0 -80.5 -21.5t-30.5 -75.5q0 -27 -26 -26h-35q-27 0 -27 26v3q0 76 51.5 125t147.5 49q199 0 199 -187q0 -112 -76 -151q76 -39 76 -150zM281 973v20q0 27 26 27h19q27 0 26 -27v-20q0 -27 -26 -27h-19q-26 0 -26 27z
M426 827v312q0 102 -110 102t-109 -102v-312q-1 -100 109 -100t110 100zM316 1321q198 0 198 -186v-301q0 -188 -198 -188t-197 188v301q-1 186 197 186zM948 1264l-289 -467q-17 -25 -43 -6q-23 12 -10 34l262 484q12 27 35 10l35 -21q26 -11 10 -34z" />
    <glyph glyph-name="partialdiff" unicode="&#x2202;" 
d="M807 342v121q0 127 -68.5 197.5t-199.5 70.5q-260 0 -260 -248v-141q0 -248 264 -248t264 248zM562 1331q177 0 272.5 -95t95.5 -271v-617q0 -178 -96 -273t-290 -95t-291 96t-97 272v131q0 176 93 271.5t281 95.5t277 -109v232q0 248 -262 248q-129 0 -238 -74
q-25 -16 -37 8l-28 45q-14 23 2 33q141 102 318 102z" />
    <glyph glyph-name="emptyset" unicode="&#x2205;" 
d="M854 637q0 94 -57 178l-432 -432q81 -55 193 -55t204 91t92 218zM233 652q0 -112 58 -195l432 432q-83 59 -195 59t-203.5 -92t-91.5 -204zM558 215q-158 0 -273 88l-90 -90q-18 -18 -37 0l-37 37q-18 18 0 37l92 92q-90 113 -90 273t122.5 282.5t282.5 122.5t273 -90
l92 92q18 18 37 0l37 -37q18 -19 0 -37l-93 -92q88 -111 88 -271t-123 -283.5t-281 -123.5z" />
    <glyph glyph-name="product" unicode="&#x220f;" 
d="M954 1284v-61q0 -27 -26 -27h-78v-1415q0 -27 -27 -27h-65q-27 0 -27 27v1415h-377v-1415q0 -27 -26 -27h-64q-27 0 -26 27v1415h-80q-27 0 -27 27v61q0 27 27 27h770q26 0 26 -27z" />
    <glyph glyph-name="summation" unicode="&#x2211;" 
d="M897 1284v-61q0 -27 -27 -27h-557l199 -647q6 -16 0 -33l-199 -647h557q27 0 27 -27v-61q0 -27 -27 -27h-653q-27 0 -27 27v49q0 8 5 33l200 669l-200 670q-4 25 -5 33v49q0 27 27 27h653q27 0 27 -27z" />
    <glyph glyph-name="minus" unicode="&#x2212;" 
d="M918 623v-45q0 -27 -27 -27h-694q-27 0 -27 27v45q0 27 27 26h694q27 1 27 -26z" />
    <glyph glyph-name="radical" unicode="&#x221a;" 
d="M965 1284v-59q0 -27 -27 -27h-127l-289 -936q-6 -23 -28 -22h-48q-23 0 -28 22l-176 567h-90q-27 0 -27 27v59q0 27 27 27h149q23 0 29 -22l141 -465l254 833q6 23 29 23h184q27 0 27 -27z" />
    <glyph glyph-name="infinity" unicode="&#x221e;" 
d="M742 530q56 0 92 42t36 116t-36 116t-92 42t-98 -42t-64 -116q23 -74 64.5 -116t97.5 -42zM343 530q56 0 99 43t64 115q-20 72 -63.5 115t-99.5 43t-92 -42t-36 -116t36 -116t92 -42zM756 948q94 0 153.5 -69.5t59.5 -191.5t-59.5 -190.5t-153.5 -68.5q-139 0 -213 156
q-74 -156 -211 -156q-96 0 -154.5 68.5t-58.5 191.5t58.5 191.5t154.5 68.5q137 0 211 -155q74 155 213 155z" />
    <glyph glyph-name="integral" unicode="&#x222b;" 
d="M692 1556q94 0 182 -38q25 -8 15 -35l-19 -47q-8 -25 -34 -15q-66 27 -125 27q-106 0 -107 -117v-1339q0 -106 -58.5 -167t-152.5 -61t-182 39q-25 8 -14 35l18 47q8 25 35 15q66 -27 125 -27q106 0 106 117v1339q0 106 58.5 166.5t152.5 60.5z" />
    <glyph glyph-name="approxequal" unicode="&#x2248;" 
d="M324 575q70 0 222 -83t197 -82q72 0 86 94q2 27 27 26h39q27 0 27 -26q-12 -199 -177 -199q-72 0 -223 83t-196 83q-72 0 -86 -94q-2 -27 -27 -27h-39q-27 0 -24 37q14 188 174 188zM324 899q74 0 233 -90q143 -76 186 -76q74 0 86 94q2 27 27 27h39q27 0 27 -29
q-12 -199 -177 -198q-70 0 -223 83t-196 83q-74 0 -86 -95q-2 -27 -27 -26h-39q-27 0 -24 37q14 190 174 190z" />
    <glyph glyph-name="notequal" unicode="&#x2260;" 
d="M891 516q27 0 27 -27v-45q0 -27 -27 -26h-385l-86 -182q-8 -25 -35 -15l-31 15q-25 12 -14 36l70 146h-213q-27 0 -27 26v45q0 27 27 27h258l77 168h-335q-27 0 -27 27v45q0 27 27 26h383l86 183q8 25 34 14l31 -14q25 -12 14 -37l-69 -146h215q27 0 27 -26v-45
q0 -27 -27 -27h-260l-78 -168h338z" />
    <glyph glyph-name="lessequal" unicode="&#x2264;" 
d="M170 352v45q0 27 27 27h694q27 0 27 -27v-45q0 -27 -27 -26h-694q-27 -1 -27 26zM918 944v-43q0 -25 -23 -31l-494 -122l494 -123q23 -6 23 -31v-43q0 -33 -29 -23l-696 174q-23 6 -23 31v31q0 25 23 31l696 172q29 10 29 -23z" />
    <glyph glyph-name="greaterequal" unicode="&#x2265;" 
d="M170 352v45q0 27 27 27h694q27 0 27 -27v-45q0 -27 -27 -26h-694q-27 -1 -27 26zM918 764v-31q0 -25 -23 -31l-696 -174q-29 -10 -29 23v43q0 25 23 31l493 123l-493 122q-23 6 -23 31v43q0 33 29 23l696 -172q23 -6 23 -31z" />
    <glyph glyph-name="multiplyCircled" unicode="&#x2297;" 
d="M544 250q112 0 204 72l-205 202l-203 -202q92 -72 204 -72zM211 581.5q0 -110.5 70 -202.5l202 203l-202 202q-70 -92 -70 -202.5zM600 582l203 -203q71 88 71 202t-69 205zM543 639l205 205q-92 70 -204 70t-204 -72zM543 989q168 0 287.5 -119.5t119.5 -287.5
t-119.5 -287t-287.5 -119t-287 119t-119 287t119 287.5t287 119.5z" />
    <glyph glyph-name="uni22A0" unicode="&#x22a0;" 
d="M352 334h381l-190 190zM293 772v-381l190 191zM795 387v389l-195 -194zM543 639l194 195h-389zM252 901h582q27 0 26 -27v-581q0 -27 -26 -27h-582q-27 0 -27 27v581q0 27 27 27z" />
    <glyph glyph-name="filledbox" unicode="&#x25a0;" 
d="M911 907v-684q0 -27 -26 -26h-684q-27 0 -27 26v684q0 27 27 27h684q26 0 26 -27z" />
    <glyph glyph-name="whiteSquare" unicode="&#x25a1;" 
d="M279 829v-528h528v528h-528zM911 907v-684q0 -27 -26 -26h-684q-27 0 -27 26v684q0 27 27 27h684q26 0 26 -27z" />
    <glyph glyph-name="lozenge" unicode="&#x25ca;" 
d="M281 655l262 -510l264 510l-264 510zM569 0h-51q-23 0 -31 18l-329 619q-12 18 0 37l329 618q8 18 31 19h51q21 -1 31 -19l328 -618q12 -18 0 -37l-328 -619q-10 -18 -31 -18z" />
    <glyph glyph-name="whitecircle" unicode="&#x25cb;" 
d="M544 866q-124 0 -212 -88t-88 -212t88 -212t212 -88t212 88t88 213t-88 212t-212 87zM543 975q170 0 289.5 -120t119.5 -290t-119.5 -289.5t-289.5 -119.5t-290 120.5t-120 289.5t120 289t290 120z" />
    <glyph glyph-name="blackcircle" unicode="&#x25cf;" 
d="M543 975q170 0 289.5 -120t119.5 -290t-119.5 -289.5t-289.5 -119.5t-290 120.5t-120 289.5t120 289t290 120z" />
    <glyph glyph-name="uniE132" unicode="&#xe132;" 
d="M829 915v-909q0 -133 -59 -205.5t-174 -72.5q-78 0 -176 36q-25 8 -14 35l16 47q8 25 35 15q61 -25 125 -25t94.5 39t30.5 129v911q0 27 26 27h70q26 0 26 -27zM379 915v-888q0 -27 -27 -27h-69q-27 0 -27 27v888q0 27 27 27h69q27 0 27 -27zM911 1305v-21q0 -18 -14 -33
l-176 -170q-16 -12 -33 -12h-26q-27 0 -27 27v14q0 16 12 33l135 172q10 16 33 16h70q26 1 26 -26zM461 1305v-21q0 -18 -15 -33l-176 -170q-14 -12 -32 -12h-27q-27 0 -27 27v14q0 16 13 33l135 172q10 16 33 16h69q27 1 27 -26z" />
    <glyph glyph-name="uniE133" unicode="&#xe133;" 
d="M573 1311h351q27 0 26 -27v-969q0 -156 -75.5 -245.5t-211 -89.5t-209 89t-73.5 246v35q0 27 27 27h59q27 0 27 -27v-39q0 -102 45 -160.5t124.5 -58.5t123.5 58.5t44 160.5v887h-258q-27 0 -26 27v59q-1 27 26 27zM135 27v1257q0 27 27 27h65q27 0 27 -27v-1257
q0 -27 -27 -27h-65q-27 0 -27 27zM672 1407h-29q-27 0 -27 27v14q0 16 13 33l137 172q10 16 33 16h69q27 0 27 -27v-20q0 -19 -14 -33l-176 -170q-16 -12 -33 -12zM250 1669h69q27 0 27 -27v-20q0 -18 -14 -33l-176 -170q-16 -12 -33 -12h-29q-27 0 -26 27v14q0 17 12 33
l137 172q10 16 33 16z" />
    <glyph glyph-name="A.ss01" 
d="M715 518l-172 610l-172 -610h344zM948 123v-96q0 -27 -26 -27h-70q-27 0 -27 27v102l-77 274h-410l-76 -268v-108q0 -27 -26 -27h-70q-27 0 -27 27v96q0 8 4 33l330 1132q6 23 29 23h82q22 0 28 -23l332 -1132q4 -25 4 -33z" />
    <glyph glyph-name="Aacute.ss01" 
d="M715 518l-172 610l-172 -610h344zM948 123v-96q0 -27 -26 -27h-70q-27 0 -27 27v102l-77 274h-410l-76 -268v-108q0 -27 -26 -27h-70q-27 0 -27 27v96q0 8 4 33l330 1132q6 23 29 23h82q22 0 28 -23l332 -1132q4 -25 4 -33zM457 1407h-27q-27 0 -27 27v14q0 16 13 33
l135 172q10 16 33 16h69q27 0 27 -27v-20q0 -19 -14 -33l-177 -170q-14 -12 -32 -12z" />
    <glyph glyph-name="Abreve.ss01" 
d="M715 518l-172 610l-172 -610h344zM948 123v-96q0 -27 -26 -27h-70q-27 0 -27 27v102l-77 274h-410l-76 -268v-108q0 -27 -26 -27h-70q-27 0 -27 27v96q0 8 4 33l330 1132q6 23 29 23h82q22 0 28 -23l332 -1132q4 -25 4 -33zM546 1423q-171 0 -251 158q-8 16 -8 33v14
q0 27 26 27h13q20 0 32 -19q66 -116 188 -116t179 114q12 20 33 21h12q27 0 27 -27v-14q0 -10 -4 -27q-76 -164 -247 -164z" />
    <glyph glyph-name="Adieresis.ss01" 
d="M715 518l-172 610l-172 -610h344zM948 123v-96q0 -27 -26 -27h-70q-27 0 -27 27v102l-77 274h-410l-76 -268v-108q0 -27 -26 -27h-70q-27 0 -27 27v96q0 8 4 33l330 1132q6 23 29 23h82q22 0 28 -23l332 -1132q4 -25 4 -33zM786 1597v-96q0 -27 -26 -26h-96q-27 0 -27 26
v96q0 27 27 27h96q26 0 26 -27zM449 1597v-96q0 -27 -27 -26h-96q-27 0 -27 26v96q0 27 27 27h96q27 0 27 -27z" />
    <glyph glyph-name="Adotbelow.ss01" 
d="M467 -217v98q0 27 27 27h98q27 0 26 -27v-98q0 -27 -26 -27h-98q-27 0 -27 27zM715 518l-172 610l-172 -610h344zM948 123v-96q0 -27 -26 -27h-70q-27 0 -27 27v102l-77 274h-410l-76 -268v-108q0 -27 -26 -27h-70q-27 0 -27 27v96q0 8 4 33l330 1132q6 23 29 23h82
q22 0 28 -23l332 -1132q4 -25 4 -33z" />
    <glyph glyph-name="Agrave.ss01" 
d="M715 518l-172 610l-172 -610h344zM948 123v-96q0 -27 -26 -27h-70q-27 0 -27 27v102l-77 274h-410l-76 -268v-108q0 -27 -26 -27h-70q-27 0 -27 27v96q0 8 4 33l330 1132q6 23 29 23h82q22 0 28 -23l332 -1132q4 -25 4 -33zM655 1407h-28q-16 0 -33 12l-176 170
q-14 14 -15 33v20q0 27 27 27h70q23 0 32 -16l138 -172q12 -16 12 -33v-14q0 -27 -27 -27z" />
    <glyph glyph-name="Amacron.ss01" 
d="M715 518l-172 610l-172 -610h344zM948 123v-96q0 -27 -26 -27h-70q-27 0 -27 27v102l-77 274h-410l-76 -268v-108q0 -27 -26 -27h-70q-27 0 -27 27v96q0 8 4 33l330 1132q6 23 29 23h82q22 0 28 -23l332 -1132q4 -25 4 -33zM780 1538v-49q0 -27 -26 -27h-422
q-27 0 -27 27v49q0 27 27 27h422q26 0 26 -27z" />
    <glyph glyph-name="Aogonek.ss01" 
d="M715 518l-172 610l-172 -610h344zM948 123v-98q0 -25 -24 -31q-104 -29 -105 -94q0 -45 53 -45h50q27 0 26 -27v-27q0 -27 -24 -28q-61 -4 -99 -4t-70 29.5t-32 76.5q0 96 102 145v109l-77 274h-410l-76 -268v-108q0 -27 -26 -27h-70q-27 0 -27 27v96q0 8 4 33l330 1132
q6 23 29 23h82q23 0 28 -23l332 -1132q4 -25 4 -33z" />
    <glyph glyph-name="Aring.ss01" 
d="M715 518l-172 610l-172 -610h344zM948 123v-96q0 -27 -26 -27h-70q-27 0 -27 27v102l-77 274h-410l-76 -268v-108q0 -27 -26 -27h-70q-27 0 -27 27v96q0 8 4 33l330 1132q6 23 29 23h82q22 0 28 -23l332 -1132q4 -25 4 -33zM543 1661q-41 0 -65.5 -25.5t-24.5 -62.5
t25.5 -62.5t64.5 -25.5t64.5 25.5t25.5 62.5t-24.5 62.5t-65.5 25.5zM542.5 1405q-75.5 0 -123.5 47t-48 118.5t46 121t126 49.5t126 -49.5t46 -121t-48.5 -118.5t-124 -47z" />
    <glyph glyph-name="Aringacute.ss01" 
d="M715 518l-172 610l-172 -610h344zM948 123v-96q0 -27 -26 -27h-70q-27 0 -27 27v102l-77 274h-410l-76 -268v-108q0 -27 -26 -27h-70q-27 0 -27 27v96q0 8 4 33l330 1132q6 23 29 23h82q22 0 28 -23l332 -1132q4 -25 4 -33zM543 1624q-41 0 -65.5 -25.5t-24.5 -63.5
t25.5 -63.5t64.5 -25.5t64.5 25.5t25.5 63.5t-24.5 63.5t-65.5 25.5zM542.5 1366q-75.5 0 -123.5 47t-48 119t46 121t126 49t126 -49t46 -121t-48.5 -119t-124 -47zM459 1743h-29q-27 0 -27 26v15q0 18 13 33l135 172q10 16 33 16h71q27 0 27 -27v-20q0 -19 -14 -33
l-176 -170q-16 -12 -33 -12z" />
    <glyph glyph-name="Atilde.ss01" 
d="M715 518l-172 610l-172 -610h344zM948 123v-96q0 -27 -26 -27h-70q-27 0 -27 27v102l-77 274h-410l-76 -268v-108q0 -27 -26 -27h-70q-27 0 -27 27v96q0 8 4 33l330 1132q6 23 29 23h82q22 0 28 -23l332 -1132q4 -25 4 -33zM409.5 1548q-49.5 0 -79.5 -47
q-16 -23 -35 -14l-25 8q-27 10 -14 35q53 115 166 115q68 0 149 -58q57 -45 107 -45t78 49q16 23 35 15l22 -9q31 -8 16 -34q-53 -115 -163 -115q-70 0 -152 57q-55 43 -104.5 43z" />
    <glyph glyph-name="AE.ss01" 
d="M539 518v684l-199 -684h199zM655 1196v-483h209q27 0 27 -27v-61q0 -27 -27 -27h-209v-483h289q27 0 27 -27v-61q0 -27 -27 -27h-379q-27 0 -26 27v376h-232l-80 -276v-100q0 -27 -26 -27h-70q-27 0 -27 27v96q0 8 5 33l337 1132q6 23 29 23h469q27 0 27 -27v-61
q0 -27 -27 -27h-289z" />
    <glyph glyph-name="AEacute.ss01" 
d="M539 518v684l-199 -684h199zM655 1196v-483h209q27 0 27 -27v-61q0 -27 -27 -27h-209v-483h289q27 0 27 -27v-61q0 -27 -27 -27h-379q-27 0 -26 27v376h-232l-80 -276v-100q0 -27 -26 -27h-70q-27 0 -27 27v96q0 8 5 33l337 1132q6 23 29 23h469q27 0 27 -27v-61
q0 -27 -27 -27h-289zM522 1409h-26q-27 0 -27 27v14q0 16 12 33l135 172q10 16 33 16h70q27 0 26 -26v-21q0 -19 -14 -33l-176 -170q-14 -12 -33 -12z" />
    <glyph glyph-name="F.ss01" 
d="M313 1196v-483h455q27 0 27 -27v-61q0 -27 -27 -27h-455v-571q0 -27 -26 -27h-70q-27 0 -27 27v1257q0 27 27 27h653q27 0 27 -27v-61q0 -27 -27 -27h-557z" />
    <glyph glyph-name="L.ss01" horiz-adv-x="1044" 
d="M313 115h557q27 0 27 -27v-61q0 -27 -27 -27h-653q-27 0 -27 27v1257q0 27 27 27h70q27 0 26 -27v-1169z" />
    <glyph glyph-name="Lacute.ss01" horiz-adv-x="1044" 
d="M313 115h557q27 0 27 -27v-61q0 -27 -27 -27h-653q-27 0 -27 27v1257q0 27 27 27h70q27 0 26 -27v-1169zM457 1407h-27q-27 0 -27 27v14q0 16 13 33l135 172q10 16 33 16h69q27 0 27 -27v-20q0 -19 -14 -33l-177 -170q-14 -12 -32 -12z" />
    <glyph glyph-name="Lcaron.ss01" horiz-adv-x="1044" 
d="M561 1190q-27 0 -26 27v67q0 27 26 27h88q27 0 27 -27v-37q0 -8 -4 -33l-35 -110q-6 -23 -29 -23h-6q-29 0 -22 29l14 80h-33zM313 115h557q27 0 27 -27v-61q0 -27 -27 -27h-653q-27 0 -27 27v1257q0 27 27 27h70q27 0 26 -27v-1169z" />
    <glyph glyph-name="Lcommaaccent.ss01" horiz-adv-x="1044" 
d="M471 -188v69q0 27 27 27h88q27 0 26 -27v-37q0 -8 -4 -32l-35 -111q-6 -23 -28 -23h-6q-29 0 -23 29l14 78h-32q-27 0 -27 27zM313 115h557q27 0 27 -27v-61q0 -27 -27 -27h-653q-27 0 -27 27v1257q0 27 27 27h70q27 0 26 -27v-1169z" />
    <glyph glyph-name="Ldot.ss01" horiz-adv-x="1044" 
d="M877 741v-98q0 -27 -27 -27h-98q-27 0 -27 27v98q0 27 27 27h98q27 0 27 -27zM313 115h557q27 0 27 -27v-61q0 -27 -27 -27h-653q-27 0 -27 27v1257q0 27 27 27h70q27 0 26 -27v-1169z" />
    <glyph glyph-name="Lslash.ss01" horiz-adv-x="1044" 
d="M313 115h557q27 0 27 -27v-61q0 -27 -27 -27h-653q-27 0 -27 27v579l-86 -22q-31 -10 -30 22v53q0 23 22 29l94 25v571q0 27 27 27h70q27 0 26 -27v-539l183 50q31 10 30 -23v-53q0 -23 -22 -29l-191 -51v-524z" />
    <glyph glyph-name="P.ss01" 
d="M279 1196v-485h264q264 0 264 233v17q0 236 -264 235h-264zM182 1311h361q195 0 291 -92.5t96 -264.5t-96.5 -265t-290.5 -93h-264v-569q0 -27 -27 -27h-70q-27 0 -26 27v1257q-1 27 26 27z" />
    <glyph glyph-name="T.ss01" horiz-adv-x="1044" 
d="M948 1284v-61q0 -27 -26 -27h-338v-1169q0 -27 -27 -27h-70q-27 0 -26 27v1169h-336q-27 0 -27 27v61q0 27 27 27h797q26 0 26 -27z" />
    <glyph glyph-name="Tbar.ss01" horiz-adv-x="1044" 
d="M584 1196v-473h168q27 0 26 -27v-61q0 -27 -26 -27h-168v-581q0 -27 -27 -27h-70q-27 0 -26 27v581h-168q-27 0 -27 27v61q0 27 27 27h168v473h-336q-27 0 -27 27v61q0 27 27 27h797q27 0 26 -27v-61q0 -27 -26 -27h-338z" />
    <glyph glyph-name="Tcaron.ss01" horiz-adv-x="1044" 
d="M948 1284v-61q0 -27 -26 -27h-338v-1169q0 -27 -27 -27h-70q-27 0 -26 27v1169h-336q-27 0 -27 27v61q0 27 27 27h797q26 0 26 -27zM541 1407h-39q-18 0 -33 14l-174 176q-14 14 -14 33v12q0 27 26 27h17q16 0 32 -12l166 -141l164 141q14 12 33 12h18q27 0 27 -27v-12
q0 -18 -14 -33l-177 -176q-14 -14 -32 -14z" />
    <glyph glyph-name="Tcedilla.ss01" horiz-adv-x="1044" 
d="M584 1196v-1190q82 -25 82 -125v-16q0 -129 -138 -129q-117 0 -133 90q-4 27 27 27h33q14 -1 27 -19t46 -18q51 0 52 45v26q0 43 -52 43h-41q-27 0 -26 27v1239h-336q-27 0 -27 27v61q0 27 27 27h797q27 0 26 -27v-61q0 -27 -26 -27h-338z" />
    <glyph glyph-name="uni021A.ss01" horiz-adv-x="1044" 
d="M451 -188v69q0 27 26 27h88q27 0 27 -27v-37q0 -8 -4 -32l-35 -111q-6 -23 -29 -23h-6q-29 0 -22 29l14 78h-33q-26 0 -26 27zM125 1311h797q27 0 26 -27v-61q0 -27 -26 -27h-338v-1169q0 -27 -27 -27h-70q-27 0 -26 27v1169h-336q-27 0 -27 27v61q0 27 27 27z" />
    <glyph glyph-name="V.ss01" 
d="M852 1311h70q27 0 26 -27v-94q0 -8 -4 -33l-332 -1134q-6 -23 -28 -23h-82q-23 0 -29 23l-330 1134q-4 25 -4 33v94q0 27 27 27h70q27 0 26 -27v-108l281 -994l282 1000v102q0 27 27 27z" />
    <glyph glyph-name="W.ss01" 
d="M874 1311h64q31 0 27 -29l-115 -1257q-2 -25 -27 -25h-43q-23 0 -30 20l-207 560l-205 -560q-8 -20 -31 -20h-43q-23 0 -26 25l-117 1257q-4 29 26 29h66q25 0 27 -25l94 -995l162 432q8 20 30 20h31q23 0 31 -20l164 -434l96 997q3 25 26 25z" />
    <glyph glyph-name="Wacute.ss01" 
d="M874 1311h64q31 0 27 -29l-115 -1257q-2 -25 -27 -25h-43q-23 0 -30 20l-207 560l-205 -560q-8 -20 -31 -20h-43q-23 0 -26 25l-117 1257q-4 29 26 29h66q25 0 27 -25l94 -995l162 432q8 20 30 20h31q23 0 31 -20l164 -434l96 997q3 25 26 25zM457 1407h-27q-27 0 -27 27
v14q0 16 13 33l135 172q10 16 33 16h69q27 0 27 -27v-20q0 -19 -14 -33l-177 -170q-14 -12 -32 -12z" />
    <glyph glyph-name="Wcircumflex.ss01" 
d="M874 1311h64q31 0 27 -29l-115 -1257q-2 -25 -27 -25h-43q-23 0 -30 20l-207 560l-205 -560q-8 -20 -31 -20h-43q-23 0 -26 25l-117 1257q-4 29 26 29h66q25 0 27 -25l94 -995l162 432q8 20 30 20h31q23 0 31 -20l164 -434l96 997q3 25 26 25zM344 1407h-16q-27 0 -27 27
v12q0 18 14 33l174 176q14 14 33 14h39q18 0 33 -14l176 -176q14 -14 14 -33v-12q0 -27 -26 -27h-19q-18 0 -32 12l-164 142l-166 -142q-14 -12 -33 -12z" />
    <glyph glyph-name="Wdieresis.ss01" 
d="M874 1311h64q31 0 27 -29l-115 -1257q-2 -25 -27 -25h-43q-23 0 -30 20l-207 560l-205 -560q-8 -20 -31 -20h-43q-23 0 -26 25l-117 1257q-4 29 26 29h66q25 0 27 -25l94 -995l162 432q8 20 30 20h31q23 0 31 -20l164 -434l96 997q3 25 26 25zM786 1597v-96
q0 -27 -26 -26h-96q-27 0 -27 26v96q0 27 27 27h96q26 0 26 -27zM449 1597v-96q0 -27 -27 -26h-96q-27 0 -27 26v96q0 27 27 27h96q27 0 27 -27z" />
    <glyph glyph-name="Wgrave.ss01" 
d="M874 1311h64q31 0 27 -29l-115 -1257q-2 -25 -27 -25h-43q-23 0 -30 20l-207 560l-205 -560q-8 -20 -31 -20h-43q-23 0 -26 25l-117 1257q-4 29 26 29h66q25 0 27 -25l94 -995l162 432q8 20 30 20h31q23 0 31 -20l164 -434l96 997q3 25 26 25zM655 1407h-28q-16 0 -33 12
l-176 170q-14 14 -15 33v20q0 27 27 27h70q23 0 32 -16l138 -172q12 -16 12 -33v-14q0 -27 -27 -27z" />
    <glyph glyph-name="Y.ss01" 
d="M944 1284v-143q0 -18 -8 -33l-332 -573v-508q0 -27 -26 -27h-70q-27 0 -27 27v508l-331 573q-8 14 -9 33v143q0 27 27 27h70q27 0 26 -27v-129l279 -498l278 498v129q0 27 27 27h70q26 0 26 -27z" />
    <glyph glyph-name="Yacute.ss01" 
d="M944 1284v-143q0 -18 -8 -33l-332 -573v-508q0 -27 -26 -27h-70q-27 0 -27 27v508l-331 573q-8 14 -9 33v143q0 27 27 27h70q27 0 26 -27v-129l279 -498l278 498v129q0 27 27 27h70q26 0 26 -27zM457 1407h-27q-27 0 -27 27v14q0 16 13 33l135 172q10 16 33 16h69
q27 0 27 -27v-20q0 -19 -14 -33l-177 -170q-14 -12 -32 -12z" />
    <glyph glyph-name="Ycircumflex.ss01" 
d="M944 1284v-143q0 -18 -8 -33l-332 -573v-508q0 -27 -26 -27h-70q-27 0 -27 27v508l-331 573q-8 14 -9 33v143q0 27 27 27h70q27 0 26 -27v-129l279 -498l278 498v129q0 27 27 27h70q26 0 26 -27zM344 1407h-16q-27 0 -27 27v12q0 18 14 33l174 176q14 14 33 14h39
q18 0 33 -14l176 -176q14 -14 14 -33v-12q0 -27 -26 -27h-19q-18 0 -32 12l-164 142l-166 -142q-14 -12 -33 -12z" />
    <glyph glyph-name="Ydieresis.ss01" 
d="M944 1284v-143q0 -18 -8 -33l-332 -573v-508q0 -27 -26 -27h-70q-27 0 -27 27v508l-331 573q-8 14 -9 33v143q0 27 27 27h70q27 0 26 -27v-129l279 -498l278 498v129q0 27 27 27h70q26 0 26 -27zM786 1597v-96q0 -27 -26 -26h-96q-27 0 -27 26v96q0 27 27 27h96
q26 0 26 -27zM449 1597v-96q0 -27 -27 -26h-96q-27 0 -27 26v96q0 27 27 27h96q27 0 27 -27z" />
    <glyph glyph-name="Ygrave.ss01" 
d="M944 1284v-143q0 -18 -8 -33l-332 -573v-508q0 -27 -26 -27h-70q-27 0 -27 27v508l-331 573q-8 14 -9 33v143q0 27 27 27h70q27 0 26 -27v-129l279 -498l278 498v129q0 27 27 27h70q26 0 26 -27zM655 1407h-28q-16 0 -33 12l-176 170q-14 14 -15 33v20q0 27 27 27h70
q23 0 32 -16l138 -172q12 -16 12 -33v-14q0 -27 -27 -27z" />
    <glyph glyph-name="Ymacron.ss01" 
d="M944 1284v-143q0 -18 -8 -33l-332 -573v-508q0 -27 -26 -27h-70q-27 0 -27 27v508l-331 573q-8 14 -9 33v143q0 27 27 27h70q27 0 26 -27v-129l279 -498l278 498v129q0 27 27 27h70q26 0 26 -27zM780 1538v-49q0 -27 -26 -27h-422q-27 0 -27 27v49q0 27 27 27h422
q26 0 26 -27z" />
    <glyph glyph-name="Ytilde.ss01" 
d="M944 1284v-143q0 -18 -8 -33l-332 -573v-508q0 -27 -26 -27h-70q-27 0 -27 27v508l-331 573q-8 14 -9 33v143q0 27 27 27h70q27 0 26 -27v-129l279 -498l278 498v129q0 27 27 27h70q26 0 26 -27zM409.5 1548q-49.5 0 -79.5 -47q-16 -23 -35 -14l-25 8q-27 10 -14 35
q53 115 166 115q68 0 149 -58q57 -45 107 -45t78 49q16 23 35 15l22 -9q31 -8 16 -34q-53 -115 -163 -115q-70 0 -152 57q-55 43 -104.5 43z" />
    <glyph glyph-name="i.loclTRK" 
d="M604 115h240q27 0 26 -27v-61q0 -27 -26 -27h-602q-27 0 -27 27v61q0 27 27 27h239v712h-239q-27 0 -27 27v61q0 27 27 27h336q27 0 26 -27v-800zM618 1262v-97q0 -27 -26 -26h-98q-27 0 -27 26v97q0 27 27 26h98q26 1 26 -26z" />
    <glyph glyph-name="ae.ss01" horiz-adv-x="1654" 
d="M489 90q174 0 261 100q-25 70 -25 158v107h-193q-123 0 -189.5 -50.5t-66.5 -128.5v-16q0 -84 58.5 -127t154.5 -43zM1112 850q-264 0 -264 -248v-53h528v61q0 115 -66.5 177.5t-197.5 62.5zM848 455v-115q0 -248 264 -248q117 0 184.5 48t77.5 124q2 25 29 25h70
q29 0 24 -27q-10 -121 -109.5 -201.5t-275.5 -80.5q-225 0 -321 131q-102 -131 -308 -131q-152 0 -239.5 70.5t-87.5 203.5v12q0 131 97 208t279 75h193v47q0 100 31 174q-55 84 -197 84q-102 0 -162.5 -39t-79.5 -92q-10 -23 -30 -23h-60q-31 0 -26 27q16 92 111.5 164
t261.5 72t253 -91q96 90 287 90t288 -95t97 -269v-117q0 -27 -26 -26h-625z" />
    <glyph glyph-name="aeacute.ss01" horiz-adv-x="1654" 
d="M489 90q174 0 261 100q-25 70 -25 158v107h-193q-123 0 -189.5 -50.5t-66.5 -128.5v-16q0 -84 58.5 -127t154.5 -43zM1112 850q-264 0 -264 -248v-53h528v61q0 115 -66.5 177.5t-197.5 62.5zM848 455v-115q0 -248 264 -248q117 0 184.5 48t77.5 124q2 25 29 25h70
q29 0 24 -27q-10 -121 -109.5 -201.5t-275.5 -80.5q-225 0 -321 131q-102 -131 -308 -131q-152 0 -239.5 70.5t-87.5 203.5v12q0 131 97 208t279 75h193v47q0 100 31 174q-55 84 -197 84q-102 0 -162.5 -39t-79.5 -92q-10 -23 -30 -23h-60q-31 0 -26 27q16 92 111.5 164
t262 72t252.5 -91q96 90 287 90.5t288 -95t97 -269.5v-117q0 -27 -26 -26h-625zM797 1069h-27q-27 0 -27 27v14q0 16 13 33l135 172q10 16 33 16h69q27 0 27 -26v-21q0 -19 -14 -33l-177 -170q-14 -12 -32 -12z" />
    <glyph glyph-name="f.ss01" horiz-adv-x="765" 
d="M532 1264q-62 0 -95.5 -39t-33.5 -111v-172h193q27 0 27 -27v-61q0 -27 -27 -27h-193v-800q0 -27 -26 -27h-70q-27 0 -26 27v800h-164q-27 0 -27 27v61q0 27 27 27h164v164q0 125 63.5 195.5t167.5 70.5t199 -51q23 -12 10 -35l-23 -45q-12 -20 -30 -14q-74 37 -136 37z
" />
    <glyph glyph-name="i.ss01" horiz-adv-x="550" 
d="M338 915v-888q0 -27 -27 -27h-69q-27 0 -27 27v888q0 27 27 27h69q27 0 27 -27zM356 1266v-109q0 -27 -26 -27h-109q-27 0 -26 27v109q0 27 26 26h109q26 1 26 -26z" />
    <glyph glyph-name="dotlessi.ss01" horiz-adv-x="550" 
d="M338 915v-888q0 -27 -27 -27h-69q-27 0 -27 27v888q0 27 27 27h69q27 0 27 -27z" />
    <glyph glyph-name="iacute.ss01" horiz-adv-x="550" 
d="M338 915v-888q0 -27 -27 -27h-69q-27 0 -27 27v888q0 27 27 27h69q27 0 27 -27zM414 1305v-21q0 -18 -15 -33l-176 -170q-16 -12 -33 -12h-26q-27 0 -27 27v14q0 16 13 33l135 172q10 16 32 16h70q27 1 27 -26z" />
    <glyph glyph-name="ibreve.ss01" horiz-adv-x="550" 
d="M338 915v-888q0 -27 -27 -27h-69q-27 0 -27 27v888q0 27 27 27h69q27 0 27 -27zM530 1290v-14q0 -14 -6 -33q-80 -158 -248 -158t-247 158q-8 16 -9 33v14q0 27 27 27h12q20 0 33 -19q66 -116 188 -116t179 114q12 20 33 21h12q26 0 26 -27z" />
    <glyph glyph-name="icircumflex.ss01" horiz-adv-x="550" 
d="M215 27v888q0 27 27 27h69q27 0 27 -27v-888q0 -27 -27 -27h-69q-27 0 -27 27zM516 1108v-12q0 -27 -27 -27h-18q-16 0 -33 12l-164 142l-165 -142q-16 -12 -33 -12h-17q-27 0 -26 27v12q0 18 14 33l174 176q14 14 33 14h39q19 0 33 -14l176 -176q14 -14 14 -33z" />
    <glyph glyph-name="idieresis.ss01" horiz-adv-x="550" 
d="M338 915v-888q0 -27 -27 -27h-69q-27 0 -27 27v888q0 27 27 27h69q27 0 27 -27zM518 1260v-97q0 -27 -26 -26h-97q-27 0 -26 26v97q0 27 26 26h97q26 1 26 -26zM180 1260v-97q0 -27 -26 -26h-97q-27 0 -26 26v97q0 27 26 26h97q26 1 26 -26z" />
    <glyph glyph-name="i.loclTRK.ss01" horiz-adv-x="550" 
d="M338 915v-888q0 -27 -27 -27h-69q-27 0 -27 27v888q0 27 27 27h69q27 0 27 -27zM350 1262v-97q0 -27 -26 -26h-99q-27 0 -26 26v97q0 27 26 26h99q26 1 26 -26z" />
    <glyph glyph-name="idotbelow.ss01" horiz-adv-x="550" 
d="M350 -178v-96q0 -27 -26 -27h-97q-27 0 -26 27v96q0 27 26 26h97q26 1 26 -26zM338 915v-888q0 -27 -27 -27h-69q-27 0 -27 27v888q0 27 27 27h69q27 0 27 -27z" />
    <glyph glyph-name="igrave.ss01" horiz-adv-x="550" 
d="M338 915v-888q0 -27 -27 -27h-69q-27 0 -27 27v888q0 27 27 27h69q27 0 27 -27zM414 1096q0 -27 -27 -27h-29q-18 0 -32 12l-176 170q-14 14 -15 33v21q0 27 27 26h69q23 0 33 -16l137 -172q12 -14 13 -33v-14z" />
    <glyph glyph-name="imacron.ss01" horiz-adv-x="550" 
d="M338 915v-888q0 -27 -27 -27h-69q-27 0 -27 27v888q0 27 27 27h69q27 0 27 -27zM512 1200v-49q0 -27 -27 -27h-422q-27 0 -26 27v49q0 27 26 27h422q27 0 27 -27z" />
    <glyph glyph-name="iogonek.ss01" horiz-adv-x="550" 
d="M215 915q0 27 27 27h69q27 0 27 -27v-895q0 -20 -25 -26q-106 -29 -106 -94q0 -45 53 -45h49q27 0 27 -27v-27q0 -27 -25 -28q-61 -4 -99 -4t-69.5 29.5t-31.5 76.5q0 97 104 148v892zM225 1288h99q27 0 26 -26v-97q0 -27 -26 -26h-99q-27 0 -26 26v97q-1 26 26 26z" />
    <glyph glyph-name="itilde.ss01" horiz-adv-x="550" 
d="M338 915v-888q0 -27 -27 -27h-69q-27 0 -27 27v888q0 27 27 27h69q27 0 27 -27zM154 1307q68 0 149 -58q57 -45 107 -45t77 49q16 23 35 15l23 -8q31 -8 16 -35q-53 -115 -164 -115q-70 0 -151 57q-55 43 -104.5 43t-80.5 -47q-16 -23 -34 -14l-25 8q-27 10 -14 37
q53 113 166 113z" />
    <glyph glyph-name="j.ss01" horiz-adv-x="628" 
d="M416 915v-909q0 -133 -59.5 -205.5t-174.5 -72.5q-80 0 -178 36q-25 8 -14 35l16 47q8 25 35 15q65 -25 129 -25t93.5 39t29.5 129v911q0 27 26 27h70q27 0 27 -27zM434 1266v-109q0 -27 -26 -27h-109q-27 0 -27 27v109q0 27 27 26h109q26 1 26 -26z" />
    <glyph glyph-name="dotlessj.ss01" horiz-adv-x="628" 
d="M416 915v-909q0 -133 -59.5 -205.5t-174.5 -72.5q-80 0 -178 36q-25 8 -14 35l16 47q8 25 35 15q65 -25 129 -25t93.5 39t29.5 129v911q0 27 26 27h70q27 0 27 -27z" />
    <glyph glyph-name="jcircumflex.ss01" horiz-adv-x="628" 
d="M293 4v911q0 27 26 27h70q27 0 27 -27v-909q0 -133 -59.5 -205.5t-174.5 -72.5q-80 0 -178 36q-25 8 -14 35l16 47q8 25 35 15q65 -25 129 -25t93.5 39t29.5 129zM594 1108v-12q0 -27 -27 -27h-18q-16 0 -33 12l-164 142l-166 -142q-14 -12 -32 -12h-17q-27 0 -26 27v12
q0 18 14 33l174 176q14 14 33 14h39q18 0 32 -14l177 -176q14 -14 14 -33z" />
    <glyph glyph-name="l.ss01" horiz-adv-x="518" 
d="M319 1284v-1257q0 -27 -26 -27h-70q-27 0 -26 27v1257q0 27 26 27h70q26 0 26 -27z" />
    <glyph glyph-name="lacute.ss01" horiz-adv-x="518" 
d="M319 1284v-1257q0 -27 -26 -27h-70q-27 0 -26 27v1257q0 27 26 27h70q26 0 26 -27zM395 1642v-20q0 -18 -14 -33l-176 -170q-16 -12 -33 -12h-27q-27 0 -26 27v14q0 16 12 33l135 172q10 16 33 16h70q26 0 26 -27z" />
    <glyph glyph-name="lcaron.ss01" horiz-adv-x="518" 
d="M397 1311h88q27 0 27 -27v-37q0 -8 -4 -33l-35 -110q-6 -23 -29 -23h-6q-29 0 -22 29l14 80h-33q-27 0 -26 27v67q-1 27 26 27zM172 27v1257q0 27 27 27h69q27 0 27 -27v-1257q0 -27 -27 -27h-69q-27 0 -27 27z" />
    <glyph glyph-name="lcommaaccent.ss01" horiz-adv-x="518" 
d="M215 -92h88q27 0 27 -27v-37q0 -8 -4 -32l-35 -111q-6 -23 -29 -23h-6q-29 0 -23 29l15 78h-33q-27 0 -27 27v69q0 27 27 27zM319 1284v-1257q0 -27 -26 -27h-70q-27 0 -26 27v1257q0 27 26 27h70q26 0 26 -27z" />
    <glyph glyph-name="ldot.ss01" horiz-adv-x="518" 
d="M596 717v-113q0 -27 -27 -26h-114q-27 0 -27 26v113q0 27 27 26h114q27 1 27 -26zM319 1284v-1257q0 -27 -26 -27h-70q-27 0 -26 27v1257q0 27 26 27h70q26 0 26 -27z" />
    <glyph glyph-name="lslash.ss01" horiz-adv-x="518" 
d="M451 764v-55q0 -23 -23 -29l-109 -29v-624q0 -27 -26 -27h-70q-27 0 -26 27v591l-99 -26q-31 -10 -30 22v56q0 23 22 28l107 29v557q0 27 26 27h70q27 0 26 -27v-524l101 26q31 11 31 -22z" />
    <glyph glyph-name="m.ss01" horiz-adv-x="1634" 
d="M756 621q0 227 -202 227q-100 0 -180.5 -71.5t-80.5 -182.5v-567q0 -27 -27 -27h-69q-27 0 -27 27v888q0 27 27 27h47q27 0 28 -24l15 -103q49 70 127 109t161 39q215 0 279 -179q45 82 129 130.5t180 48.5q143 0 222 -84t79 -252v-600q0 -27 -26 -27h-70q-27 0 -27 27
v594q1 227 -201 227q-100 0 -180.5 -71.5t-80.5 -182.5v-567q0 -27 -27 -27h-70q-27 0 -26 27v594z" />
    <glyph glyph-name="oe.ss01" horiz-adv-x="1644" 
d="M545 94q133 0 205 72q-35 72 -35 182v248q0 111 35 182q-70 70 -204 70t-200.5 -64.5t-66.5 -183.5v-258q0 -119 66.5 -183.5t199.5 -64.5zM1102 850q-264 0 -264 -248v-53h528v61q0 115 -66.5 177.5t-197.5 62.5zM838 455v-115q0 -248 264 -248q117 0 184.5 48t77.5 124
q4 25 29 25h69q29 0 25 -27q-10 -121 -109.5 -201.5t-278.5 -80.5t-278 86q-98 -86 -284.5 -86t-283.5 96t-97 272v248q0 176 97 271.5t284.5 95.5t283.5 -86q98 86 286 86t285 -95.5t97 -269.5v-117q0 -27 -27 -26h-624z" />
    <glyph glyph-name="r.ss01" horiz-adv-x="665" 
d="M604 872q0 -27 -26 -26q-145 -8 -217 -78t-72 -182v-559q0 -27 -27 -27h-69q-27 0 -27 27v888q0 27 27 27h49q24 1 28 -24l15 -107q86 143 293 152q27 0 26 -27v-64z" />
    <glyph glyph-name="racute.ss01" horiz-adv-x="665" 
d="M604 872q0 -27 -26 -26q-145 -8 -217 -78t-72 -182v-559q0 -27 -27 -27h-69q-27 0 -27 27v888q0 27 27 27h49q24 1 28 -24l15 -107q86 143 293 152q27 0 26 -27v-64zM299 1069h-27q-27 0 -26 27v14q0 16 12 33l135 172q10 16 33 16h70q27 0 26 -26v-21q0 -19 -14 -33
l-176 -170q-14 -12 -33 -12z" />
    <glyph glyph-name="rcaron.ss01" horiz-adv-x="665" 
d="M604 872q0 -27 -26 -26q-145 -8 -217 -78t-72 -182v-559q0 -27 -27 -27h-69q-27 0 -27 27v888q0 27 27 27h49q24 1 28 -24l15 -107q86 143 293 152q27 0 26 -27v-64zM582 1331h18q27 0 27 -26v-13q0 -18 -15 -32l-176 -177q-14 -14 -33 -14h-38q-18 0 -33 14l-174 177
q-14 14 -15 32v13q0 27 27 26h16q18 0 33 -12l166 -141l164 141q15 12 33 12z" />
    <glyph glyph-name="rcommaaccent.ss01" horiz-adv-x="665" 
d="M291 -188v69q0 27 26 27h89q27 0 26 -27v-37q0 -8 -4 -32l-35 -111q-6 -23 -28 -23h-7q-29 0 -22 29l14 78h-33q-26 0 -26 27zM604 872q0 -27 -26 -26q-145 -8 -217 -78t-72 -182v-559q0 -27 -27 -27h-69q-27 0 -27 27v888q0 27 27 27h49q24 1 28 -24l15 -107
q86 143 293 152q27 0 26 -27v-64z" />
    <glyph glyph-name="t.ss01" horiz-adv-x="765" 
d="M491.5 -20q-106.5 0 -170 70.5t-63.5 195.5v581h-164q-27 0 -26 27v61q0 27 26 27h164v182q0 27 25 29l69 14q29 6 29 -24v-201h194q27 0 27 -27v-61q0 -27 -27 -27h-194v-587q0 -72 34 -112t93 -40t133 33q23 13 35 -10l22 -45q12 -23 -10 -35q-90 -51 -196.5 -51z" />
    <glyph glyph-name="tbar.ss01" horiz-adv-x="765" 
d="M491.5 -20q-106.5 0 -170 70.5t-63.5 195.5v321h-164q-27 0 -26 27v55q0 27 26 27h164v151h-164q-27 0 -26 27v61q0 27 26 27h164v182q0 27 25 29l69 14q29 6 29 -24v-201h194q27 0 27 -27v-61q0 -27 -27 -27h-194v-151h194q27 0 27 -27v-55q0 -27 -27 -27h-194v-327
q0 -72 34 -112t93 -40t133 33q23 13 35 -10l22 -45q12 -23 -10 -35q-90 -51 -196.5 -51z" />
    <glyph glyph-name="tcaron.ss01" horiz-adv-x="765" 
d="M491.5 -20q-106.5 0 -170 70.5t-63.5 195.5v581h-164q-27 0 -26 27v61q0 27 26 27h164v182q0 27 25 29l69 14q29 6 29 -24v-201h194q27 0 27 -27v-61q0 -27 -27 -27h-194v-587q0 -72 34 -112t93 -40t133 33q23 13 35 -10l22 -45q12 -23 -10 -35q-90 -51 -196.5 -51z
M551 1186q-27 0 -27 26v68q0 27 27 27h88q27 0 27 -27v-37q0 -8 -4 -33l-35 -110q-6 -23 -29 -23h-6q-29 0 -23 29l15 80h-33z" />
    <glyph glyph-name="tcedilla.ss01" horiz-adv-x="765" 
d="M606 -119v-16q0 -129 -137 -129q-115 0 -131 90q-4 27 27 27h30q14 0 27.5 -18.5t46.5 -18.5q51 0 51 45v26q0 43 -51 43h-39q-27 0 -27 27v39q-145 53 -145 250v581h-164q-27 0 -26 27v61q0 27 26 27h164v182q0 27 25 29l69 14q29 6 29 -24v-201h194q27 0 27 -27v-61
q0 -27 -27 -27h-194v-587q0 -72 34 -112t93 -40t133 33q23 12 35 -10l22 -45q12 -23 -4 -33q-63 -33 -131 -47q43 -35 43 -105z" />
    <glyph glyph-name="uni021B.ss01" horiz-adv-x="765" 
d="M399 -188v69q0 27 27 27h88q27 0 27 -27v-37q0 -8 -4 -32l-35 -111q-6 -23 -29 -23h-6q-29 0 -23 29l15 78h-33q-27 0 -27 27zM491.5 -20q-106.5 0 -170 70.5t-63.5 195.5v581h-164q-27 0 -26 27v61q0 27 26 27h164v182q0 27 25 29l69 14q29 6 29 -24v-201h194
q27 0 27 -27v-61q0 -27 -27 -27h-194v-587q0 -72 34 -112t93 -40t133 33q23 13 35 -10l22 -45q12 -23 -10 -35q-90 -51 -196.5 -51z" />
    <glyph glyph-name="w.ss01" horiz-adv-x="1353" 
d="M1139 942h63q31 0 25 -29l-187 -888q-4 -25 -28 -25h-68q-23 0 -31 20l-235 541l-236 -541q-8 -20 -30 -20h-70q-27 0 -29 25l-184 888q-6 29 25 29h61q27 0 29 -24l153 -746l240 557q8 20 31 21h18q23 0 31 -21l239 -555l154 744q4 24 29 24z" />
    <glyph glyph-name="wacute.ss01" horiz-adv-x="1353" 
d="M1139 942h63q31 0 25 -29l-187 -888q-4 -25 -28 -25h-68q-23 0 -31 20l-235 541l-236 -541q-8 -20 -30 -20h-70q-27 0 -29 25l-184 888q-6 29 25 29h61q27 0 29 -24l153 -746l240 557q8 20 31 21h18q23 0 31 -21l239 -555l154 744q4 24 29 24zM627 1069h-29q-27 0 -27 27
v14q0 16 13 33l135 172q10 16 33 16h71q27 0 27 -26v-21q0 -19 -14 -33l-177 -170q-16 -12 -32 -12z" />
    <glyph glyph-name="wcircumflex.ss01" horiz-adv-x="1353" 
d="M1139 942h63q31 0 25 -29l-187 -888q-4 -25 -28 -25h-68q-23 0 -31 20l-235 541l-236 -541q-8 -20 -30 -20h-70q-27 0 -29 25l-184 888q-6 29 25 29h61q27 0 29 -24l153 -746l240 557q8 20 31 21h18q23 0 31 -21l239 -555l154 744q4 24 29 24zM479 1069h-16q-27 0 -27 27
v12q0 18 15 33l174 176q14 14 32 14h39q18 0 33 -14l176 -176q14 -14 15 -33v-12q0 -27 -27 -27h-19q-18 0 -32 12l-164 142l-166 -142q-16 -12 -33 -12z" />
    <glyph glyph-name="wdieresis.ss01" horiz-adv-x="1353" 
d="M1139 942h63q31 0 25 -29l-187 -888q-4 -25 -28 -25h-68q-23 0 -31 20l-235 541l-236 -541q-8 -20 -30 -20h-70q-27 0 -29 25l-184 888q-6 29 25 29h61q27 0 29 -24l153 -746l240 557q8 20 31 21h18q23 0 31 -21l239 -555l154 744q4 24 29 24zM922 1260v-97
q0 -27 -27 -26h-96q-27 0 -27 26v97q0 27 27 26h96q27 1 27 -26zM584 1260v-97q0 -27 -27 -26h-96q-27 0 -27 26v97q0 27 27 26h96q27 1 27 -26z" />
    <glyph glyph-name="wgrave.ss01" horiz-adv-x="1353" 
d="M1139 942h63q31 0 25 -29l-187 -888q-4 -25 -28 -25h-68q-23 0 -31 20l-235 541l-236 -541q-8 -20 -30 -20h-70q-27 0 -29 25l-184 888q-6 29 25 29h61q27 0 29 -24l153 -746l240 557q8 20 31 21h18q23 0 31 -21l239 -555l154 744q4 24 29 24zM756 1069h-29q-18 0 -33 12
l-176 170q-14 14 -14 33v21q0 27 26 26h72q23 0 33 -16l135 -172q12 -14 12 -33v-14q1 -27 -26 -27z" />
    <glyph glyph-name="zero.subs" 
d="M578 92v-20q0 -27 -27 -27h-19q-27 0 -26 27v20q0 27 26 27h19q27 0 27 -27zM542 340q-110 0 -110 -102v-312q0 -100 110 -100t109 100v312q1 102 -109 102zM344 233q0 187 198 187t197 -187v-301q1 -188 -197 -188t-198 188v301z" />
    <glyph glyph-name="one.subs" 
d="M598 -164h98q27 0 27 -26v-29q0 -27 -27 -27h-286q-27 0 -27 27v29q0 27 27 26h98v461l-82 -45q-23 -12 -35 10l-16 29q-14 20 8 35l133 75q14 8 33 9h22q27 0 27 -27v-547z" />
    <glyph glyph-name="two.subs" 
d="M428 -164h279q27 0 26 -26v-29q0 -27 -26 -27h-336q-27 0 -27 27v90q0 20 14 33l224 207q70 59 69 122q0 106 -108 107q-55 0 -81 -21.5t-30 -74.5q0 -27 -26 -27h-35q-27 0 -27 27v2q0 76 51 125t148 49q197 0 196 -187q0 -92 -94 -178l-217 -194v-25z" />
    <glyph glyph-name="three.subs" 
d="M543 -256q-96 0 -147.5 48t-51.5 124v4q0 27 27 27h35q27 0 26 -27q4 -53 29.5 -73.5t81.5 -20.5q109 0 108 100v15q0 109 -114 108h-11q-27 0 -26 27v16q0 27 26 27h11q115 0 114 104v17q0 100 -108 100q-55 0 -81 -21.5t-30 -74.5q0 -27 -26 -27h-35q-27 0 -27 27v2
q0 76 51 125t148 49q199 0 198 -187q1 -112 -75 -151q76 -39 75 -150q0 -188 -198 -188z" />
    <glyph glyph-name="four.subs" 
d="M754 -49v-27q0 -27 -27 -26h-61v-117q0 -27 -27 -27h-35q-27 0 -26 27v117h-222q-27 0 -26 26v56q0 16 8 32l182 377q12 20 33 21h41q35 0 20 -31l-192 -402h156v129q0 27 26 27h35q27 0 27 -27v-129h61q27 1 27 -26z" />
    <glyph glyph-name="five.subs" 
d="M565 199q78 0 127 -49.5t49 -139.5v-78q0 -188 -198 -188q-90 0 -139.5 41t-57.5 113q-4 27 25 26h37q23 0 26 -24q16 -74 109 -74q109 0 108 100v90q0 100 -108 101q-72 0 -107 -49q-10 -20 -33 -17l-28 4q-27 4 -23 29l17 299q2 27 28 27h299q27 0 27 -27v-27
q0 -27 -27 -26h-250l-10 -162q51 31 129 31z" />
    <glyph glyph-name="six.subs" 
d="M651 -74v68q0 102 -106 102q-113 0 -113 -110v-60q0 -100 110 -100t109 100zM562 178q85 0 132 -49t47 -139v-58q0 -188 -198.5 -188t-198.5 188v301q0 186 197 187q178 0 190 -156q4 -27 -24 -26h-37q-25 0 -27 26q-12 76 -102 76q-109 0 -109 -102v-99q45 39 130 39z
" />
    <glyph glyph-name="seven.subs" 
d="M373 410h338q27 0 26 -27v-94q0 -14 -6 -33l-221 -481q-8 -20 -31 -21h-35q-35 0 -20 31l225 489v56h-217v-35q0 -27 -26 -27h-33q-27 0 -27 27v88q0 27 27 27z" />
    <glyph glyph-name="eight.subs" 
d="M662 -72v15q0 111 -119 110.5t-119 -110.5v-15q0 -102 119 -102t119 102zM436 240v-15q0 -100 106.5 -100t106.5 100v15q0 47 -27.5 73.5t-78.5 26.5q-107 0 -107 -100zM348 224q0 196 194 196t196 -196q0 -98 -74 -136q86 -39 86 -156q0 -188 -207 -188t-207 188
q0 117 86 156q-74 39 -74 136z" />
    <glyph glyph-name="nine.subs" 
d="M432 170q0 -100 110 -100t109 108v60q1 102 -109 102t-110 -102v-68zM542.5 420q198.5 0 198.5 -189v-299q0 -188 -196 -188q-88 0 -137.5 41t-55.5 115q-4 27 25 26h37q25 0 26 -26q12 -74 105 -74q106 0 106 100v99q-43 -37 -127 -37t-132 49t-48 137v57
q0 189 198.5 189z" />
    <glyph glyph-name="zero.dnom" 
d="M578 338v-21q0 -27 -27 -26h-19q-27 0 -26 26v21q0 27 26 27h19q27 0 27 -27zM542 586q-110 0 -110 -103v-311q0 -100 110 -100t109 100v311q1 103 -109 103zM344 479q0 187 198 187t197 -187v-301q1 -188 -197 -188t-198 188v301z" />
    <glyph glyph-name="one.dnom" 
d="M598 82h98q27 0 27 -27v-28q0 -27 -27 -27h-286q-27 0 -27 27v28q0 27 27 27h98v461l-82 -45q-23 -12 -35 10l-16 29q-14 20 8 34l133 76q14 8 33 8h22q27 0 27 -26v-547z" />
    <glyph glyph-name="two.dnom" 
d="M428 82h279q27 0 26 -27v-28q0 -27 -26 -27h-336q-27 0 -27 27v92q0 20 14 33l224 204q70 59 69 123q0 106 -108 107q-55 0 -81 -21.5t-30 -75.5q0 -27 -26 -26h-35q-27 0 -27 26v3q0 76 51 125t148 49q197 0 196 -187q0 -92 -94 -178l-217 -195v-24z" />
    <glyph glyph-name="three.dnom" 
d="M543 -10q-98 0 -148.5 48t-50.5 126v2q0 27 27 27h35q27 0 26 -27q4 -53 29.5 -73.5t81.5 -20.5q109 0 108 100v14q0 109 -114 109h-11q-27 0 -26 27v16q0 27 26 27h11q115 0 114 104v16q0 100 -108 101q-55 0 -81 -21.5t-30 -75.5q0 -27 -26 -26h-35q-27 0 -27 26v3
q0 76 51 125t148 49q199 0 198 -187q1 -112 -75 -151q76 -39 75 -150q0 -188 -198 -188z" />
    <glyph glyph-name="four.dnom" 
d="M754 197v-27q0 -27 -27 -27h-61v-116q0 -27 -27 -27h-35q-27 0 -26 27v116h-222q-27 0 -26 27v55q0 16 8 33l182 377q12 20 33 20h41q35 0 20 -30l-192 -402h156v129q0 27 26 27h35q27 0 27 -27v-129h61q27 1 27 -26z" />
    <glyph glyph-name="five.dnom" 
d="M565 444q78 0 127 -49t49 -139v-78q0 -188 -198 -188q-90 0 -139.5 41t-57.5 112q-4 27 25 27h37q23 0 26 -25q16 -74 109 -73q109 0 108 100v90q0 100 -108 100q-72 0 -107 -49q-10 -20 -33 -16l-28 4q-27 4 -23 29l17 299q2 27 28 26h299q27 0 27 -26v-27
q0 -27 -27 -27h-250l-10 -161q51 30 129 30z" />
    <glyph glyph-name="six.dnom" 
d="M651 172v70q0 100 -106 100q-113 0 -113 -111v-59q0 -100 110 -100t109 100zM562 424q85 0 132 -49t47 -139v-58q0 -188 -198.5 -188t-198.5 188v301q0 186 197 187q178 0 190 -156q4 -27 -24 -27h-37q-25 0 -27 27q-12 76 -102 76q-109 0 -109 -103v-98q45 39 130 39z
" />
    <glyph glyph-name="seven.dnom" 
d="M373 655h338q27 0 26 -26v-94q0 -14 -6 -33l-221 -482q-8 -20 -31 -20h-35q-35 0 -20 31l225 489v55h-217v-34q0 -27 -26 -27h-33q-27 0 -27 27v88q0 26 27 26z" />
    <glyph glyph-name="eight.dnom" 
d="M662 174v16q0 109 -119 109t-119 -109v-16q0 -102 119 -102t119 102zM436 485v-14q0 -100 106.5 -100t106.5 100v14q0 47 -27.5 74t-78.5 27q-107 -1 -107 -101zM348 470q0 196 194 196t196 -196q0 -97 -74 -136q86 -39 86 -156q0 -188 -207 -188t-207 188q0 117 86 156
q-74 39 -74 136z" />
    <glyph glyph-name="nine.dnom" 
d="M432 416q0 -101 110 -101t109 109v59q1 103 -109 103t-110 -103v-67zM542.5 666q198.5 0 198.5 -189v-299q0 -188 -196 -188q-176 0 -193 155q-4 27 25 27h37q25 0 26 -27q12 -74 105 -73q106 0 106 100v98q-43 -37 -127 -37t-132 49.5t-48 137.5v57q0 189 198.5 189z
" />
    <glyph glyph-name="zero.numr" 
d="M578 993v-20q0 -27 -27 -27h-19q-27 0 -26 27v20q0 27 26 27h19q27 0 27 -27zM542 1241q-110 0 -110 -102v-312q0 -100 110 -100t109 100v312q1 102 -109 102zM344 1135q0 186 198 186t197 -186v-301q1 -188 -197 -188t-198 188v301z" />
    <glyph glyph-name="one.numr" 
d="M598 737h98q27 0 27 -26v-29q0 -27 -27 -27h-286q-27 0 -27 27v29q0 27 27 26h98v461l-82 -45q-23 -12 -35 10l-16 29q-14 20 8 35l133 76q14 8 33 8h22q27 0 27 -27v-547z" />
    <glyph glyph-name="two.numr" 
d="M428 737h279q27 0 26 -26v-29q0 -27 -26 -27h-336q-27 0 -27 27v92q0 20 14 33l224 205q70 59 69 123q0 106 -108 106q-55 0 -81 -21.5t-30 -74.5q0 -27 -26 -27h-35q-27 0 -27 27v2q0 76 51 125t148 49q197 0 196 -186q0 -92 -94 -179l-217 -194v-25z" />
    <glyph glyph-name="three.numr" 
d="M344 819v2q0 27 27 27h35q27 0 26 -27q4 -53 29.5 -73.5t81.5 -20.5q109 0 108 100v15q0 109 -114 108h-11q-27 0 -26 27v16q0 27 26 27h11q115 0 114 104v17q0 100 -108 100q-55 0 -81 -21.5t-30 -74.5q0 -27 -26 -27h-35q-27 0 -27 27v2q0 76 51 125t148 49
q199 0 198 -186q1 -113 -75 -152q76 -39 75 -149q0 -188 -198 -189q-98 0 -148.5 48t-50.5 126z" />
    <glyph glyph-name="four.numr" 
d="M754 852v-27q0 -27 -27 -26h-61v-117q0 -27 -27 -27h-35q-27 0 -26 27v117h-222q-27 0 -26 26v56q0 16 8 32l182 377q12 20 33 21h41q35 0 20 -31l-192 -401h156v129q0 27 26 26h35q27 0 27 -26v-129h61q27 0 27 -27z" />
    <glyph glyph-name="five.numr" 
d="M565 1100q78 0 127 -49.5t49 -139.5v-77q0 -188 -198 -189q-90 0 -139.5 41t-57.5 113q-4 27 25 26h37q23 0 26 -24q16 -74 109 -74q109 0 108 100v91q0 100 -108 100q-72 0 -107 -49q-10 -20 -33 -17l-28 4q-27 4 -23 29l17 299q2 27 28 27h299q27 0 27 -27v-27
q0 -27 -27 -26h-250l-10 -162q51 31 129 31z" />
    <glyph glyph-name="six.numr" 
d="M651 827v70q0 100 -106 100q-113 0 -113 -110v-60q0 -100 110 -100t109 100zM562 1079q85 0 132 -49t47 -139v-57q0 -188 -198.5 -188.5t-198.5 188.5v301q0 186 197 186q178 0 190 -156q4 -27 -24 -26h-37q-25 0 -27 26q-12 76 -102 76q-109 0 -109 -102v-99
q45 39 130 39z" />
    <glyph glyph-name="seven.numr" 
d="M373 1311h338q27 0 26 -27v-94q0 -14 -6 -33l-221 -481q-8 -20 -31 -21h-35q-35 0 -20 31l225 490v55h-217v-35q0 -27 -26 -27h-33q-27 0 -27 27v88q0 27 27 27z" />
    <glyph glyph-name="eight.numr" 
d="M662 829v17q0 109 -119 108.5t-119 -108.5v-17q0 -102 119 -102t119 102zM436 1141v-15q0 -100 106.5 -100t106.5 100v15q0 47 -27.5 73.5t-78.5 26.5q-107 0 -107 -100zM348 1126q0 196 194 196t196 -196q0 -98 -74 -137q86 -41 86 -155q0 -188 -207 -188.5t-207 188.5
q0 115 86 155q-74 39 -74 137z" />
    <glyph glyph-name="nine.numr" 
d="M432 1071q0 -100 110 -100t109 108v60q1 102 -109 102t-110 -102v-68zM542.5 1321q198.5 0 198.5 -188v-299q0 -188 -196 -189q-176 0 -193 156q-4 27 25 26h37q25 0 26 -26q12 -74 105 -74q106 0 106 100v99q-43 -37 -127 -37t-132 49t-48 137v58q0 188 198.5 188z" />
    <glyph glyph-name="exclamdown.case" 
d="M604 27q0 -27 -26 -27h-70q-27 0 -27 27v448l17 354q2 27 28 27h33q27 0 29 -27l16 -354v-448zM633 1284v-127q0 -27 -27 -27h-127q-27 0 -26 27v127q0 27 26 27h127q27 0 27 -27z" />
    <glyph glyph-name="questiondown.case" 
d="M834 395h69q27 0 27 -26v-23q0 -176 -96 -271t-290 -95t-291 95t-97 271v68q0 162 83 256t246 108l4 135q0 27 27 27h55q27 0 27 -27l6 -219q0 -27 -26 -26h-35q-264 0 -264 -248v-78q0 -248 264 -248t264 248v27q0 26 27 26zM633 1284v-127q0 -27 -27 -27h-127
q-27 0 -26 27v127q0 27 26 27h127q27 0 27 -27z" />
    <glyph glyph-name="periodcentered.ss01" horiz-adv-x="544" 
d="M362 625v-127q0 -27 -26 -27h-127q-27 0 -27 27v127q0 27 27 26h127q26 1 26 -26z" />
    <glyph glyph-name="colon.ss01" horiz-adv-x="544" 
d="M362 154v-127q0 -27 -26 -27h-127q-27 0 -27 27v127q0 27 27 26h127q26 1 26 -26zM362 915v-127q0 -27 -26 -26h-127q-27 0 -27 26v127q0 27 27 27h127q26 0 26 -27z" />
    <glyph glyph-name="comma.ss01" horiz-adv-x="544" 
d="M209 180h127q27 0 26 -26v-86q0 -14 -6 -33l-80 -215q-8 -20 -30 -21h-29q-29 0 -22 31l47 170h-33q-27 0 -27 27v127q0 26 27 26z" />
    <glyph glyph-name="exclam.ss01" horiz-adv-x="544" 
d="M362 154v-127q0 -27 -26 -27h-127q-27 0 -27 27v127q0 27 27 26h127q26 1 26 -26zM256 455q-27 0 -29 26l-16 355v448q0 27 27 27h69q27 0 27 -27v-448l-17 -355q-2 -27 -28 -26h-33z" />
    <glyph glyph-name="exclamdown.ss01" horiz-adv-x="544" 
d="M334 -342q0 -27 -27 -27h-69q-27 0 -27 27v448l16 355q2 27 29 26h33q27 0 28 -26l17 -355v-448zM362 915v-127q0 -27 -26 -26h-127q-27 0 -27 26v127q0 27 27 27h127q26 0 26 -27z" />
    <glyph glyph-name="period.ss01" horiz-adv-x="544" 
d="M362 154v-127q0 -27 -26 -27h-127q-27 0 -27 27v127q0 27 27 26h127q26 1 26 -26z" />
    <glyph glyph-name="quotesingle.ss01" horiz-adv-x="489" 
d="M227 801q-27 0 -26 26l-17 457q-4 27 25 27h72q28 0 24 -27l-16 -457q0 -27 -27 -26h-35z" />
    <glyph glyph-name="semicolon.ss01" horiz-adv-x="544" 
d="M182 27v127q0 27 27 26h127q27 0 26 -26v-86q0 -14 -6 -33l-80 -215q-8 -20 -30 -21h-29q-29 0 -22 31l47 170h-33q-27 0 -27 27zM209 942h127q27 0 26 -27v-127q0 -27 -26 -26h-127q-27 0 -27 26v127q0 27 27 27z" />
    <glyph glyph-name="braceleft.case" 
d="M852 1450v-59q0 -27 -29 -27q-129 -2 -174 -34t-45 -116v-342q0 -178 -164 -221q164 -43 164 -219v-344q0 -84 45 -115.5t174 -33.5q29 0 29 -27v-59q0 -27 -29 -27q-203 4 -271.5 64.5t-68.5 191.5l6 336q0 164 -219 178q-27 2 -26 29v55q0 27 26 29q219 14 219 176
l-6 336q0 131 69 191.5t271 64.5q29 0 29 -27z" />
    <glyph glyph-name="braceright.case" 
d="M842 680v-55q0 -27 -27 -29q-219 -14 -219 -178l6 -336q0 -131 -68.5 -191.5t-271.5 -64.5q-29 0 -29 27v59q0 27 29 27q129 2 174 33.5t45 115.5v344q0 176 164 219q-164 43 -164 221v342q0 84 -45 116t-174 34q-29 0 -29 27v59q0 27 29 27q203 -4 271.5 -64.5
t68.5 -191.5l-6 -336q0 -162 219 -176q27 -2 27 -29z" />
    <glyph glyph-name="bracketleft.case" 
d="M510 1337v-1364h201q27 0 26 -26v-62q0 -27 -26 -26h-297q-27 0 -27 26v1540q0 27 27 27h297q27 0 26 -27v-61q0 -27 -26 -27h-201z" />
    <glyph glyph-name="bracketright.case" 
d="M383 1452h297q27 0 27 -27v-1540q0 -27 -27 -26h-297q-27 0 -27 26v62q0 27 27 26h201v1364h-201q-27 0 -27 27v61q0 27 27 27z" />
    <glyph glyph-name="parenleft.case" 
d="M475 647.5q0 -411.5 248 -731.5q16 -23 -4 -37l-47 -41q-20 -18 -37 4q-289 358 -289 807t289 803q14 20 37 4l47 -41q20 -14 4 -37q-248 -319 -248 -730.5z" />
    <glyph glyph-name="parenright.case" 
d="M733 649q0 -453 -289 -807q-14 -20 -36 -4l-48 41q-20 14 -4 37q248 319 248 731t-248 731q-16 23 4 37l48 41q23 16 36 -4q289 -350 289 -803z" />
    <glyph glyph-name="hyphen.ss01" horiz-adv-x="763" 
d="M621 584v-49q0 -27 -27 -27h-424q-27 0 -27 27v49q0 27 27 26h424q27 1 27 -26z" />
    <glyph glyph-name="guillemotleft.case" 
d="M627 643l209 -305q16 -23 -7 -37l-51 -31q-20 -14 -37 6l-243 349q-12 18 0 37l243 348q16 20 37 6l51 -31q23 -14 7 -37zM299 643l221 -324q16 -23 -8 -36l-49 -31q-20 -12 -37 8l-256 365q-12 18 0 37l256 366q16 20 37 6l51 -30q23 -16 6 -37z" />
    <glyph glyph-name="guillemotright.case" 
d="M346 1010l242 -348q12 -18 0 -37l-242 -349q-16 -20 -37 -6l-51 31q-25 14 -8 37l211 305l-211 305q-16 23 6 37l53 33q21 12 37 -8zM659 1028l256 -366q12 -18 0 -37l-256 -365q-16 -20 -36 -8l-52 31q-23 16 -6 36l223 324l-223 324q-16 20 6 37l52 30q20 14 36 -6z
" />
    <glyph glyph-name="guilsinglleft.case" 
d="M446 643l261 -375q16 -25 -7 -37l-49 -32q-23 -16 -37 6l-295 420q-12 18 0 37l295 419q12 23 37 9l49 -35q23 -12 9 -37z" />
    <glyph glyph-name="guilsinglright.case" 
d="M471 1081l297 -419q12 -18 0 -37l-297 -420q-14 -23 -37 -6l-47 32q-23 12 -8 37l260 375l-260 375q-14 25 8 37l47 32q25 17 37 -6z" />
    <glyph glyph-name="guilsinglleft.ss01" horiz-adv-x="720" 
d="M279 520l260 -375q16 -25 -7 -36l-49 -33q-23 -16 -37 6l-294 420q-12 18 0 37l294 419q12 23 37 9l49 -35q23 -12 9 -37z" />
    <glyph glyph-name="guilsinglright.ss01" horiz-adv-x="720" 
d="M274 958l295 -419q12 -18 0 -37l-295 -420q-14 -23 -36 -6l-50 33q-23 12 -8 36l262 375l-262 375q-14 25 8 37l50 35q24 14 36 -9z" />
    <glyph glyph-name="quoteleft.ss01" horiz-adv-x="544" 
d="M336 1161q27 0 26 -26v-127q0 -27 -26 -27h-127q-27 0 -27 27v88q0 14 6 32l80 213q8 20 31 21h29q29 0 22 -31l-49 -170h35z" />
    <glyph glyph-name="quoteright.ss01" horiz-adv-x="544" 
d="M209 1311h127q27 0 26 -27v-86q0 -14 -6 -33l-80 -215q-8 -20 -30 -20h-29q-29 0 -22 31l47 169h-33q-27 0 -27 27v127q0 27 27 27z" />
    <glyph glyph-name="quotesinglbase.ss01" horiz-adv-x="544" 
d="M209 180h127q27 0 26 -26v-86q0 -14 -6 -33l-80 -215q-8 -20 -30 -21h-29q-29 0 -22 31l47 170h-33q-27 0 -27 27v127q0 26 27 26z" />
    <glyph glyph-name="space.ss01" horiz-adv-x="712" 
 />
    </font>
</defs>
</svg>
