<?xml version="1.0" encoding="UTF-8"?>
<svg width="1200px" height="2546px" viewBox="0 0 1200 2546" version="1.1" xmlns="http://www.w3.org/2000/svg" xmlns:xlink="http://www.w3.org/1999/xlink">
    <!-- Generator: Sketch 43.2 (39069) - http://www.bohemiancoding.com/sketch -->
    <title>Group 4</title>
    <desc>Created with Sketch.</desc>
    <defs></defs>
    <g id="Page-1" stroke="none" stroke-width="1" fill="none" fill-rule="evenodd">
        <g id="desktop-landning-grön" transform="translate(0.000000, -136.000000)" stroke-width="28" stroke="#FFFFFF">
            <g id="Group-4" transform="translate(-238.000000, 150.000000)">
                <polyline id="Path-3-Copy" points="1520.33777 0 1355.60205 0.166793169 1354.63226 174.402556 1175.16828 173.340961 1175.16828 333.898438 988 333.898438"></polyline>
                <polyline id="Path-3-Copy-2" points="1158.33777 334 993.602051 334.166793 992.632262 508.402556 813.16828 507.340961 813.16828 667.898438 626 667.898438"></polyline>
                <polyline id="Path-3" points="764.337769 1354 599.602051 1354.16679 598.632262 1528.40256 419.16828 1527.34096 419.16828 1687.89844 232 1687.89844"></polyline>
                <polyline id="Path-3-Copy-3" points="576.978461 2328 398.428363 2328.18078 397.37725 2517.02758 202.863807 2515.87696 202.863807 2689.89844 0 2689.89844"></polyline>
                <polyline id="Path-3-Copy" points="1128.33777 1020 963.602051 1020.16679 962.632262 1194.40256 783.16828 1193.34096 783.16828 1353.89844 596 1353.89844"></polyline>
            </g>
        </g>
    </g>
</svg>