<?xml version="1.0" encoding="UTF-8"?>
<svg width="105px" height="52px" viewBox="0 0 105 52" version="1.1" xmlns="http://www.w3.org/2000/svg" xmlns:xlink="http://www.w3.org/1999/xlink">
    <!-- Generator: Sketch 43.2 (39069) - http://www.bohemiancoding.com/sketch -->
    <title>Group Copy</title>
    <desc>Created with Sketch.</desc>
    <defs></defs>
    <g id="Page-1" stroke="none" stroke-width="1" fill="none" fill-rule="evenodd">
        <g id="Group-Copy" transform="translate(0.000000, 3.000000)">
            <polyline id="Path-3" stroke="#FFFFFF" stroke-width="5.76" points="61 0 42.30202 0.0189315066 42.1919462 19.795194 21.8222656 19.6747 21.8222656 37.8984375 0.578125 37.8984375"></polyline>
            <path d="M56.0354772,18.8528577 L53.8692946,13.0542359 L53.8692946,18.8528577 L52,18.8528577 L52,10 L54.3860996,10 L56.7282158,16.285529 L56.7282158,10 L58.5975104,10 L58.5975104,18.8528577 L56.0354772,18.8528577 Z M66.3385892,17.2814755 C66.0453651,17.9233109 65.6641794,18.364105 65.1950207,18.6038711 C64.7258621,18.8436372 64.0074737,18.9635184 63.039834,18.9635184 C62.1308392,18.9635184 61.3648026,18.7532652 60.7417012,18.3327523 C60.1185999,17.9122395 59.8070539,17.2741024 59.8070539,16.4183218 L59.8070539,14.6588164 C59.8070539,13.8620552 60.089278,13.2368284 60.6537344,12.7831171 C61.2181909,12.3294059 62.0025538,12.1025537 63.0068465,12.1025537 C64.0038086,12.1025537 64.7826735,12.3294059 65.3434647,12.7831171 C65.9042559,13.2368284 66.1846473,13.8694325 66.1846473,14.6809485 L66.1846473,15.975679 L62.0062241,15.975679 L62.0062241,16.5732469 C62.0062241,16.8830984 62.0886921,17.1283939 62.2536307,17.3091407 C62.4185693,17.4898874 62.7026259,17.5802594 63.1058091,17.5802594 C63.4210251,17.5802594 63.694086,17.5304626 63.925,17.4308675 C64.155914,17.3312723 64.3593352,17.1228634 64.5352697,16.8056344 L66.3385892,17.2814755 Z M62.0062241,14.4374949 L62.0062241,14.8690717 L63.9854772,14.8690717 L63.9854772,14.5370896 C63.9854772,14.1239542 63.9195027,13.8362392 63.7875519,13.673936 C63.655601,13.5116328 63.3917032,13.4304824 62.9958506,13.4304824 C62.599998,13.4304824 62.3361002,13.5060998 62.2041494,13.6573368 C62.0721985,13.8085739 62.0062241,14.068624 62.0062241,14.4374949 Z M71.9134855,18.8528577 L70.5939834,16.894163 L69.4064315,18.8528577 L67.240249,18.8528577 L69.6263485,15.4666396 L67.4271784,12.2132144 L69.6153527,12.2132144 L70.769917,13.9173895 L71.7595436,12.2132144 L73.9257261,12.2132144 L71.7705394,15.3891771 L74.1236515,18.8528577 L71.9134855,18.8528577 Z M79.5995851,18.9745845 C78.6832596,18.9745845 77.9776996,18.7643312 77.4828838,18.3438184 C76.9880681,17.9233056 76.7406639,17.3257436 76.7406639,16.5511147 L76.7406639,13.7624645 L75.2012448,13.7624645 L75.2012448,12.2132144 L76.7406639,12.2132144 L76.7406639,10 L78.939834,10 L78.939834,12.2132144 L81.3589212,12.2132144 L81.3589212,13.7624645 L78.939834,13.7624645 L78.939834,16.2412647 C78.939834,16.6617775 79.0296326,16.9624028 79.2092324,17.1431496 C79.3888322,17.3238963 79.6325711,17.4142683 79.9404564,17.4142683 C80.1090603,17.4142683 80.3069836,17.4013581 80.5342324,17.3755371 C80.7614811,17.3497161 80.9960569,17.2888533 81.2379668,17.1929469 L81.4578838,18.6979327 C81.3112717,18.7643295 81.0693654,18.8270366 80.7321577,18.8860559 C80.3949499,18.9450753 80.0174295,18.9745845 79.5995851,18.9745845 Z M52.5497925,32.7644913 L52.5497925,23.9116336 L54.7489627,23.9116336 L54.7489627,31.1045805 L58.5975104,31.1045805 L58.5975104,32.7644913 L52.5497925,32.7644913 Z M66.3385892,31.193109 C66.0453651,31.8349444 65.6641794,32.2757386 65.1950207,32.5155047 C64.7258621,32.7552708 64.0074737,32.875152 63.039834,32.875152 C62.1308392,32.875152 61.3648026,32.6648987 60.7417012,32.2443859 C60.1185999,31.823873 59.8070539,31.1857359 59.8070539,30.3299554 L59.8070539,28.5704499 C59.8070539,27.7736888 60.089278,27.1484619 60.6537344,26.6947507 C61.2181909,26.2410395 62.0025538,26.0141873 63.0068465,26.0141873 C64.0038086,26.0141873 64.7826735,26.2410395 65.3434647,26.6947507 C65.9042559,27.1484619 66.1846473,27.7810661 66.1846473,28.5925821 L66.1846473,29.8873125 L62.0062241,29.8873125 L62.0062241,30.4848804 C62.0062241,30.794732 62.0886921,31.0400275 62.2536307,31.2207742 C62.4185693,31.401521 62.7026259,31.491893 63.1058091,31.491893 C63.4210251,31.491893 63.694086,31.4420962 63.925,31.342501 C64.155914,31.2429059 64.3593352,31.0344969 64.5352697,30.7172679 L66.3385892,31.193109 Z M62.0062241,28.3491285 L62.0062241,28.7807053 L63.9854772,28.7807053 L63.9854772,28.4487231 C63.9854772,28.0355877 63.9195027,27.7478727 63.7875519,27.5855695 C63.655601,27.4232663 63.3917032,27.3421159 62.9958506,27.3421159 C62.599998,27.3421159 62.3361002,27.4177333 62.2041494,27.5689704 C62.0721985,27.7202075 62.0062241,27.9802576 62.0062241,28.3491285 Z M72.1443983,32.7644913 L69.2304979,32.7644913 L67.3282158,26.124848 L69.3954357,26.124848 L70.7369295,31.0492501 L72.0674274,26.124848 L74.0466805,26.124848 L72.1443983,32.7644913 Z M81.7327801,31.193109 C81.4395559,31.8349444 81.0583703,32.2757386 80.5892116,32.5155047 C80.120053,32.7552708 79.4016646,32.875152 78.4340249,32.875152 C77.52503,32.875152 76.7589934,32.6648987 76.1358921,32.2443859 C75.5127908,31.823873 75.2012448,31.1857359 75.2012448,30.3299554 L75.2012448,28.5704499 C75.2012448,27.7736888 75.4834688,27.1484619 76.0479253,26.6947507 C76.6123818,26.2410395 77.3967446,26.0141873 78.4010373,26.0141873 C79.3979995,26.0141873 80.1768644,26.2410395 80.7376556,26.6947507 C81.2984468,27.1484619 81.5788382,27.7810661 81.5788382,28.5925821 L81.5788382,29.8873125 L77.4004149,29.8873125 L77.4004149,30.4848804 C77.4004149,30.794732 77.482883,31.0400275 77.6478216,31.2207742 C77.8127602,31.401521 78.0968168,31.491893 78.5,31.491893 C78.815216,31.491893 79.0882769,31.4420962 79.3191909,31.342501 C79.5501049,31.2429059 79.7535261,31.0344969 79.9294606,30.7172679 L81.7327801,31.193109 Z M77.4004149,28.3491285 L77.4004149,28.7807053 L79.379668,28.7807053 L79.379668,28.4487231 C79.379668,28.0355877 79.3136936,27.7478727 79.1817427,27.5855695 C79.0497919,27.4232663 78.7858941,27.3421159 78.3900415,27.3421159 C77.9941889,27.3421159 77.7302911,27.4177333 77.5983402,27.5689704 C77.4663894,27.7202075 77.4004149,27.9802576 77.4004149,28.3491285 Z M83.1182573,32.7644913 L83.1182573,31.2152412 L85.2074689,31.2152412 L85.2074689,25.4608837 L83.1182573,25.4608837 L83.1182573,23.9116336 L87.406639,23.9116336 L87.406639,31.2152412 L89.3858921,31.2152412 L89.3858921,32.7644913 L83.1182573,32.7644913 Z M54.1991701,41.9177138 L55.2987552,41.9177138 C55.709269,41.9177138 55.9951583,41.8531624 56.1564315,41.7240576 C56.3177048,41.5949527 56.3983402,41.3533459 56.3983402,40.9992298 L56.3983402,40.4016619 C56.3983402,40.0623007 56.3177048,39.8243825 56.1564315,39.6879003 C55.9951583,39.551418 55.709269,39.4831779 55.2987552,39.4831779 L54.1991701,39.4831779 L54.1991701,41.9177138 Z M54.1991701,46.6761248 L52,46.6761248 L52,37.8232671 L55.6396266,37.8232671 C56.6219275,37.8232671 57.3421485,38.0335204 57.8003112,38.4540332 C58.2584739,38.8745461 58.4875519,39.4794853 58.4875519,40.2688691 L58.4875519,41.0656263 C58.4875519,41.6705746 58.3611008,42.1685428 58.108195,42.559546 C57.8552892,42.9505492 57.4796014,43.2271982 56.9811203,43.3895014 L58.8064315,46.6761248 L56.5082988,46.6761248 L54.8039419,43.5776246 L54.1991701,43.5776246 L54.1991701,46.6761248 Z M61.643361,46.7867856 C61.1375493,46.7867856 60.7050502,46.6189518 60.3458506,46.2832793 C59.986651,45.9476068 59.8070539,45.4477942 59.8070539,44.7838265 L59.8070539,40.0364816 L62.0062241,40.0364816 L62.0062241,44.1751925 C62.0062241,44.4850441 62.0630354,44.721118 62.1766598,44.8834212 C62.2902841,45.0457244 62.4497223,45.1268747 62.6549793,45.1268747 C62.882228,45.1268747 63.1094733,45.0401914 63.336722,44.8668221 C63.5639707,44.6934527 63.7802203,44.4629119 63.9854772,44.1751925 L63.9854772,40.0364816 L66.1846473,40.0364816 L66.1846473,46.6761248 L63.9854772,46.6761248 L63.9854772,45.4588569 L63.6556017,45.4588569 C63.4576754,45.9383891 63.162623,46.2795896 62.7704357,46.4824686 C62.3782484,46.6853476 62.0025606,46.7867856 61.643361,46.7867856 Z M67.5041494,46.6761248 L67.5041494,40.0364816 L69.7033195,40.0364816 L69.7033195,41.2537495 L70.033195,41.2537495 C70.2091295,40.8332366 70.484023,40.5067908 70.8578838,40.2744021 C71.2317446,40.0420134 71.6642437,39.9258208 72.1553942,39.9258208 C72.7051895,39.9258208 73.1303581,40.1010319 73.4309129,40.4514593 C73.7314676,40.8018866 73.8817427,41.2943219 73.8817427,41.9287799 L73.8817427,46.6761248 L71.6825726,46.6761248 L71.6825726,42.3160924 C71.6825726,42.080015 71.6257613,41.899271 71.5121369,41.7738549 C71.3985126,41.6484388 71.2390743,41.5857317 71.0338174,41.5857317 C70.8065687,41.5857317 70.5719929,41.6465944 70.330083,41.7683218 C70.0881731,41.8900493 69.879254,42.0726376 69.7033195,42.3160924 L69.7033195,46.6761248 L67.5041494,46.6761248 Z M75.2012448,46.6761248 L75.2012448,40.0364816 L77.4004149,40.0364816 L77.4004149,41.2537495 L77.7302905,41.2537495 C77.9062249,40.8332366 78.1811185,40.5067908 78.5549793,40.2744021 C78.92884,40.0420134 79.3613392,39.9258208 79.8524896,39.9258208 C80.4022849,39.9258208 80.8274535,40.1010319 81.1280083,40.4514593 C81.4285631,40.8018866 81.5788382,41.2943219 81.5788382,41.9287799 L81.5788382,46.6761248 L79.379668,46.6761248 L79.379668,42.3160924 C79.379668,42.080015 79.3228567,41.899271 79.2092324,41.7738549 C79.095608,41.6484388 78.9361698,41.5857317 78.7309129,41.5857317 C78.5036641,41.5857317 78.2690883,41.6465944 78.0271784,41.7683218 C77.7852685,41.8900493 77.5763494,42.0726376 77.4004149,42.3160924 L77.4004149,46.6761248 L75.2012448,46.6761248 Z M83.0082988,46.6761248 L83.0082988,45.1268747 L84.9875519,45.1268747 L84.9875519,41.5857317 L83.0082988,41.5857317 L83.0082988,40.0364816 L87.186722,40.0364816 L87.186722,45.1268747 L89.1659751,45.1268747 L89.1659751,46.6761248 L83.0082988,46.6761248 Z M86.2080913,39.0405351 C85.7902469,39.0405351 85.4512115,38.9778279 85.1909751,38.8524118 C84.9307387,38.7269957 84.8006224,38.5093651 84.8006224,38.1995136 L84.8006224,38.0335225 C84.8006224,37.7162935 84.9307387,37.4912856 85.1909751,37.3584921 C85.4512115,37.2256986 85.7902469,37.1593028 86.2080913,37.1593028 C86.6259357,37.1593028 86.964971,37.2256986 87.2252075,37.3584921 C87.4854439,37.4912856 87.6155602,37.7162935 87.6155602,38.0335225 L87.6155602,38.1995136 C87.6155602,38.5093651 87.4836113,38.7269957 87.2197095,38.8524118 C86.9558078,38.9778279 86.6186051,39.0405351 86.2080913,39.0405351 Z M90.5954357,46.6761248 L90.5954357,40.0364816 L92.7946058,40.0364816 L92.7946058,41.2537495 L93.1244813,41.2537495 C93.3004158,40.8332366 93.5753093,40.5067908 93.9491701,40.2744021 C94.3230309,40.0420134 94.75553,39.9258208 95.2466805,39.9258208 C95.7964758,39.9258208 96.2216444,40.1010319 96.5221992,40.4514593 C96.8227539,40.8018866 96.973029,41.2943219 96.973029,41.9287799 L96.973029,46.6761248 L94.7738589,46.6761248 L94.7738589,42.3160924 C94.7738589,42.080015 94.7170476,41.899271 94.6034232,41.7738549 C94.4897989,41.6484388 94.3303606,41.5857317 94.1251037,41.5857317 C93.897855,41.5857317 93.6632792,41.6465944 93.4213693,41.7683218 C93.1794594,41.8900493 92.9705403,42.0726376 92.7946058,42.3160924 L92.7946058,46.6761248 L90.5954357,46.6761248 Z M105,46.9638427 C105,47.568791 104.770922,48.059382 104.312759,48.4356303 C103.854597,48.8118787 103.233337,49 102.448963,49 L100.557676,49 C99.6853345,49 99.0347532,48.8469209 98.6059129,48.540758 C98.1770725,48.2345951 97.9626556,47.8712627 97.9626556,47.4507499 C97.9626556,47.0745016 98.0799435,46.7738763 98.3145228,46.548865 C98.5491021,46.3238538 98.8349914,46.1929065 99.1721992,46.1560195 L99.1721992,45.934698 C98.9009668,45.846169 98.6718889,45.7170661 98.4849585,45.5473855 C98.2980281,45.3777049 98.2045643,45.1158104 98.2045643,44.7616944 C98.2045643,44.3485589 98.3511742,44.0147358 98.6443983,43.7602148 C98.9376225,43.5056939 99.2931514,43.3526148 99.7109959,43.3009728 L99.7109959,43.0796514 C99.3298045,42.983745 99.0347521,42.8288215 98.8258299,42.6148764 C98.6169077,42.4009312 98.5124481,42.1279709 98.5124481,41.795987 L98.5124481,41.7738549 C98.5124481,41.2057937 98.7598523,40.7742212 99.254668,40.4791244 C99.7494838,40.1840277 100.348752,40.0364816 101.05249,40.0364816 L105,40.0364816 L105,41.2537495 L103.19668,41.0545602 L103.19668,41.2758816 C103.467913,41.3496558 103.691493,41.4879803 103.867427,41.6908593 C104.043362,41.8937383 104.131328,42.1242792 104.131328,42.3824889 L104.131328,42.4267531 C104.131328,42.9726821 103.882091,43.3913443 103.38361,43.6827523 C102.885129,43.9741604 102.273033,44.1198622 101.547303,44.1198622 L100.579668,44.1198622 C100.337758,44.1198622 100.147165,44.1604374 100.007884,44.241589 C99.8686023,44.3227406 99.7989627,44.4555321 99.7989627,44.6399676 C99.7989627,44.824403 99.8686023,44.9571946 100.007884,45.0383462 C100.147165,45.1194978 100.337758,45.160073 100.579668,45.160073 L102.514938,45.160073 C103.277321,45.160073 103.882086,45.3094634 104.329253,45.6082489 C104.77642,45.9070343 105,46.3588944 105,46.9638427 Z M101.31639,43.1239157 C101.609614,43.1239157 101.820366,43.0612086 101.948651,42.9357925 C102.076937,42.8103763 102.141079,42.6443869 102.141079,42.4378192 L102.141079,41.8845156 C102.141079,41.7000801 102.076937,41.5451567 101.948651,41.4197406 C101.820366,41.2943245 101.609614,41.2316173 101.31639,41.2316173 C101.023166,41.2316173 100.812414,41.2943245 100.684129,41.4197406 C100.555843,41.5451567 100.491701,41.7000801 100.491701,41.8845156 L100.491701,42.4378192 C100.491701,42.6443869 100.55401,42.8103763 100.678631,42.9357925 C100.803251,43.0612086 101.015835,43.1239157 101.31639,43.1239157 Z M100.579668,47.7827321 L102.426971,47.7827321 C102.66155,47.7827321 102.855808,47.7495342 103.009751,47.6831374 C103.163694,47.6167406 103.240664,47.4618172 103.240664,47.2183624 C103.240664,46.9749076 103.163694,46.8218284 103.009751,46.7591204 C102.855808,46.6964123 102.66155,46.6650588 102.426971,46.6650588 L100.029876,46.6650588 L100.029876,47.1740981 C100.029876,47.365911 100.075691,47.5153015 100.167324,47.622274 C100.258956,47.7292466 100.396403,47.7827321 100.579668,47.7827321 Z" id="Next-Level-Running" fill="#FFFFFF"></path>
        </g>
    </g>
</svg>