<?xml version="1.0" encoding="utf-8"?>
<!-- Generator: Adobe Illustrator 21.1.0, SVG Export Plug-In . SVG Version: 6.00 Build 0)  -->
<svg version="1.1" id="Layer_1" xmlns="http://www.w3.org/2000/svg" xmlns:xlink="http://www.w3.org/1999/xlink" x="0px" y="0px"
	 viewBox="0 0 1000 1000" style="enable-background:new 0 0 1000 1000;" xml:space="preserve">
<style type="text/css">
	.st0{fill:#FFFFFF;}
</style>
<g>
	<g>
		<polygon class="st0" points="245.9,640.9 225.9,640.9 225.9,520.9 325.9,520.9 325.9,420.9 425.9,420.9 425.9,320.9 735.9,320.9 
			735.9,340.9 445.9,340.9 445.9,440.9 345.9,440.9 345.9,540.9 245.9,540.9 		"/>
	</g>
</g>
<g>
	<path class="st0" d="M379.3,643.1c-13,0-22.2-7.7-22.2-20.9v-60.8h11.4v60.8c0,7.1,3.5,10.9,10.9,10.9s10.9-3.8,10.9-10.9v-60.8
		h11.3v60.8C401.6,635.5,392.3,643.1,379.3,643.1z"/>
</g>
<g>
	<path class="st0" d="M467.2,641.3l-19.8-38.9l-6.7-14v52.9h-10.8v-79.9h9.2l19,39.6l6.4,14v-53.6h10.8v79.9H467.2z"/>
</g>
<g>
	<path class="st0" d="M541,641.3l-19.8-38.9l-6.7-14v52.9h-10.8v-79.9h9.2l19,39.6l6.4,14v-53.6H549v79.9H541z"/>
</g>
<g>
	<path class="st0" d="M577.5,641.3v-79.9h11.4v79.9H577.5z"/>
</g>
<g>
	<path class="st0" d="M654.5,641.3l-19.8-38.9l-6.7-14v52.9h-10.8v-79.9h9.2l19,39.6l6.4,14v-53.6h10.8v79.9H654.5z"/>
</g>
<g>
	<path class="st0" d="M728.8,641.3l-2.2-6.1c-2.8,5.2-8.4,7.9-15.6,7.9c-13.9,0-20.8-9.7-20.8-22v-39.6c0-11.8,7.3-21.8,22.3-21.8
		c15.1,0,21.4,9,21.4,21.8v4.7h-10.8v-6c0-5.4-3.1-10.4-10.6-10.4s-10.9,5.3-10.9,10.7v41.8c0,5.5,3.4,10.8,10.9,10.8
		s11-5.3,11-10.8v-12.4h-10.7v-9.6h21.5v41H728.8z"/>
</g>
<g>
	<path class="st0" d="M387,540.5v-79.9h21.5v61.8h22.9v18.1H387z"/>
	<path class="st0" d="M459.4,540.5v-79.9h45.7V478h-24.2v14h15.7v15.1h-15.7V522h24.2v18.5H459.4z"/>
	<path class="st0" d="M569.7,540.5h-20.5l-18.6-79.9h21.8l7.8,46.7l8-46.7h20.6L569.7,540.5z"/>
	<path class="st0" d="M615.4,540.5v-79.9h45.7V478h-24.2v14h15.7v15.1h-15.7V522h24.2v18.5H615.4z"/>
	<path class="st0" d="M690.7,540.5v-79.9h21.5v61.8h22.9v18.1H690.7z"/>
</g>
<g>
	<path class="st0" d="M524.6,440.7l-12.5-26l-5.5-11.5v37.6h-19.2v-79.9H506l12,26.8l5.2,11.5v-38.3h19.1v79.9H524.6z"/>
	<path class="st0" d="M558.5,440.7v-79.9h45.7v17.4h-24.2v14h15.7v15.1h-15.7v14.9h24.2v18.5H558.5z"/>
	<path class="st0" d="M650.6,440.7l-7.1-24.6l-8.9,24.6h-20.3l16.6-40.1l-15.4-39.8h22.1l6.8,24.6l8.5-24.6h20.4L657,398.7l15.8,42
		H650.6z"/>
	<path class="st0" d="M719.6,378.6v62.2h-21.5v-62.2h-15v-17.8h51.6v17.8H719.6z"/>
</g>
<path class="st0" d="M330.5,641.3L318.3,608c7-2.5,10.2-8.6,10.2-17v-11c0-11.5-5.8-18.5-18.7-18.5h-23.1v79.9h11.3v-32h8.6l11.7,32
	H330.5z M297.9,599.6v-28.3h12c5.3,0,7.2,3,7.2,8.3v11.8c0,5.2-1.9,8.3-7.2,8.3H297.9z"/>
</svg>
