<?xml version="1.0" encoding="UTF-8"?>
<svg width="511px" height="324px" viewBox="0 0 511 324" version="1.1" xmlns="http://www.w3.org/2000/svg" xmlns:xlink="http://www.w3.org/1999/xlink">
    <!-- Generator: Sketch 43.2 (39069) - http://www.bohemiancoding.com/sketch -->
    <title>NLR_white</title>
    <desc>Created with Sketch.</desc>
    <defs></defs>
    <g id="Page-1" stroke="none" stroke-width="1" fill="none" fill-rule="evenodd">
        <g id="NLR_white" fill-rule="nonzero" fill="#FFFFFF">
            <polygon id="Shape" points="20.9 320.9 0.9 320.9 0.9 200.9 100.9 200.9 100.9 100.9 200.9 100.9 200.9 0.9 510.9 0.9 510.9 20.9 220.9 20.9 220.9 120.9 120.9 120.9 120.9 220.9 20.9 220.9"></polygon>
            <path d="M154.3,323.1 C141.3,323.1 132.1,315.4 132.1,302.2 L132.1,241.4 L143.5,241.4 L143.5,302.2 C143.5,309.3 147,313.1 154.4,313.1 C161.8,313.1 165.3,309.3 165.3,302.2 L165.3,241.4 L176.6,241.4 L176.6,302.2 C176.6,315.5 167.3,323.1 154.3,323.1 Z" id="Shape"></path>
            <polygon id="Shape" points="242.2 321.3 222.4 282.4 215.7 268.4 215.7 321.3 204.9 321.3 204.9 241.4 214.1 241.4 233.1 281 239.5 295 239.5 241.4 250.3 241.4 250.3 321.3"></polygon>
            <polygon id="Shape" points="316 321.3 296.2 282.4 289.5 268.4 289.5 321.3 278.7 321.3 278.7 241.4 287.9 241.4 306.9 281 313.3 295 313.3 241.4 324 241.4 324 321.3"></polygon>
            <polygon id="Shape" points="352.5 321.3 352.5 241.4 363.9 241.4 363.9 321.3"></polygon>
            <polygon id="Shape" points="429.5 321.3 409.7 282.4 403 268.4 403 321.3 392.2 321.3 392.2 241.4 401.4 241.4 420.4 281 426.8 295 426.8 241.4 437.6 241.4 437.6 321.3"></polygon>
            <path d="M503.8,321.3 L501.6,315.2 C498.8,320.4 493.2,323.1 486,323.1 C472.1,323.1 465.2,313.4 465.2,301.1 L465.2,261.5 C465.2,249.7 472.5,239.7 487.5,239.7 C502.6,239.7 508.9,248.7 508.9,261.5 L508.9,266.2 L498.1,266.2 L498.1,260.2 C498.1,254.8 495,249.8 487.5,249.8 C480,249.8 476.6,255.1 476.6,260.5 L476.6,302.3 C476.6,307.8 480,313.1 487.5,313.1 C495,313.1 498.5,307.8 498.5,302.3 L498.5,289.9 L487.8,289.9 L487.8,280.3 L509.3,280.3 L509.3,321.3 L503.8,321.3 Z" id="Shape"></path>
            <g id="Group" transform="translate(162.000000, 140.000000)">
                <polygon id="Shape" points="0 80.5 0 0.6 21.5 0.6 21.5 62.4 44.4 62.4 44.4 80.5"></polygon>
                <polygon id="Shape" points="72.4 80.5 72.4 0.6 118.1 0.6 118.1 18 93.9 18 93.9 32 109.6 32 109.6 47.1 93.9 47.1 93.9 62 118.1 62 118.1 80.5"></polygon>
                <polygon id="Shape" points="182.7 80.5 162.2 80.5 143.6 0.6 165.4 0.6 173.2 47.3 181.2 0.6 201.8 0.6"></polygon>
                <polygon id="Shape" points="228.4 80.5 228.4 0.6 274.1 0.6 274.1 18 249.9 18 249.9 32 265.6 32 265.6 47.1 249.9 47.1 249.9 62 274.1 62 274.1 80.5"></polygon>
                <polygon id="Shape" points="303.7 80.5 303.7 0.6 325.2 0.6 325.2 62.4 348.1 62.4 348.1 80.5"></polygon>
            </g>
            <g id="Group" transform="translate(262.000000, 40.000000)">
                <polygon id="Shape" points="37.6 80.7 25.1 54.7 19.6 43.2 19.6 80.8 0.4 80.8 0.4 0.9 19 0.9 31 27.7 36.2 39.2 36.2 0.9 55.3 0.9 55.3 80.8 37.6 80.8"></polygon>
                <polygon id="Shape" points="71.5 80.7 71.5 0.8 117.2 0.8 117.2 18.2 93 18.2 93 32.2 108.7 32.2 108.7 47.3 93 47.3 93 62.2 117.2 62.2 117.2 80.7 71.5 80.7"></polygon>
                <polygon id="Shape" points="163.6 80.7 156.5 56.1 147.6 80.7 127.3 80.7 143.9 40.6 128.5 0.8 150.6 0.8 157.4 25.4 165.9 0.8 186.3 0.8 170 38.7 185.8 80.7"></polygon>
                <polygon id="Shape" points="232.6 18.6 232.6 80.8 211.1 80.8 211.1 18.6 196.1 18.6 196.1 0.8 247.7 0.8 247.7 18.6"></polygon>
            </g>
            <path d="M105.5,321.3 L93.3,288 C100.3,285.5 103.5,279.4 103.5,271 L103.5,260 C103.5,248.5 97.7,241.5 84.8,241.5 L61.7,241.5 L61.7,321.4 L73,321.4 L73,289.4 L81.6,289.4 L93.3,321.4 L105.5,321.4 L105.5,321.3 Z M72.9,279.6 L72.9,251.3 L84.9,251.3 C90.2,251.3 92.1,254.3 92.1,259.6 L92.1,271.4 C92.1,276.6 90.2,279.7 84.9,279.7 L72.9,279.7 L72.9,279.6 Z" id="Shape"></path>
        </g>
    </g>
</svg>