<?xml version="1.0" encoding="UTF-8"?>
<svg width="314px" height="205px" viewBox="0 0 314 205" version="1.1" xmlns="http://www.w3.org/2000/svg" xmlns:xlink="http://www.w3.org/1999/xlink">
    <!-- Generator: Sketch 43.2 (39069) - http://www.bohemiancoding.com/sketch -->
    <title>Group 6</title>
    <desc>Created with Sketch.</desc>
    <defs></defs>
    <g id="Page-1" stroke="none" stroke-width="1" fill="none" fill-rule="evenodd">
        <g id="desktop-landning-grön" transform="translate(-88.000000, -1545.000000)">
            <g id="Group-4" transform="translate(-248.000000, 117.000000)">
                <g id="Group-5" transform="translate(336.000000, 1428.000000)">
                    <g id="Group-6">
                        <polyline id="Path-3" stroke="#FFFFFF" stroke-width="10" points="313 41 238.070122 41.0758657 237.629015 120.32683 156 119.843965"></polyline>
                        <polyline id="Path-3-Copy-4" stroke="#FFFFFF" stroke-width="10" points="235 120 160.070122 120.075866 159.629015 199.32683 78 198.843965"></polyline>
                        <path d="M101.08,80.024 L95.32,104 L89.164,104 L83.584,80.024 L90.136,80.024 L92.476,94.028 L94.888,80.024 L101.08,80.024 Z M118.108,104 L111.664,104 L111.232,100.652 L107.416,100.652 L106.876,104 L101.008,104 L105.868,80.024 L113.356,80.024 L118.108,104 Z M110.62,96.224 L109.54,88.124 L108.172,96.224 L110.62,96.224 Z M135.568,104 L130.24,104 C129.232,104 128.728,102.02 128.728,100.292 L128.728,96.332 C128.728,95.684 128.26,94.784 127.36,94.784 L125.884,94.784 L125.884,104 L119.44,104 L119.44,80.024 L128.584,80.024 C131.716,80.024 134.632,82.184 134.632,85.496 L134.632,89.024 C134.632,90.248 133.768,91.724 132.112,92.408 C133.768,93.092 134.74,94.568 134.74,95.828 L134.74,100.004 C134.74,101.516 135.136,102.74 135.568,103.892 L135.568,104 Z M128.548,89.24 L128.548,86.072 C128.548,85.208 128.188,84.884 127.468,84.884 L125.884,84.884 L125.884,90.428 L127.468,90.428 C128.188,90.428 128.548,90.104 128.548,89.24 Z M143.596,104 L143.596,80.024 L137.152,80.024 L137.152,104 L143.596,104 Z M161.956,104 L155.512,104 L155.08,100.652 L151.264,100.652 L150.724,104 L144.856,104 L149.716,80.024 L157.204,80.024 L161.956,104 Z M154.468,96.224 L153.388,88.124 L152.02,96.224 L154.468,96.224 Z M177.868,85.352 L177.868,80.024 L162.388,80.024 L162.388,85.352 L166.888,85.352 L166.888,104 L173.332,104 L173.332,85.352 L177.868,85.352 Z M185.932,104 L185.932,80.024 L179.488,80.024 L179.488,104 L185.932,104 Z M204.364,97.664 C204.364,101.804 200.872,104.612 196.336,104.612 C191.764,104.612 188.272,101.804 188.272,97.664 L188.272,86.36 C188.272,82.22 191.764,79.448 196.336,79.448 C200.872,79.448 204.364,82.22 204.364,86.36 L204.364,97.664 Z M197.776,98.024 L197.776,86 C197.776,85.208 197.092,84.74 196.336,84.74 C195.58,84.74 194.86,85.208 194.86,86 L194.86,98.024 C194.86,98.816 195.58,99.284 196.336,99.284 C197.092,99.284 197.776,98.816 197.776,98.024 Z M223.156,104 L223.156,80.024 L217.432,80.024 L217.432,91.508 L215.884,88.052 L212.284,80.024 L206.704,80.024 L206.704,104 L212.464,104 L212.464,92.732 L214.12,96.188 L217.864,104 L223.156,104 Z" id="VARIATION" fill="#000000" opacity="0.300000012"></path>
                        <path d="M15.904,170.816 C15.904,174.416 13.384,176.576 10,176.576 L7.192,176.576 L7.192,185 L0.748,185 L0.748,161.024 L10,161.024 C13.384,161.024 15.904,163.184 15.904,166.784 L15.904,170.816 Z M9.892,170.96 L9.892,167.072 C9.892,166.208 9.46,165.884 8.776,165.884 L7.192,165.884 L7.192,172.148 L8.776,172.148 C9.46,172.148 9.892,171.788 9.892,170.96 Z M33.472,179.06 L33.472,161.024 L27.244,161.024 L27.244,179.024 C27.244,179.816 26.56,180.284 25.768,180.284 C25.048,180.284 24.364,179.816 24.364,179.024 L24.364,161.024 L17.848,161.024 L17.848,179.06 C17.848,182.66 21.268,185.612 25.768,185.612 C30.34,185.612 33.472,182.66 33.472,179.06 Z M49.276,185 L49.276,179.564 L42.4,179.564 L42.4,161.024 L35.956,161.024 L35.956,185 L49.276,185 Z M65.872,178.196 C65.872,174.524 62.956,172.544 60.4,170.924 C58.42,169.664 56.656,168.656 56.656,167.18 C56.656,166.028 57.52,165.452 58.348,165.452 C59.212,165.452 59.896,166.1 59.896,167.144 L59.896,168.26 L65.512,168.26 L65.512,167.252 C65.512,163.508 62.596,160.448 58.348,160.448 C53.164,160.448 50.5,164.084 50.5,167.828 C50.5,171.356 53.38,173.3 55.936,174.884 C57.916,176.144 59.68,177.188 59.68,178.664 C59.68,179.924 59.104,180.608 57.88,180.608 C56.656,180.608 55.936,179.78 55.936,178.628 L55.936,177.476 L50.32,177.476 L50.32,178.772 C50.32,183.056 53.272,185.612 58.168,185.612 C63.136,185.612 65.872,181.976 65.872,178.196 Z M81.568,185 L81.568,179.456 L74.296,179.456 L74.296,174.992 L79.012,174.992 L79.012,170.456 L74.296,170.456 L74.296,166.244 L81.568,166.244 L81.568,161.024 L67.852,161.024 L67.852,185 L81.568,185 Z M99.82,185 L94.492,185 C93.484,185 92.98,183.02 92.98,181.292 L92.98,177.332 C92.98,176.684 92.512,175.784 91.612,175.784 L90.136,175.784 L90.136,185 L83.692,185 L83.692,161.024 L92.836,161.024 C95.968,161.024 98.884,163.184 98.884,166.496 L98.884,170.024 C98.884,171.248 98.02,172.724 96.364,173.408 C98.02,174.092 98.992,175.568 98.992,176.828 L98.992,181.004 C98.992,182.516 99.388,183.74 99.82,184.892 L99.82,185 Z M92.8,170.24 L92.8,167.072 C92.8,166.208 92.44,165.884 91.72,165.884 L90.136,165.884 L90.136,171.428 L91.72,171.428 C92.44,171.428 92.8,171.104 92.8,170.24 Z M107.848,185 L107.848,161.024 L101.404,161.024 L101.404,185 L107.848,185 Z M126.82,185 L126.82,161.024 L121.096,161.024 L121.096,172.508 L119.548,169.052 L115.948,161.024 L110.368,161.024 L110.368,185 L116.128,185 L116.128,173.732 L117.784,177.188 L121.528,185 L126.82,185 Z M145.396,185 L145.396,172.868 L137.44,172.868 L137.44,176.756 L139.24,176.756 L139.24,178.844 C139.24,179.636 138.628,180.284 137.512,180.284 C136.468,180.284 135.784,179.636 135.784,178.844 L135.784,167.108 C135.784,166.316 136.36,165.74 137.44,165.74 C138.52,165.74 139.06,166.316 139.06,167.108 L139.06,170.06 L145.288,170.06 L145.288,167.036 C145.288,163.796 142.192,160.448 137.332,160.448 C132.436,160.448 129.16,163.796 129.16,167.036 L129.16,178.988 C129.16,182.516 131.896,185.612 136.288,185.612 C138.268,185.612 140.212,184.532 141.112,182.66 L141.832,185 L145.396,185 Z" id="PULSERING-Copy" fill="#000000" opacity="0.300000012"></path>
                        <path d="M189.774,5.956 L189.774,1.024 L176.454,1.024 L176.454,25 L182.898,25 L182.898,15.46 L187.542,15.46 L187.542,10.528 L182.898,10.528 L182.898,5.956 L189.774,5.956 Z M205.074,25 L205.074,19.456 L197.802,19.456 L197.802,14.992 L202.518,14.992 L202.518,10.456 L197.802,10.456 L197.802,6.244 L205.074,6.244 L205.074,1.024 L191.358,1.024 L191.358,25 L205.074,25 Z M220.914,25 L220.914,19.456 L213.642,19.456 L213.642,14.992 L218.358,14.992 L218.358,10.456 L213.642,10.456 L213.642,6.244 L220.914,6.244 L220.914,1.024 L207.198,1.024 L207.198,25 L220.914,25 Z M238.986,18.232 C238.986,22.372 235.962,25 231.138,25 L223.038,25 L223.038,1.024 L231.138,1.024 C235.962,1.024 238.986,4.228 238.986,8.368 L238.986,18.232 Z M232.542,17.8 L232.542,8.224 C232.542,6.892 231.966,6.136 230.67,6.136 L229.482,6.136 L229.482,19.888 L230.67,19.888 C231.966,19.888 232.542,19.132 232.542,17.8 Z M256.482,19.852 C256.482,23.2 253.89,25 250.794,25 L241.326,25 L241.326,1.024 L250.794,1.024 C253.89,1.024 256.482,2.86 256.482,6.172 L256.482,8.656 C256.482,10.384 255.87,12.364 253.35,12.796 C255.762,13.408 256.482,15.028 256.482,16.936 L256.482,19.852 Z M250.47,9.772 L250.47,7.072 C250.47,6.208 250.038,5.884 249.354,5.884 L247.77,5.884 L247.77,10.96 L249.354,10.96 C250.038,10.96 250.47,10.6 250.47,9.772 Z M250.47,18.988 L250.47,16.288 C250.47,15.46 250.038,15.1 249.354,15.1 L247.77,15.1 L247.77,20.176 L249.354,20.176 C250.038,20.176 250.47,19.852 250.47,18.988 Z M274.662,25 L268.218,25 L267.786,21.652 L263.97,21.652 L263.43,25 L257.562,25 L262.422,1.024 L269.91,1.024 L274.662,25 Z M267.174,17.224 L266.094,9.124 L264.726,17.224 L267.174,17.224 Z M291.654,18.664 L291.654,15.964 L285.93,15.964 L285.93,18.7 C285.93,19.636 285.318,20.284 284.166,20.284 C283.014,20.284 282.402,19.636 282.402,18.7 L282.402,7.324 C282.402,6.388 283.014,5.74 284.166,5.74 C285.318,5.74 285.93,6.388 285.93,7.324 L285.93,10.06 L291.654,10.06 L291.654,7.36 C291.654,3.22 288.738,0.412 284.166,0.412 C279.342,0.412 275.814,3.364 275.814,7.792 L275.814,18.232 C275.814,22.66 279.342,25.612 284.166,25.612 C288.738,25.612 291.654,22.804 291.654,18.664 Z M310.698,25 L306.234,10.924 L310.23,1.024 L303.93,1.024 L300.258,11.284 L300.258,1.024 L293.814,1.024 L293.814,25 L300.258,25 L300.258,19.024 L301.59,16.072 L304.182,25 L310.698,25 Z" id="FEEDBACK" fill="#000000"></path>
                    </g>
                </g>
            </g>
        </g>
    </g>
</svg>